<svg width="42" height="20" viewBox="0 0 42 20" fill="none" xmlns="http://www.w3.org/2000/svg">
<g clip-path="url(#clip0_1_278)">
<path d="M6.79941 13.5468C6.78552 12.624 5.98764 5.80618 6.58919 6.41194C8.56141 8.39794 9.63806 10.4046 13.0662 13.7469C12.7429 13.906 12.4657 5.9394 13.0656 6.12325" stroke="white" stroke-width="1.75" stroke-linecap="round" stroke-linejoin="round" stroke-dasharray="26 28"/>
<path d="M15.8189 10.6038C17.2047 10.1882 21.1987 9.6374 21.1987 9.6374C21.1987 5.96841 18.5397 5.21942 16.3631 7.15785C13.3703 10.1729 16.5736 16.2695 21.1987 12.1775" stroke="white" stroke-width="1.75" stroke-linecap="round" stroke-linejoin="round" stroke-dasharray="26 28"/>
<path d="M31.5001 6.19056C31.5001 6.19056 31.0001 12.1208 30.0001 13.5494C29.0001 11.6447 27.5001 7.61913 27.5001 7.61913C27.5001 7.61913 26.2762 11.6599 25.3014 13.5494C23.8014 11.6447 23.507 7.85281 23.2633 6.11987" stroke="white" stroke-width="1.75" stroke-linecap="round" stroke-linejoin="round" stroke-dasharray="30 32"/>
<path d="M35.5001 5.71436C35.0001 7.14293 35.0001 8.72731 35.0001 10.4763" stroke="white" stroke-width="1.75" stroke-linecap="round" stroke-linejoin="round" stroke-dasharray="6 8"/>
<path d="M34.8184 13.0732C34.3931 13.0732 34.2108 13.381 34.393 13.8079C34.4628 13.9714 34.6373 14.0985 34.8185 14.0002C35.1055 13.8445 35.1106 13.5209 35.1441 13.2485" stroke="white" stroke-width="1.75" stroke-linecap="round" stroke-linejoin="round" stroke-dasharray="3 5"/>
<path d="M4.77944 1.14764C8.52277 0.313024 29.0036 0.72828 37.51 0.855052C39.1667 0.87974 40.5039 2.1653 40.5163 3.74322C40.545 7.39004 40.59 12.5378 40.4558 15.865C40.3993 17.2668 39.1972 18.325 37.7249 18.3684C26.4478 18.7002 13.8652 19.0327 3.8984 18.6448C2.28078 18.5818 1.03497 17.2828 1.02123 15.7409C0.983614 11.5174 0.709236 7.22423 1.27944 4.48332" stroke="white" stroke-linecap="round" stroke-linejoin="round" stroke-dasharray="105 107"/>
</g>
<defs>
<clipPath id="clip0_1_278">
<rect width="42" height="20" fill="white"/>
</clipPath>
</defs>
</svg>
