<svg width="68" height="68" viewBox="0 0 68 68" fill="none" xmlns="http://www.w3.org/2000/svg">
<path d="M34 2V66M2 34H66H2Z" stroke="#77C6FF" stroke-width="2" stroke-linecap="round" stroke-linejoin="round"/>
<path d="M58 13.229C52.136 17.381 43.557 19.999 34 19.999C24.442 19.999 15.864 17.381 10 13.229M58 54.77C52.136 50.62 43.557 48 34 48C24.442 48 15.864 50.619 10 54.77H58Z" stroke="#7CABFF" stroke-width="2" stroke-linecap="round" stroke-linejoin="round"/>
<path d="M34 66C43.389 66 51 51.673 51 34C51 16.327 43.389 2 34 2C24.611 2 17 16.327 17 34C17 51.673 24.611 66 34 66Z" stroke="#7CABFF" stroke-width="2" stroke-linecap="round" stroke-linejoin="round"/>
<path d="M34 66C51.673 66 66 51.673 66 34C66 16.327 51.673 2 34 2C16.327 2 2 16.327 2 34C2 51.673 16.327 66 34 66Z" stroke="#5174B0" stroke-width="2" stroke-linecap="round" stroke-linejoin="round"/>
</svg>
