<svg width="68" height="68" viewBox="0 0 68 68" fill="none" xmlns="http://www.w3.org/2000/svg">
<path d="M2 21.693H6.923M34 6.923V2V6.923ZM46.308 6.923V2V6.923ZM21.692 6.923V2V6.923ZM34 66V61.077V66ZM46.308 66V61.077V66ZM21.692 66V61.077V66ZM61.077 34H66H61.077ZM61.077 46.308H66H61.077ZM61.077 21.693H66H61.077ZM2 34H6.923H2ZM2 46.308H6.923H2Z" stroke="#7CABFF" stroke-width="2" stroke-linecap="round" stroke-linejoin="round"/>
<path d="M53.692 6.92297H14.308C12.3493 6.92297 10.4709 7.70103 9.08599 9.08599C7.70103 10.4709 6.92297 12.3493 6.92297 14.308V53.693C6.92324 55.6514 7.70142 57.5296 9.08634 58.9143C10.4713 60.2991 12.3495 61.077 14.308 61.077H53.692C55.6504 61.077 57.5287 60.2991 58.9136 58.9143C60.2985 57.5296 61.0767 55.6514 61.077 53.693V14.308C61.077 12.3493 60.2989 10.4709 58.914 9.08599C57.529 7.70103 55.6506 6.92297 53.692 6.92297V6.92297Z" stroke="#5174B0" stroke-width="2" stroke-linejoin="round"/>
<path d="M48.77 16.77H19.23C18.5776 16.7705 17.952 17.03 17.4908 17.4915C17.0295 17.9529 16.7703 18.5786 16.77 19.231V48.77C16.77 49.4226 17.0291 50.0486 17.4904 50.5102C17.9517 50.9719 18.5774 51.2315 19.23 51.232H48.77C49.4226 51.2315 50.0483 50.9719 50.5096 50.5102C50.9709 50.0486 51.23 49.4226 51.23 48.77V19.232C51.23 18.5794 50.9709 17.9535 50.5096 17.4918C50.0483 17.0302 49.4226 16.7705 48.77 16.77V16.77Z" stroke="#77C6FF" stroke-width="2" stroke-linejoin="round"/>
</svg>
