<svg width="28" height="28" viewBox="0 0 28 28" fill="none" xmlns="http://www.w3.org/2000/svg">
<path d="M3.36 14C3.36 8.12401 8.124 3.36001 14 3.36001C16.366 3.36001 18.55 4.13001 20.317 5.43701C20.548 4.89389 20.8961 4.40847 21.3364 4.01538C21.7767 3.6223 22.2983 3.33125 22.864 3.16301C20.365 1.11358 17.2319 -0.004432 14 1.32045e-05C6.268 1.32045e-05 0 6.26801 0 14C0 21.732 6.268 28 14 28C21.732 28 28 21.732 28 14C28 12.382 27.725 10.825 27.218 9.37601C26.8674 9.85128 26.4158 10.2429 25.8956 10.5227C25.3755 10.8025 24.7998 10.9634 24.21 10.994C24.49 11.946 24.64 12.954 24.64 14C24.64 19.876 19.876 24.64 14 24.64C8.124 24.64 3.36 19.876 3.36 14Z" fill="#001A3A"/>
<path d="M14 20.125C15.6239 20.1231 17.1807 19.4772 18.329 18.329C19.4772 17.1807 20.1231 15.6239 20.125 14C20.1231 12.3761 19.4772 10.8193 18.329 9.67102C17.1807 8.52276 15.6239 7.87685 14 7.875C12.3761 7.87685 10.8193 8.52276 9.67102 9.67102C8.52276 10.8193 7.87685 12.3761 7.875 14C7.87764 15.6236 8.5238 17.18 9.67189 18.3281C10.82 19.4762 12.3764 20.1224 14 20.125ZM23.188 8.75C23.5902 8.75 23.9884 8.67079 24.36 8.51688C24.7315 8.36298 25.0691 8.13739 25.3535 7.85301C25.6379 7.56864 25.8635 7.23103 26.0174 6.85947C26.1713 6.48791 26.2505 6.08967 26.2505 5.6875C26.2505 5.28533 26.1713 4.88709 26.0174 4.51553C25.8635 4.14397 25.6379 3.80636 25.3535 3.52199C25.0691 3.23761 24.7315 3.01202 24.36 2.85812C23.9884 2.70421 23.5902 2.625 23.188 2.625C22.3758 2.625 21.5968 2.94766 21.0225 3.52199C20.4482 4.09632 20.1255 4.87527 20.1255 5.6875C20.1255 6.49973 20.4482 7.27868 21.0225 7.85301C21.5968 8.42734 22.3758 8.75 23.188 8.75Z" fill="#001A3A"/>
</svg>
