<svg width="93" height="40" viewBox="0 0 93 40" fill="none" xmlns="http://www.w3.org/2000/svg">
<path fill-rule="evenodd" clip-rule="evenodd" d="M38.3144 31.5584C43.9585 34.4976 49.7582 37.24 54.793 39.2C60.7434 23.9168 71.5763 11.7696 91.5649 0.603204V0.0144043C65.9338 9.0272 49.9105 15.4928 38.3144 31.5584ZM48.8057 1.7664C43.16 1.32 13.5587 0.204805 0.436127 8.4608C3.94768 11.5856 7.76068 14.7088 12.3385 18.28C25.4611 9.35361 42.2428 6.2288 57.8075 4.8912V4.2208C54.7561 3.7744 51.3985 2.8816 48.8057 1.7664V1.7664Z" fill="#001A3A"/>
<path fill-rule="evenodd" clip-rule="evenodd" d="M63.1839 4.61601C51.4354 6.21441 30.8359 10.6096 19.0875 20.1984C23.359 22.9952 27.7846 25.792 32.3624 28.3888C44.5679 14.6048 61.0481 8.41121 77.6791 4.21601V3.61761C73.5582 4.21601 67.1508 4.61601 63.1839 4.61601V4.61601Z" fill="#001A3A"/>
</svg>
