<svg width="40" height="40" viewBox="0 0 40 40" fill="none" xmlns="http://www.w3.org/2000/svg">
<path d="M4.12139 28.533V34.9294C4.12139 38.4977 6.25814 39.0965 8.03307 39.0965C10.6731 39.0965 11.8835 37.3224 11.8835 34.8871V28.5341H10.1297V35.1141C10.1297 35.94 9.86693 37.4871 8.01186 37.4671C6.33829 37.4459 6.01653 35.8577 6.01653 34.8259V28.533H4.12139V28.533ZM19.1835 28.9671C19.1835 28.9671 18.0745 28.3894 16.8028 28.3894C15.2306 28.3894 13.2353 29.2141 13.2353 31.4836C13.2353 33.0518 14.3644 33.7941 15.1304 34.1859C15.5335 34.393 16.0379 34.62 16.441 34.8459C16.6425 34.9706 17.4899 35.2588 17.4899 36.1871C17.4899 37.1777 16.421 37.5283 15.9578 37.5283C14.263 37.5283 13.0939 36.7447 13.0939 36.7447L13.2754 38.7447C13.2754 38.7447 13.9613 39.1165 16.0568 39.1165C18.0332 39.1165 19.4652 37.7965 19.4652 36.0012C19.4652 34.62 18.5377 33.7941 17.7516 33.4012C17.1269 33.093 16.7639 32.9283 16.2395 32.66C15.695 32.3918 15.1505 31.9577 15.1505 31.2565C15.1505 30.5141 15.8164 29.9777 16.804 29.9777C18.256 29.9777 18.8406 30.6377 19.1824 30.8647V28.9671H19.1835ZM31.1401 35.6718L32.5309 31.6283L33.7825 35.6718H31.1401ZM22.7723 35.6718L24.163 31.6283L25.3934 35.6718H22.7723V35.6718ZM33.3995 28.533H31.3016L31.6446 29.4L28.3976 38.2918L25.0505 28.533H22.9338L23.2755 29.4L19.8082 38.8706H21.7033L22.3091 37.0753H25.8979L26.5025 38.8694H30.0724L30.677 37.0753H34.2657L34.8703 38.8694H36.9682L33.3995 28.533V28.533ZM4.02003 16.9177L4.10136 20.1565C4.10136 20.1565 4.86743 19.58 5.73486 19.58C6.60111 19.58 7.58875 20.2188 7.58875 20.2188L15.352 24.86L16.0167 21.9306L7.58993 16.8765C7.58993 16.8765 6.62114 16.2377 5.73486 16.2377C4.88746 16.2377 4.02003 16.9177 4.02003 16.9177V16.9177Z" fill="#001A3A"/>
<path d="M4.02003 12.6871L4.10136 15.9259C4.10136 15.9259 4.86743 15.3494 5.73486 15.3494C6.60111 15.3494 7.58875 15.9883 7.58875 15.9883L16.1782 21.1247L16.824 18.1953L7.58875 12.6459C7.58875 12.6459 6.62232 12.0071 5.73486 12.0071C4.88746 12.0271 4.02003 12.6871 4.02003 12.6871V12.6871Z" fill="#001A3A"/>
<path d="M4.02003 8.45885L4.10136 11.6977C4.10136 11.6977 4.86743 11.12 5.73486 11.12C6.60111 11.12 7.58875 11.7588 7.58875 11.7588L17.0256 17.4118L17.6702 14.4824L7.58875 8.43767C7.58875 8.43767 6.62232 7.79767 5.73486 7.79767C4.88746 7.79767 4.02003 8.45885 4.02003 8.45885V8.45885Z" fill="#001A3A"/>
<path d="M20.1912 3.32118L21.0586 7.13882L32.875 14.2153C32.875 14.2153 33.8025 14.8553 34.71 14.8553C35.6175 14.8553 36.4425 14.1941 36.4425 14.1941L36.3624 10.9353C36.3624 10.9353 35.6164 11.5118 34.71 11.5118C33.8025 11.5118 32.875 10.8729 32.875 10.8729L23.7411 5.40588L23.1164 2.95059C23.1164 2.84706 23.1966 2.80588 23.2366 2.78588L24.7888 2.29059C24.9904 2.29059 25.1117 2.47529 25.1117 2.62L25.1919 2.78471C25.2532 2.80588 25.4747 2.70235 25.4948 2.68235V1.75294C25.4948 1.11412 24.9904 0.536471 24.3256 0.536471H22.7723C22.7723 0.536471 22.5507 0 21.8848 0H18.9419C18.1759 0 17.9731 0.742353 17.9731 0.742353L15.9366 9.20118L7.58875 4.20941C7.58875 4.20941 6.68125 3.56941 5.73368 3.56941C4.78611 3.56941 4 4.22941 4 4.22941L4.08014 7.46824C4.08014 7.46824 4.78729 6.89176 5.71364 6.89176C6.66121 6.89176 7.56871 7.53059 7.56871 7.53059L17.8329 13.6788L20.1912 3.32118V3.32118Z" fill="#001A3A"/>
<path d="M21.3014 8.17059L22.1677 12.0071L32.8939 18.4235C32.8939 18.4235 33.8615 19.0624 34.7289 19.0624C35.6164 19.0624 36.4626 18.4035 36.4626 18.4035L36.3824 15.1635C36.3824 15.1635 35.6965 15.7412 34.7489 15.7412C33.7813 15.7412 32.9139 15.1024 32.9139 15.1024L21.3014 8.17059Z" fill="#001A3A"/>
<path d="M22.3893 13.0588L23.2567 16.8977L32.8738 22.653C32.8738 22.653 33.8414 23.293 34.7089 23.293C35.5951 23.293 36.4425 22.6318 36.4425 22.6318L36.3624 19.393C36.3624 19.393 35.6765 19.9706 34.7289 19.9706C33.7613 19.9706 32.8939 19.3318 32.8939 19.3318L22.3893 13.0588Z" fill="#001A3A"/>
<path d="M23.4983 17.9494L24.3657 21.7659L32.8939 26.8612C32.8939 26.8612 33.8615 27.5012 34.7289 27.5012C35.6164 27.5012 36.4626 26.8412 36.4626 26.8412L36.3824 23.6023C36.3824 23.6023 35.6965 24.1788 34.7489 24.1788C33.7813 24.1788 32.9139 23.54 32.9139 23.54L23.4983 17.9494V17.9494Z" fill="#001A3A"/>
</svg>
