<svg width="40" height="40" viewBox="0 0 40 40" fill="none" xmlns="http://www.w3.org/2000/svg">
<path d="M30.503 5.62697C30.597 5.39697 30.409 5.17897 30.409 5.17897C30.409 5.17897 28.932 2.65697 23.738 2.08797C20.946 1.78997 17.16 2.35897 14.503 3.80997C9.67099 6.42697 8.94599 10.752 8.94599 10.752C8.91899 10.861 8.87899 11.186 8.98599 11.322C9.09299 11.457 9.25399 11.457 9.45599 11.39C11.16 10.807 16.221 9.11197 19.416 8.25697C23.966 7.03697 27.711 6.29097 30.1 5.88497C30.288 5.84397 30.436 5.78997 30.503 5.62697Z" fill="#001A3A"/>
<path d="M35.698 25.993C32.973 32.176 27.752 36.475 20.893 36.569C15.913 36.637 11.51 34.915 8.329 31.905L6.409 32.732V29.722C4.315 26.875 3.094 23.254 3.094 19.159C3.094 8.651 11.054 0.38 22.168 0.38C23.98 0.38 25.618 0.665 26.852 0.95C24.946 0.34 23.054 0 20.946 0C9.026 0 1 9.763 1 19.837C1 30.807 9.523 40 20.705 40C31.389 40 37.148 32.393 39 27.81L35.698 25.993Z" fill="#001A3A"/>
<path d="M32.933 23.823C34.503 23.647 35.59 23.009 36.181 22.413C36.718 21.871 36.851 21.139 36.851 20.583C36.879 19.769 36.851 17.22 36.851 17.22L32.704 18.129V19.105C32.718 19.755 33.027 20.108 33.698 19.986C33.912 19.946 34.234 19.85 34.234 19.85V20.65C34.234 20.623 34.302 21.098 33.254 21.301C31.886 21.518 31.268 20.664 31.254 19.159C31.282 17.546 32.181 16.624 33.282 16.366C34.516 16.081 35.214 16.38 35.617 16.434C36.986 16.637 37.375 14.563 36.127 14.074C35.201 13.695 34.007 13.627 32.865 13.858C31.335 14.169 28.342 15.458 28.329 19.648C28.315 22.982 30.745 24.068 32.933 23.823ZM19.443 27.389C19.443 27.389 20.718 26.942 20.825 26.914C21.845 26.562 22.221 25.938 22.221 24.881C22.208 23.728 22.208 21.477 22.208 21.477L25.174 24.921C25.657 25.423 26.261 25.464 26.812 25.301C27.375 25.138 27.858 24.61 27.872 23.864V15.308C27.872 15.308 27.107 15.471 26.476 15.648C25.751 15.851 25.188 16.325 25.188 17.573V20.542C25.188 20.542 23.496 18.413 22.409 17.315C21.832 16.732 20.866 17.085 20.866 17.085L19.443 17.518V27.388V27.389ZM18.543 17.736C18.543 17.736 17.657 17.993 16.933 18.264C15.993 18.604 15.443 19.159 15.443 20.596V28.8C15.443 28.8 16.262 28.516 17.04 28.217C18.127 27.797 18.543 27.227 18.543 26.075V17.737V17.736ZM14.127 19.688C13.8162 19.5335 13.4593 19.4992 13.1248 19.5919C12.7904 19.6845 12.5019 19.8976 12.315 20.19L9.80501 24.515V21.03L6.82501 22.264L6.81201 32.108L8.90601 31.226C8.90601 31.226 9.32201 31.104 9.56401 30.711C9.79201 30.345 9.77801 29.748 9.77801 29.748V26.63L12.114 29.138C12.624 29.681 13.564 29.952 14.395 29.274C15.147 28.664 15.026 27.62 14.61 27.145L12.49 24.99C12.49 24.99 14.355 22.007 14.664 21.519C15.066 20.841 14.865 20.027 14.127 19.689V19.688ZM12.96 31.268C12.852 31.525 13.107 31.783 13.107 31.783C14.181 33.153 18.973 34.888 24.181 33.613C32.128 31.674 33.805 25.993 33.993 25.193C34.033 25.03 34.06 24.773 33.913 24.61C33.792 24.474 33.604 24.474 33.363 24.529C27.833 25.844 18.665 28.678 13.363 30.969C13.134 31.064 13.04 31.105 12.96 31.268ZM8.24801 18.359C8.23501 17.817 7.81801 17.519 7.10801 17.884V19.634C7.10801 19.634 7.33501 19.524 7.51001 19.444C7.94001 19.24 8.26201 18.888 8.24801 18.359ZM7.09401 16.773C7.22801 16.718 7.32201 16.678 7.42901 16.623C7.81901 16.433 8.10001 16.068 8.10001 15.607C8.10001 15.077 7.67101 14.942 7.09401 15.241V16.773ZM10.154 18.101C10.181 19.484 9.20101 20.216 7.91301 20.745L5.29501 21.87V14.698C5.29501 14.698 6.94601 14.02 7.48301 13.817C9.01301 13.247 9.91301 13.939 9.91301 14.969C9.91301 15.661 9.61701 16.244 8.98601 16.759C9.60401 16.867 10.141 17.383 10.154 18.101ZM15.12 12.053C15.12 11.443 14.704 11.294 14.207 11.43C13.805 11.552 13.335 11.728 13.335 11.728V16.188C13.335 16.636 13.268 17.192 12.717 17.328C12.301 17.436 12.1 17.151 12.1 16.704V13.057C12.1 12.447 11.684 12.27 11.187 12.433C10.624 12.623 10.301 12.758 10.301 12.758V17.178C10.288 18.656 11.308 19.402 12.838 18.941C14.194 18.534 15.106 17.761 15.12 15.796V12.053ZM29.698 13.898C30.087 13.816 30.328 13.532 30.328 13.044V12.271L28.208 12.745V11.485C28.208 11.485 29.255 11.268 29.537 11.2C29.899 11.118 30.087 10.915 30.087 10.495V9.763L28.207 10.169V9.166L29.711 8.854C30.127 8.773 30.261 8.488 30.261 8.094V7.336C29.322 7.498 27.537 7.864 26.423 8.122L26.409 14.657C26.409 14.657 28.53 14.155 29.698 13.897V13.898ZM17.403 13.627C17.403 13.627 18.45 13.071 18.45 12.203C18.436 11.458 17.765 11.62 17.416 11.756L17.403 13.626V13.627ZM17.416 14.644V16.406C17.416 16.881 17.094 17.22 16.691 17.383C16.691 17.369 16.691 17.396 16.691 17.383C16.356 17.505 15.631 17.749 15.631 17.749V11.01C15.631 11.01 17.121 10.481 17.993 10.278C19.335 9.953 20.302 10.576 20.288 11.688C20.275 12.745 19.698 13.383 19.174 13.83L20.329 14.942C20.5045 15.1249 20.6014 15.3694 20.5987 15.6229C20.5961 15.8764 20.4943 16.1187 20.315 16.298C20.073 16.528 19.443 16.758 18.959 16.244C18.946 16.244 17.416 14.644 17.416 14.644ZM32.463 10.007C32.463 10.007 33.496 9.613 33.483 8.773C33.47 8.068 32.785 8.19 32.45 8.271L32.463 10.007ZM30.718 13.694V7.241C30.718 7.241 32.584 6.901 33.067 6.847C34.409 6.671 35.308 7.43 35.282 8.488C35.268 9.424 34.691 9.993 34.194 10.332C34.194 10.332 35.107 11.362 35.349 11.647C35.671 12.013 35.657 12.65 35.174 12.962C34.9867 13.0914 34.7579 13.1465 34.5323 13.1165C34.3066 13.0866 34.1001 12.9737 33.953 12.8L32.463 11.01V12.583C32.463 13.057 32.181 13.41 31.698 13.505L30.718 13.695V13.694Z" fill="#001A3A"/>
<path d="M25.993 10.983L23.349 11.593V12.339C23.349 12.691 23.59 12.909 23.939 12.84C24.154 12.8 24.329 12.759 24.329 12.759V13.505C24.329 13.803 23.899 13.993 23.443 13.979C22.798 13.952 22.449 13.451 22.436 12.501C22.45 11.254 23.04 10.521 23.832 10.319C24.222 10.21 24.584 10.264 24.866 10.305C25.55 10.413 25.939 10.088 25.953 9.519C25.966 8.909 25.429 8.529 24.288 8.569C21.792 8.651 20.517 10.468 20.517 12.623C20.517 14.833 21.953 15.81 23.697 15.498C24.677 15.294 25.174 14.969 25.51 14.671C25.845 14.373 25.993 13.925 25.993 13.531V10.983ZM15.563 3.756C12.637 5.057 10.663 8.162 10.556 9.464C10.516 9.979 11.201 10.06 11.268 9.504C11.885 7.118 13.764 4.867 15.563 3.756ZM25.241 5.98C26.811 5.586 27.684 5.532 27.698 4.813C27.724 3.62 24.368 2.237 21.282 2.495C24.422 2.712 26.302 3.932 26.302 4.773C26.315 5.315 25.845 5.79 25.242 5.979L25.241 5.98ZM26.208 32.284C28.57 31.349 30.838 29.546 32.1 26.861C32.463 26.088 31.416 25.681 31.12 26.603C30.1841 29.0049 28.4495 31.0111 26.208 32.284Z" fill="#001A3A"/>
</svg>
