<svg width="40" height="40" viewBox="0 0 40 40" fill="none" xmlns="http://www.w3.org/2000/svg">
<g clip-path="url(#clip0_0_160)">
<path d="M19.9794 39.9977C8.96914 39.9977 0 31.0731 0 19.9977C0 8.968 8.96914 0 19.9794 0C30.9897 0 39.9589 8.96686 39.9589 19.9989C39.9589 31.0731 30.9897 39.9977 19.9794 39.9977ZM19.9794 0.946286C9.46286 0.946286 0.945143 9.472 0.945143 19.9977C0.945143 30.5246 9.47429 39.0514 19.9897 39.0514C30.5063 39.0514 39.024 30.5257 39.024 19.9989C39.0126 9.52571 30.4949 0.946286 19.9794 0.946286V0.946286ZM36.9074 25.6971C36.896 25.7189 36.8651 25.7406 36.8114 25.7189C36.768 25.6971 36.7463 25.6754 36.7463 25.6434C36.7463 25.6114 37.4126 23.6434 37.4126 21.3749C37.4011 18.9337 36.4137 17.44 35.1463 17.44C34.3726 17.44 33.8137 17.9989 33.8137 18.8263C33.8137 20.3211 35.64 20.44 35.64 23.7074C35.64 25.0411 35.3611 26.3097 34.92 27.696C32.8686 34.6217 26.3371 37.8366 19.9794 37.8366C17.0469 37.8366 14.9623 37.2343 14.3394 36.9543C14.3189 36.9429 14.2971 36.8903 14.3189 36.8469C14.3291 36.8149 14.3726 36.7829 14.4046 36.7931C14.6514 36.8903 16.4457 37.4594 18.6583 37.4594C21.096 37.4594 22.536 36.4594 22.536 35.2446C22.536 34.4709 21.9337 33.8583 21.1497 33.8583C19.6571 33.8583 19.5383 35.7394 16.3383 35.7394C14.952 35.7394 13.7383 35.4594 12.2994 35.0194C5.424 32.9006 2.14857 26.4286 2.15886 19.9989C2.15886 16.8697 3.03886 14.376 3.05029 14.3531C3.06171 14.3326 3.104 14.3211 3.14743 14.3326C3.20114 14.3543 3.21143 14.3966 3.20114 14.408C2.76517 15.7852 2.54052 17.2206 2.53486 18.6651C2.53486 21.1063 3.53371 22.5463 4.80114 22.5463C5.52114 22.5463 6.13371 21.9977 6.13371 21.2137C6.13371 19.7189 4.30743 19.5474 4.30743 16.3326C4.30743 14.9451 4.58629 13.7303 5.02743 12.2891C7.14286 5.42971 13.6206 2.20571 19.9794 2.16114C22.9326 2.13943 25.5223 3.02171 25.6183 3.10743C25.64 3.11886 25.6503 3.16114 25.64 3.20457C25.6183 3.25829 25.5863 3.25829 25.5646 3.25829C25.5326 3.25829 23.8457 2.54857 21.3006 2.54857C18.9154 2.54857 17.4229 3.54857 17.4229 4.81714C17.4229 5.53714 17.9714 6.13943 18.808 6.13943C20.3017 6.13943 20.408 4.31086 23.6194 4.31086C25.0057 4.31086 26.2194 4.59086 27.6594 5.03086C34.5771 7.13943 37.7246 13.6766 37.7886 19.9874C37.832 23.2354 36.9189 25.6869 36.9086 25.6971H36.9074ZM27.3909 20.9451C25.5109 20.9451 24.072 22.3314 24.072 23.9874C24.072 25.3749 24.8983 26.4823 26.0057 26.4823C26.392 26.4823 26.7783 26.256 26.7783 25.7623C26.7783 25.0423 25.8229 24.8697 25.8983 23.7829C25.9406 23.0743 26.6183 22.6011 27.272 22.6011C28.6046 22.6011 29.2171 23.8903 29.2171 25.2137C29.1634 27.2663 27.6594 28.6857 25.8869 28.6857C23.5669 28.6857 22.0629 26.4709 22.0629 24.0846C22.0629 20.536 24.3829 19.1486 25.608 18.816C25.6194 18.816 28.7874 19.3851 28.6903 17.9771C28.648 17.3646 27.7349 17.128 27.0686 17.096C26.3269 17.0629 25.5966 17.3326 25.5966 17.3326C25.2103 17.1383 24.9417 16.752 24.7806 16.3109C27.0469 14.5909 28.6583 12.9349 28.6583 11.0537C28.6583 10.0526 27.992 9.17143 26.7246 9.17143C24.4583 9.17143 22.7394 12.0526 22.7394 14.6549C22.7394 15.096 22.7394 15.536 22.8469 15.9349C21.4069 16.9886 20.3326 17.6434 18.4011 18.8046C18.4011 18.5577 18.4537 17.9337 18.6149 17.128C19.2811 16.408 20.1943 15.3223 20.1943 14.4937C20.1943 14.1063 19.968 13.7737 19.528 13.7737C18.4217 13.7737 17.5943 15.44 17.368 16.6011C16.8754 17.2137 15.8754 17.9874 15.048 17.9874C14.3829 17.9874 14.168 17.3749 14.104 17.16C16.2091 16.44 18.808 13.5577 18.808 10.9566C18.808 10.408 18.5829 9.18171 16.928 9.18171C14.4366 9.18171 12.3314 12.8914 12.3314 15.7737C11.44 15.7737 11.1177 14.8274 11.1177 14.1166C11.1177 13.3966 11.3966 12.6766 11.3966 12.4503C11.3966 12.2251 11.2891 11.9566 10.9566 11.9566C10.1291 11.9566 9.624 13.064 9.624 14.3326C9.67771 16.1063 10.8377 17.2137 12.3954 17.3211C12.6217 18.3749 13.5554 19.3749 14.7154 19.3749C15.4354 19.3749 16.3154 19.1497 16.9291 18.6011C16.8743 18.9874 16.8206 19.3211 16.7577 19.6549C14.3291 20.9451 12.568 21.8263 10.9566 23.2663C9.688 24.4286 8.96914 25.9771 8.96914 27.2023C8.96914 28.8686 10.0217 30.4171 12.1806 30.4171C14.7269 30.4171 16.6606 28.3634 17.6057 25.5463C18.0457 24.2137 18.2286 22.2777 18.336 20.504C20.8811 19.064 22.0846 18.2251 23.416 17.2891C23.5771 17.5691 23.7497 17.784 23.976 17.9554C22.8149 18.568 20.0446 20.2777 20.0446 24.3326C20.0446 27.2126 21.976 30.4286 25.8011 30.4286C28.9589 30.4286 31.1177 27.8263 31.1177 25.3314C31.1063 23.0526 29.8286 20.9451 27.3909 20.9451ZM12.1806 28.6971C11.3543 28.7394 10.7954 28.2023 10.7954 27.3211C10.7954 24.9337 14.0926 22.6651 16.5851 21.4503C16.144 24.7726 15.016 28.568 12.1806 28.696V28.6971ZM14.0069 15.6229C14.0069 13.7943 15.8114 10.3223 16.9074 10.6869C18.2069 11.1177 15.8331 14.6229 14.0069 15.6229V15.6229ZM24.4583 14.7943C24.4583 12.5257 25.9943 10.3109 26.832 10.7303C27.7886 11.2034 26.1234 13.3429 24.4583 14.7943V14.7943Z" fill="#001A3A"/>
</g>
<defs>
<clipPath id="clip0_0_160">
<rect width="40" height="40" fill="white"/>
</clipPath>
</defs>
</svg>
