<svg width="68" height="40" viewBox="0 0 68 40" fill="none" xmlns="http://www.w3.org/2000/svg">
<g clip-path="url(#clip0_0_153)">
<path d="M31.5973 39.6667H7.24267C3.24267 39.6667 0 36.284 0 32.1107C0 27.9373 3.24267 24.556 7.24267 24.556C8.37867 24.556 9.38267 24.4173 12.3133 26.1613L31.5973 39.668V39.6667ZM29.5573 37.1653L9.692 23.1627C6.42933 20.8627 5.572 16.24 7.77733 12.836C9.98133 9.43199 14.4133 8.53732 17.676 10.8373C18.6027 11.4907 19.4947 11.9547 20.964 15.0627L29.5573 37.1653V37.1653ZM29.136 33.8893L20.0467 10.584C18.5533 6.75732 20.1933 2.33999 23.7053 0.71999C27.2187 -0.900009 31.276 0.889324 32.7693 4.71732C33.1933 5.80399 33.684 6.71066 33.3093 10.192L29.136 33.8893ZM36.004 39.6667H60.3587C64.3587 39.6667 67.6013 36.284 67.6013 32.1107C67.6013 27.9373 64.3587 24.556 60.3587 24.556C59.2227 24.556 58.2187 24.4173 55.288 26.1613L36.004 39.6667ZM38.0427 37.1667L57.908 23.164C61.1707 20.864 62.028 16.24 59.8227 12.836C57.6187 9.43332 53.1867 8.53866 49.924 10.8387C48.9973 11.492 48.1053 11.956 46.636 15.0627L38.0427 37.1667V37.1667ZM47.5533 10.584L38.464 33.8893L34.7693 12.9067C34.4493 10.8933 34.748 10.5 35.308 9.91466C35.8243 9.38979 36.4256 8.9561 37.0867 8.63199C37.216 8.56932 37.2373 8.38666 37.1093 8.31732C36.7176 8.11211 36.2913 7.98102 35.852 7.93066C35.2887 7.87996 34.7221 7.87907 34.1587 7.92799C34.1693 6.37866 34.4573 5.65599 34.744 4.93599L34.832 4.71599C36.3253 0.889324 40.3827 -0.900009 43.896 0.71999C47.408 2.33999 49.0467 6.75599 47.5533 10.584Z" fill="#001A3A"/>
</g>
<defs>
<clipPath id="clip0_0_153">
<rect width="68" height="40" fill="white"/>
</clipPath>
</defs>
</svg>
