<svg width="40" height="40" viewBox="0 0 40 40" fill="none" xmlns="http://www.w3.org/2000/svg">
<g clip-path="url(#clip0_0_155)">
<path fill-rule="evenodd" clip-rule="evenodd" d="M35.4941 0H4.12721e-06V20.7659C-0.000151765 13.8443 0.000632549 6.92275 0.00235707 0.00117647V31.1659C4.12724e-06 27.7094 4.12721e-06 24.2518 4.12721e-06 20.7929V40H7.46706L7.50706 39.9176C7.57177 39.7871 7.63883 39.6529 7.64589 39.5035C7.62824 39.3482 7.51765 39.2318 7.41295 39.1212L7.35648 39.0588L4.83059 36.5353H4.82942L4.82706 36.5318C3.56236 35.2682 2.29765 34.0035 1.03059 32.7424C0.996475 32.7094 0.963534 32.6753 0.930592 32.64C0.810592 32.5165 0.688239 32.3882 0.514122 32.3553C0.376475 32.3518 0.252945 32.4094 0.130592 32.4671C0.087063 32.4859 0.04471 32.5059 0.0011806 32.5235V31.1671C0.463534 30.6988 0.930592 30.2329 1.39647 29.7682C1.86236 29.3035 2.32824 28.8388 2.79059 28.3694C2.92165 28.2216 3.10261 28.1274 3.29883 28.1047C3.58471 28.0835 3.84942 28.3906 3.76942 28.6718C3.74589 28.7541 3.70706 28.8353 3.66824 28.9153C3.60236 29.0482 3.53765 29.1835 3.54236 29.3353C3.58589 29.5118 3.71647 29.6376 3.84236 29.7588L3.90824 29.8224L5.93177 31.8482L5.94706 31.8635L5.98118 31.8965C7.42353 33.3412 8.86706 34.7859 10.3129 36.2282C10.4188 36.3294 10.5365 36.4424 10.6906 36.4541C10.8294 36.4541 10.9518 36.3953 11.0741 36.3353C11.1682 36.2894 11.2612 36.2435 11.3624 36.2235C11.6447 36.1647 11.9294 36.4471 11.8918 36.7282C11.8671 36.9718 11.6941 37.1565 11.5271 37.3165L8.84353 39.9988H20.2118C20.2706 39.8812 20.3424 39.7306 20.2377 39.6129C20.0965 39.4494 19.9424 39.2988 19.7871 39.1471C19.686 39.0497 19.5868 38.9504 19.4894 38.8494L18.7718 38.1318L18.7565 38.1153L18.7471 38.1071C18.0082 37.3682 17.2694 36.6306 16.5329 35.8882L16.5165 35.8729C16.4365 35.8 16.3482 35.72 16.2388 35.7282C16.1777 35.7412 16.1212 35.7671 16.0624 35.7929C15.9977 35.8267 15.9283 35.8505 15.8565 35.8635C15.7059 35.8541 15.5624 35.7071 15.5882 35.5518C15.6353 35.4118 15.7377 35.3082 15.8388 35.2047L15.8647 35.1788L15.8824 35.1612C16.1224 34.9259 16.3588 34.6894 16.5941 34.4518H16.5953C16.8894 34.1576 17.1824 33.8612 17.4824 33.5729C19.1363 35.2315 20.7924 36.888 22.4506 38.5424L21.7035 39.2871L21.7024 39.2894L20.9894 40H40V0H35.4941ZM37.9141 0.00235294H37.2212L35.4953 0C34.9777 0 34.4624 0 33.9459 0.00235294H29.8659C28.2761 -0.000430306 26.6863 -0.000430306 25.0965 0.00235294H0.00235707H29.8659C30.2953 0.00235294 30.7247 0.00352941 31.1529 0.00588235C30.8388 0.323529 30.5212 0.641176 30.2035 0.958824C29.9553 1.20706 29.7071 1.45412 29.4612 1.70235C29.5812 1.82941 29.7047 1.95176 29.8282 2.07412C29.9341 2.17765 30.0388 2.28118 30.1412 2.38706C30.6529 2.03412 31.2329 1.75294 31.8624 1.70706C32.4294 1.64824 33.0012 1.79529 33.5212 2.02235C33.58 2.04706 33.6388 2.07647 33.6977 2.10706C33.8329 2.17647 33.9706 2.24706 34.1259 2.26118C34.3447 2.24941 34.5082 2.05529 34.5847 1.86118C34.6471 1.72824 34.5882 1.56824 34.4835 1.47176C34.2765 1.26235 34.0682 1.05529 33.86 0.848235C33.5794 0.568877 33.3001 0.288089 33.0224 0.00588235C33.3294 0.00352941 33.6377 0.00235294 33.9459 0.00235294H37.9141V0.00235294ZM37.9141 0.00235294H39.8012H37.9141ZM39.9988 20.0565V20.2212L39.9294 20.2482C39.8388 20.2835 39.7435 20.3235 39.6541 20.28C39.5459 20.2106 39.4565 20.1176 39.3682 20.0259C39.3329 19.9906 39.2988 19.9529 39.2624 19.9188C38.6812 19.34 38.1012 18.7588 37.5212 18.1776C36.7467 17.4 35.9695 16.625 35.1894 15.8529L34.7482 16.2953V16.2965H34.7471C34.3541 16.6918 33.9635 17.0847 33.5635 17.4706C33.74 17.6682 33.9282 17.8541 34.1165 18.0388C34.2388 18.1588 34.36 18.2788 34.48 18.4024V18.4035C35.5729 19.4953 36.6635 20.5871 37.76 21.6788L37.8247 21.7435C37.8988 21.8153 37.9729 21.8882 38.0118 21.9859C38.0235 22.0776 37.9835 22.16 37.9459 22.2412C37.9257 22.2819 37.9084 22.3239 37.8941 22.3671C37.8388 22.5141 37.9565 22.6906 38.1118 22.6953C38.2506 22.72 38.3682 22.6282 38.4565 22.5353C38.8 22.1894 39.1459 21.8447 39.4918 21.5L39.4953 21.4953L39.9988 20.9941V40V20.0565ZM39.9988 10.2847V20.0565C40.0012 17.5835 40 15.1094 39.9988 12.6353V10.2847V10.2847ZM39.9988 6.71529V6.81412C39.7345 6.55378 39.4717 6.29182 39.2106 6.02824C39 5.81647 38.7906 5.60471 38.5788 5.39529C38.4518 5.26471 38.2471 5.19765 38.0741 5.27765C37.9543 5.32968 37.8574 5.42328 37.8012 5.54118C37.74 5.78 37.8435 6.01529 37.9388 6.22941L37.9447 6.24235C38.2388 6.86471 38.3682 7.56588 38.28 8.25059C38.2212 8.71647 38.0541 9.17529 37.8012 9.57412C37.7341 9.67059 37.6718 9.77059 37.6129 9.87176C37.7282 9.97176 37.8365 10.0812 37.9424 10.1906C38.0612 10.3118 38.18 10.4318 38.3094 10.54C38.6624 10.1765 39.0212 9.81882 39.3812 9.46L39.3824 9.45882C39.5882 9.25412 39.7941 9.04824 39.9977 8.84235V10.2847V6.71529H39.9988ZM39.9988 0.863529V6.71529C40.0012 5.23294 40 3.75059 39.9988 2.27059V0.863529V0.863529ZM39.9988 0.00235294V0.863529V0.00235294ZM39.9988 0.00235294H39.8871H40H39.9988ZM0.00235707 40H3.11177H0.00235707ZM28.8518 2.30588C28.8894 2.26471 28.9565 2.22588 28.9941 2.28941C31.9224 5.21412 34.8482 8.14 37.7718 11.0682C36.7447 12.0941 35.7188 13.1224 34.6929 14.1506C34.5588 14.2765 34.3953 14.3824 34.2106 14.3941C33.9541 14.4153 33.6977 14.1847 33.7188 13.9235C33.7235 13.7976 33.7777 13.6859 33.8341 13.5729C33.8906 13.4576 33.9482 13.3412 33.9506 13.2094C33.9577 13.0576 33.8506 12.9424 33.7506 12.8353L33.7271 12.8118C32.24 11.3271 30.7553 9.84118 29.2694 8.35294H29.2682L29.2624 8.34588L27.2177 6.3L27.1894 6.27294C27.0753 6.16118 26.9471 6.03765 26.7777 6.04941C26.6517 6.05979 26.5298 6.09883 26.4212 6.16353C26.2941 6.22706 26.1671 6.29059 26.0212 6.27529C25.8612 6.28 25.7306 6.15294 25.6506 6.02353C25.5412 5.79647 25.6424 5.52353 25.8071 5.35529L25.9294 5.23294L25.9306 5.23176C26.9071 4.25529 27.8812 3.28118 28.8518 2.30588V2.30588ZM33.5012 2.88588C33.3118 2.86118 33.1518 3.00353 33.0682 3.15882C32.9882 3.37765 33.08 3.61294 33.1977 3.80118C33.4294 4.18353 33.6141 4.62118 33.5859 5.07882C33.5741 5.23529 33.52 5.37882 33.4647 5.52353C33.4482 5.56471 33.4318 5.60706 33.4177 5.64941C33.5424 5.79765 33.6835 5.93294 33.8247 6.06941C33.9282 6.17059 34.0329 6.27059 34.1306 6.37529C34.3282 6.28824 34.5377 6.19882 34.7565 6.20353C35.18 6.18353 35.5835 6.35059 35.9412 6.56118L35.9729 6.57882C36.1306 6.66588 36.2977 6.75765 36.4788 6.75529C36.7094 6.72941 36.9282 6.51529 36.9071 6.27529C36.8741 6.07412 36.7259 5.93294 36.5824 5.79647C35.7205 4.93674 34.8597 4.07596 34 3.21412L33.9624 3.17882C33.8341 3.04706 33.6918 2.90235 33.5 2.88706L33.5012 2.88588ZM14.5588 5.38588C14.7941 5.13882 15.0353 4.89882 15.2765 4.65882C15.5012 4.43529 15.7259 4.21176 15.9447 3.98353C16.2859 4.31412 16.6188 4.64824 16.9529 4.98353L17.2224 5.25177C17.36 5.38588 17.2341 5.61294 17.0788 5.66706C16.9871 5.67882 16.9047 5.64 16.8224 5.6C16.7883 5.58289 16.7533 5.56758 16.7177 5.55412C16.2647 5.33059 15.7012 5.30706 15.2471 5.55059C15.2012 5.56941 15.1588 5.59765 15.1153 5.62471C15.0494 5.66706 14.9835 5.70941 14.9071 5.72235C14.8316 5.65899 14.7601 5.59102 14.6929 5.51882C14.6482 5.47412 14.6047 5.42824 14.5588 5.38588V5.38588ZM15.3447 6.71882C14.9906 6.36235 14.6353 6.00471 14.2741 5.65529C13.9329 6.00471 13.5894 6.34941 13.2447 6.69059L12.6565 7.28C12.5808 7.34794 12.5316 7.44046 12.5177 7.54118C12.5012 7.67059 12.6188 7.79765 12.7447 7.80941C12.815 7.80112 12.8829 7.77914 12.9447 7.74471C13.0282 7.70588 13.1118 7.66588 13.2071 7.68824C13.2918 7.73176 13.3588 7.80118 13.4259 7.87059C14.5504 8.99941 15.6771 10.1261 16.8059 11.2506C16.8765 11.3247 16.9659 11.4212 16.9153 11.5306C16.9024 11.5708 16.8866 11.6102 16.8682 11.6482C16.8165 11.7659 16.7612 11.8906 16.86 11.9976C16.9694 12.1529 17.1965 12.0976 17.3094 11.9718C17.8624 11.4259 18.4106 10.8776 18.9565 10.3247C18.4094 9.78353 17.8659 9.24 17.3235 8.69529H17.3224L17.32 8.69294V8.69177H17.3188C16.9106 8.28353 16.5035 7.87529 16.0953 7.46941C15.8447 7.22118 15.5953 6.97059 15.3447 6.71882V6.71882ZM16.4659 6.32706C16.4539 6.29326 16.4494 6.25727 16.4526 6.22155C16.4558 6.18584 16.4668 6.15125 16.4847 6.12017C16.5026 6.08909 16.527 6.06225 16.5562 6.04151C16.5855 6.02076 16.6189 6.0066 16.6541 6C16.7635 5.98235 16.8518 6.06588 16.9271 6.13765L17.2729 6.48353L17.2741 6.48471C17.6129 6.82471 17.9518 7.16471 18.2929 7.49882L18.3471 7.55529C18.4165 7.62353 18.4882 7.69412 18.4941 7.79765C18.5106 7.92706 18.3847 8.05294 18.2506 8.04118C18.1388 8.04118 18.0447 7.98471 17.9494 7.92941C17.8956 7.89585 17.8389 7.86711 17.78 7.84353C17.6625 7.78686 17.5336 7.75811 17.4032 7.75954C17.2727 7.76097 17.1444 7.79253 17.0282 7.85176L16.9577 7.78C16.8588 7.68118 16.76 7.58118 16.6588 7.49059C16.7141 7.30588 16.7647 7.10824 16.7177 6.91412C16.6977 6.78706 16.6377 6.67647 16.5777 6.56588C16.5335 6.4897 16.4961 6.40978 16.4659 6.32706V6.32706ZM24.9247 6.43647C24.7657 6.46118 24.6193 6.53768 24.5082 6.65412L23.1812 7.98118L23.18 7.98235V7.98353H23.1788L23.1777 7.98471L23.1765 7.98588V7.98706C22.5859 8.57765 21.9953 9.16941 21.4 9.75882C21.8129 10.5435 22.2353 11.3235 22.6588 12.1024C23.0847 12.8871 23.5094 13.6729 23.9247 14.4624L23.9835 14.4541L23.9482 14.4976L23.9424 14.5059L23.9259 14.5271L23.9118 14.5424C23.8718 14.4988 23.8259 14.4647 23.7824 14.4318L23.7612 14.4165C23.0188 14.0541 22.2765 13.6953 21.5341 13.3365C20.7024 12.9353 19.8706 12.5341 19.04 12.1271C18.4424 12.72 17.8459 13.3153 17.2494 13.9118L17.2424 13.92H17.2412V13.9212H17.24V13.9224H17.2388V13.9235H17.2377V13.9247H17.2365V13.9259L16.02 15.1388C15.9033 15.2439 15.8154 15.3772 15.7647 15.5259C15.7012 15.7482 15.8435 15.9918 16.0494 16.0835C16.2224 16.1388 16.4071 16.0718 16.5459 15.9624L16.6318 15.8941C16.7377 15.8082 16.8459 15.72 16.9906 15.74C17.4624 15.7965 17.8859 16.0129 18.3047 16.2259L18.5235 16.3365C19.7777 16.9565 21.0318 17.5788 22.2859 18.2012H22.2882C24.1506 19.1259 26.0129 20.0506 27.8765 20.9682C27.9859 20.8553 28.0953 20.7424 28.2082 20.6365C28.1892 20.5891 28.1668 20.5431 28.1412 20.4988C27.3624 19.0518 26.5812 17.6082 25.8 16.1635L25.7965 16.16C25.0153 14.7153 24.2329 13.2718 23.4553 11.8247L26.2177 14.5859L26.2188 14.5871L26.22 14.5894L26.2224 14.5906V14.5918L26.2259 14.5953H26.2271L29.1071 17.4741C29.2 17.5753 29.2965 17.6882 29.3094 17.8271C29.3129 17.9682 29.2506 18.0941 29.1894 18.2176C29.1247 18.3506 29.0588 18.4824 29.0741 18.6341C29.1035 18.8565 29.3212 19.0494 29.5482 19.0365C29.7541 19.0365 29.9306 18.9106 30.0694 18.7718C30.6012 18.2424 31.1329 17.7094 31.6635 17.1776L31.6659 17.1753C32.2118 16.6282 32.7565 16.0812 33.3035 15.5376C33.4329 15.4082 33.5471 15.2435 33.5635 15.0553C33.5977 14.7776 33.3247 14.5047 33.0471 14.5506C32.9424 14.5694 32.8471 14.6165 32.7506 14.6624C32.6271 14.7212 32.5035 14.7824 32.3624 14.7824C32.2212 14.7824 32.1141 14.6824 32.0129 14.5882C31.9951 14.5711 31.9771 14.5543 31.9588 14.5376C30.2353 12.8082 28.5059 11.0824 26.7765 9.35529L26.7729 9.35176L25.5294 8.11177C25.5085 8.08955 25.4873 8.06759 25.4659 8.04588C25.36 7.93765 25.2494 7.82471 25.2141 7.67176C25.2047 7.52118 25.2682 7.39176 25.3318 7.26118C25.38 7.16118 25.4294 7.06118 25.4447 6.95294C25.5 6.66706 25.2059 6.39412 24.9247 6.43529V6.43647ZM18.9941 7.36471C19.0694 7.22588 19.2835 7.20941 19.3847 7.32706C19.6577 7.60235 19.9353 7.87882 20.2118 8.15412V8.15529L20.2141 8.15647L20.6694 8.61177C20.1918 9.09412 19.7094 9.57647 19.2259 10.0529C19.1859 10.0059 19.14 9.96353 19.0953 9.92118C19.0136 9.85117 18.9426 9.76951 18.8847 9.67882L18.9035 9.64824C19.0365 9.42235 19.1718 9.19176 19.2094 8.92706C19.28 8.54471 19.2165 8.14118 19.0529 7.78824C19.0435 7.76118 19.0318 7.73412 19.02 7.70588C18.9729 7.59177 18.9235 7.47059 18.9941 7.36471V7.36471ZM12.2412 7.78471C12.1188 7.81412 12.0259 7.90588 11.9424 7.99412L11.2129 8.72353H11.2118V8.72471C10.9012 9.03294 10.5906 9.34118 10.2824 9.65412C10.1529 9.77177 10.1024 9.99765 10.2624 10.1118C10.3718 10.2 10.4812 10.1506 10.5918 10.1C10.6812 10.0588 10.7718 10.0176 10.8624 10.0482C10.9482 10.0988 11.0153 10.1682 11.0859 10.2376L11.1565 10.3082L11.4835 10.6365H11.4847C11.8259 10.9776 12.1671 11.32 12.5094 11.6565L12.2341 11.9294C12.1435 12.0212 12.0518 12.1129 11.9588 12.2035C12.0765 12.3329 12.2024 12.4553 12.3282 12.5765C12.5129 12.3965 12.6953 12.2153 12.8753 12.0306C13.1718 12.3235 13.4659 12.6188 13.76 12.9129H13.7612L14.4118 13.5635L14.4282 13.58L14.4447 13.5976C14.4894 13.6447 14.5341 13.6918 14.5671 13.7482C14.5906 13.8424 14.5518 13.9271 14.5129 14.0118C14.4753 14.0941 14.4377 14.1776 14.4577 14.2706C14.4736 14.3104 14.4975 14.3466 14.5278 14.3769C14.5582 14.4072 14.5943 14.4311 14.6341 14.4471C14.7777 14.48 14.9035 14.3788 14.9988 14.2824C15.5459 13.7412 16.0929 13.1941 16.6377 12.6482L16.6565 12.6294C16.7271 12.5553 16.8035 12.4753 16.8224 12.3706C16.8729 12.22 16.7259 12.0471 16.5671 12.0647C16.5094 12.0765 16.4553 12.1012 16.4024 12.1259C16.3353 12.1604 16.2629 12.1834 16.1882 12.1941C16.0929 12.1729 16.02 12.1012 15.9529 12.0365L15.9235 12.0094C15.1965 11.2847 14.4694 10.5576 13.7435 9.82941H13.7424L12.5635 8.64941L12.5365 8.62C12.4741 8.55294 12.4071 8.47882 12.4212 8.38118C12.4342 8.3284 12.4527 8.27713 12.4765 8.22824C12.5118 8.14353 12.5482 8.06118 12.5306 7.96941C12.5141 7.83529 12.3624 7.76 12.24 7.78471H12.2412ZM10.1647 10.2882C10.1059 10.1447 9.91765 10.0941 9.79059 10.1741C9.73084 10.2116 9.67558 10.2558 9.62589 10.3059L9.60589 10.3259C9.06471 10.8718 8.51883 11.4176 7.97295 11.9635C7.88353 12.0518 7.79177 12.1565 7.80471 12.2871C7.80824 12.4082 7.91765 12.5224 8.04353 12.5176C8.10942 12.5106 8.17059 12.4835 8.23177 12.4588C8.30425 12.4199 8.38484 12.3986 8.46706 12.3965C8.57059 12.4341 8.64589 12.5106 8.72118 12.5871C9.84443 13.714 10.9699 14.8387 12.0977 15.9612C12.1507 16.0132 12.191 16.0768 12.2153 16.1471C12.2128 16.2235 12.1919 16.2982 12.1541 16.3647C12.1188 16.4435 12.0835 16.5212 12.0965 16.6094C12.1129 16.7506 12.2777 16.8353 12.4118 16.7976C12.5153 16.7659 12.5953 16.6882 12.6706 16.6129L12.6906 16.5941L12.7094 16.5753C13.0177 16.2624 13.3294 15.9518 13.64 15.6412C13.8753 15.4059 14.1129 15.1706 14.3482 14.9329C14.4741 14.8235 14.5247 14.5929 14.3777 14.4753C14.2694 14.3953 14.1518 14.4424 14.0353 14.4882C13.9071 14.5388 13.7812 14.5894 13.6718 14.4706C12.8765 13.6788 12.0835 12.8847 11.2894 12.0894H11.2882V12.0882H11.2871V12.0871H11.2859V12.0859H11.2847V12.0847L11.2835 12.0835H11.2824V12.0824V12.0812H11.2812V12.0788L10.1871 10.9847L10.1671 10.9647C10.1165 10.9118 10.0612 10.8529 10.0647 10.7753C10.0671 10.7047 10.0941 10.6388 10.1235 10.5729C10.1612 10.48 10.2 10.3882 10.1659 10.2882H10.1647ZM7.17883 12.7565C7.28589 12.6482 7.39295 12.5412 7.50236 12.4341C7.74236 12.6671 7.97883 12.9047 8.21648 13.1435C8.41648 13.3435 8.61648 13.5435 8.81648 13.74L8.87059 13.7976C8.93177 13.8612 8.99412 13.9247 9.02589 14.0094C9.07648 14.2153 8.84236 14.4412 8.63648 14.3494C8.52272 14.2937 8.41508 14.2263 8.3153 14.1482C8.23646 14.0882 8.15395 14.0332 8.06824 13.9835C7.73765 13.7776 7.35059 13.6482 6.95648 13.6941C6.91824 13.6551 6.87941 13.6167 6.84 13.5788C6.76236 13.5024 6.68353 13.4259 6.61648 13.3412C6.64353 13.2859 6.68706 13.2447 6.72824 13.2024L6.75412 13.1776C6.89765 13.0388 7.03765 12.8976 7.17883 12.7565V12.7565ZM5.97412 13.9647C5.62471 14.3129 5.27648 14.6624 4.92471 15.0082C4.88502 15.0528 4.84734 15.0991 4.81177 15.1471L4.79883 15.1635C5.56353 15.92 6.32471 16.6812 7.08471 17.4435C7.65883 18.0188 8.23295 18.5941 8.80942 19.1671L8.84942 19.2094C8.90824 19.2706 8.97177 19.3353 8.96471 19.4271C8.96014 19.4958 8.94088 19.5628 8.90824 19.6235C8.87827 19.68 8.85874 19.7413 8.85059 19.8047C8.83883 19.9318 8.96471 20.0576 9.0953 20.0447C9.21295 20.0529 9.31295 19.9741 9.39295 19.8941L9.93412 19.3529V19.3506C10.32 18.9647 10.7047 18.5788 11.0941 18.1929C11.1647 18.1165 11.2282 18.0247 11.2282 17.9153C11.2329 17.7553 11.0565 17.6212 10.9047 17.6882L10.8177 17.7235C10.6871 17.7824 10.5435 17.8447 10.4294 17.7176C10.1294 17.4282 9.8353 17.1306 9.54118 16.8341C9.35294 16.6459 9.16589 16.4565 8.97648 16.2694C8.09059 15.3871 7.20589 14.5012 6.32236 13.6141L5.97412 13.9647V13.9647ZM36.4447 14.5976C36.9659 15.1094 37.4824 15.6259 37.9953 16.1471C38.1588 16.3024 38.0412 16.6129 37.8224 16.6471C37.66 16.6706 37.5282 16.5718 37.4024 16.4776C37.3706 16.4541 37.3412 16.4318 37.3106 16.4118C36.8941 16.1259 36.4024 15.8576 35.8824 15.9459C35.7418 15.823 35.6123 15.6879 35.4953 15.5424C35.7259 15.3212 35.9506 15.0953 36.1741 14.8694L36.4447 14.5976V14.5976ZM4.74706 15.6612C4.68156 15.5712 4.59516 15.4985 4.4953 15.4494C4.32824 15.6024 4.16942 15.7647 4.00942 15.9247C3.87647 16.0588 3.74353 16.1941 3.60589 16.3235C3.83295 16.5529 4.06118 16.78 4.28824 17.0059L4.28942 17.0082C4.53146 17.2481 4.77264 17.4889 5.01295 17.7306C5.07177 17.7882 5.13765 17.8518 5.22706 17.8518C5.41177 17.8729 5.59177 17.68 5.53765 17.4953C5.5 17.3929 5.43765 17.3047 5.3753 17.2165L5.31059 17.1224C5.03765 16.7388 4.80706 16.2812 4.87412 15.7941C4.82942 15.7553 4.78824 15.7082 4.74706 15.6612V15.6612ZM13.8412 17.8188C14.6843 17.556 15.5807 17.5139 16.4447 17.6965C17.9059 18.0082 19.2 18.8647 20.2329 19.9271C21.2447 20.9518 22.0518 22.2376 22.3247 23.6694C22.4753 24.4553 22.4424 25.2776 22.2153 26.0459C21.9838 26.8057 21.5977 27.5095 21.0812 28.1129C20.9869 28.0144 20.8908 27.9175 20.7929 27.8224C20.6635 27.6953 20.5341 27.5671 20.4141 27.4329C20.4141 27.3659 20.4377 27.3059 20.4624 27.2447C20.48 27.2012 20.4977 27.1588 20.5059 27.1141C20.5601 26.9293 20.5626 26.7332 20.513 26.5471C20.4634 26.361 20.3637 26.1921 20.2247 26.0588C19.1777 25.0094 18.1271 23.9588 17.0765 22.9094L17.0741 22.9059L13.9918 19.8224C13.8035 19.6294 13.5635 19.4729 13.2906 19.4529C13.0706 19.4235 12.8553 19.5012 12.6459 19.5765L12.64 19.5788C12.5765 19.6129 12.5306 19.5635 12.4882 19.5188C12.4752 19.504 12.4611 19.4903 12.4459 19.4776C12.3682 19.3929 12.2859 19.3129 12.2035 19.2306C12.1083 19.1392 12.0157 19.045 11.9259 18.9482L11.9235 18.9235L11.9212 18.8976C12.4834 18.4144 13.1361 18.0477 13.8412 17.8188V17.8188ZM19.9824 17.8035C19.8285 17.7188 19.668 17.6468 19.5024 17.5882C19.6059 17.7106 19.72 17.8212 19.8341 17.9318C19.9035 18 19.9729 18.0671 20.04 18.1376L21.7529 19.8529L23.4624 21.5647C23.7647 21.9306 24.0388 22.3553 24.1059 22.8341C24.1447 23.0765 24.0718 23.3129 24 23.5459L23.9624 23.6694C23.8788 23.9388 24.1506 24.2318 24.4294 24.1906C24.6224 24.1694 24.7824 24.0388 24.92 23.9129C25.4424 23.4012 25.96 22.8835 26.4741 22.3635C26.6294 22.2035 26.7765 22.0106 26.7894 21.7788C26.7818 21.693 26.7508 21.6108 26.6998 21.5413C26.6487 21.4719 26.5796 21.4177 26.5 21.3847C26.3459 21.3365 26.1882 21.3882 26.0412 21.4376L26.0247 21.4435C25.7271 21.5494 25.3894 21.5494 25.0918 21.4353C24.6647 21.275 24.2799 21.0191 23.9671 20.6871L23.5212 20.2424L23.5188 20.24C23.0918 19.8141 22.6671 19.3894 22.2447 18.9612C22.1959 18.9133 22.1409 18.8721 22.0812 18.8388C21.7647 18.6859 21.4518 18.5294 21.1377 18.3741C20.7769 18.1944 20.4154 18.0163 20.0529 17.84L19.9824 17.8035V17.8035ZM32.3118 18.7306L32.6082 18.4353V18.4341H32.6094L33.2612 17.7812C33.3577 17.8588 33.4447 17.9482 33.5329 18.0365C33.5718 18.0765 33.6118 18.1165 33.6518 18.1541C33.5977 18.5753 33.74 18.9894 33.9577 19.3424C34.0082 19.4329 34.0694 19.5165 34.1294 19.6C34.2047 19.7059 34.28 19.8106 34.3365 19.9271C34.3918 20.0282 34.3529 20.1412 34.3153 20.2424C34.8447 20.6 35.3082 21.0494 35.68 21.5694C36.1047 22.1694 36.4024 22.8835 36.3859 23.6318C36.3906 24.3412 36.0835 25.0212 35.6341 25.56C35.5941 25.5176 35.5518 25.4776 35.5082 25.4365C35.4212 25.3541 35.3341 25.2718 35.2647 25.1776C35.2718 25.1271 35.2835 25.0765 35.2965 25.0259C35.3235 24.9224 35.3494 24.82 35.3235 24.7153C35.2847 24.5271 35.1471 24.3906 35.0165 24.2612L34.9871 24.2318C33.8788 23.1271 32.7741 22.0235 31.6694 20.9188C31.56 20.8094 31.4306 20.7082 31.2741 20.6953C31.1282 20.6873 30.9824 20.7119 30.8471 20.7671C30.7212 20.6494 30.5965 20.5247 30.4741 20.4024L30.46 20.3894C31.0188 19.9106 31.7447 19.6035 32.4882 19.6412C32.7588 19.6341 33.0224 19.6941 33.2859 19.7541L33.3282 19.7635C33.1935 19.6246 33.057 19.4873 32.9188 19.3518C32.7118 19.1482 32.5071 18.9447 32.3118 18.7294V18.7306ZM11.6365 19.7118C11.5441 19.6222 11.4528 19.5316 11.3624 19.44C10.9216 19.9618 10.5737 20.5556 10.3341 21.1953C10.0118 22.0758 9.94169 23.0289 10.1318 23.9471C10.4047 25.32 11.1788 26.5506 12.1353 27.5541C13.1729 28.6341 14.4706 29.52 15.9447 29.8435C16.9191 30.0634 17.9366 29.9935 18.8718 29.6424C19.4873 29.4044 20.0572 29.0622 20.5565 28.6306C20.4435 28.5165 20.3294 28.4047 20.2153 28.2918C20.1021 28.1795 19.9892 28.0669 19.8765 27.9541C19.6294 28.0459 19.3635 28.1388 19.0953 28.0965C18.7929 28.0494 18.5541 27.8494 18.3553 27.6341L16.4024 25.6812L16.3965 25.6765V25.6753C15.0035 24.2847 13.6129 22.8941 12.2235 21.5024C11.9588 21.2412 11.8165 20.8471 11.9259 20.4859C11.9358 20.4352 11.9516 20.3859 11.9729 20.3388C12.0071 20.2565 12.04 20.1753 12.0141 20.0918C11.8918 19.9624 11.7635 19.8365 11.6365 19.7118V19.7118ZM29.8012 24.1612C29.5318 23.6235 29.3635 23.0188 29.4224 22.4094C29.4824 21.7684 29.7463 21.1636 30.1753 20.6835C30.2541 20.7659 30.3388 20.8482 30.4224 20.9318L30.5518 21.0612L30.5282 21.1365C30.4859 21.2659 30.4412 21.3988 30.4765 21.5318C30.5024 21.6741 30.5988 21.7882 30.7 21.8882L32.3424 23.5318L32.3459 23.5353L32.3494 23.5388L34.0177 25.2071L34.0529 25.2424L34.0777 25.2659C34.1882 25.3776 34.3012 25.4918 34.4588 25.5341C34.6177 25.5776 34.78 25.5282 34.9353 25.48L34.9624 25.4718L34.9977 25.5071L35.0377 25.5459V25.5471C35.14 25.6482 35.2435 25.7506 35.34 25.8576C34.8106 26.2941 34.1518 26.6012 33.4541 26.6012C32.7788 26.6306 32.1153 26.3918 31.5518 26.0388C31.1432 25.7809 30.7753 25.4637 30.46 25.0976C30.6112 25.5958 30.5692 26.1326 30.3424 26.6012C30.1153 27.0553 29.7635 27.4247 29.4141 27.7812L29.4 27.7671C29.2788 27.6459 29.1529 27.52 29.0282 27.3988C29.1377 27.2224 29.2082 27.0129 29.1412 26.8071C29.0741 26.6306 28.9435 26.4965 28.8141 26.3647L28.7377 26.2859C28.4259 25.9706 28.1118 25.6553 27.7965 25.3412L27.7694 25.3141C27.5929 25.1494 27.4012 24.9706 27.1506 24.9541C26.9953 24.9376 26.8565 25.0176 26.7271 25.0929C26.6635 25.0311 26.6003 24.9687 26.5377 24.9059C26.4724 24.8406 26.4065 24.7758 26.34 24.7118C26.8435 24.2035 27.4188 23.6776 28.1588 23.5859C28.7635 23.4847 29.3718 23.7447 29.8012 24.1612V24.1612ZM7.75059 23.6471C7.57412 23.66 7.41059 23.7529 7.28471 23.8741C6.68942 24.4741 6.09177 25.0718 5.49295 25.6694L5.49177 25.6706L4.13412 27.0282L4.10589 27.0588C3.96706 27.1929 3.81647 27.3388 3.76471 27.5353C3.6553 27.8329 3.94589 28.1941 4.26471 28.14C4.36824 28.12 4.46471 28.0729 4.56 28.0259C4.69412 27.96 4.82942 27.8941 4.98353 27.9047C5.14 27.9424 5.2553 28.0576 5.36706 28.1682L5.44471 28.2447C5.77412 28.5718 6.10118 28.9 6.42824 29.2271C7.00236 29.8035 7.57765 30.38 8.15765 30.9494L8.15648 30.9847C8.15531 30.9964 8.15452 31.0082 8.15412 31.02C7.81295 31.3471 7.48 31.68 7.15412 32.02C7.38118 32.2518 7.60824 32.4788 7.8353 32.7047C8.00353 32.5424 8.16942 32.3753 8.3353 32.2082C8.5 32.0435 8.66353 31.8788 8.82942 31.7176C8.87295 31.6729 8.91177 31.7129 8.94706 31.7471C9.43332 32.2345 9.92038 32.7212 10.4082 33.2071V33.2082L10.4094 33.2094L10.4118 33.2118C10.8977 33.6965 11.3847 34.1824 11.8706 34.6706L11.9024 34.7059C11.9918 34.8059 12.0906 34.9141 12.0977 35.0529C12.0861 35.1871 12.0447 35.3169 11.9765 35.4329C11.9176 35.5364 11.8777 35.6495 11.8588 35.7671C11.8566 35.8298 11.867 35.8924 11.8894 35.9511C11.9117 36.0098 11.9456 36.0634 11.9891 36.1088C12.0325 36.1542 12.0845 36.1905 12.1422 36.2154C12.1998 36.2404 12.2619 36.2535 12.3247 36.2541C12.5306 36.2541 12.7071 36.1329 12.8494 35.9941L16.1047 32.7388C16.2341 32.6047 16.34 32.4329 16.3482 32.2435C16.36 31.9659 16.0835 31.7141 15.8071 31.7682C15.7106 31.7918 15.6224 31.8353 15.5341 31.88C15.4094 31.9412 15.2859 32.0035 15.1424 32.0035C15 31.9918 14.8871 31.8941 14.7859 31.7976L8.31765 25.3294C8.30321 25.3152 8.2887 25.3011 8.27412 25.2871C8.14942 25.1647 8.01412 25.0306 7.99883 24.8518C8.00353 24.7082 8.06471 24.5824 8.12471 24.4565C8.16353 24.3776 8.20118 24.2988 8.22589 24.2165C8.30589 23.9341 8.04118 23.6329 7.75059 23.6494V23.6471ZM26.9247 25.8824C27.12 26.0776 27.3129 26.2741 27.5118 26.4671C28.4506 27.4106 29.3941 28.3541 30.3377 29.2965L30.3424 29.3024L30.3541 29.3118L30.3612 29.3176L30.3882 29.3412C30.44 29.3882 30.4929 29.4353 30.5612 29.4482C30.6463 29.4489 30.7301 29.4266 30.8035 29.3835C30.8871 29.3447 30.9706 29.3059 31.0647 29.3224C31.1741 29.36 31.2741 29.4659 31.2624 29.5871C31.2624 29.7259 31.1624 29.8294 31.0706 29.9235C30.7589 30.2322 30.4483 30.542 30.1388 30.8529L30.1377 30.8553L29.2553 31.7341C29.1247 31.8765 28.8812 31.8047 28.8012 31.6459C28.7447 31.5518 28.7882 31.4541 28.8306 31.3588C28.8777 31.2553 28.9224 31.1518 28.8341 31.0576C27.5888 29.8171 26.3456 28.5744 25.1047 27.3294C25.0506 27.2673 24.9871 27.2141 24.9165 27.1718C24.8059 27.1412 24.7106 27.1859 24.6153 27.2294C24.5529 27.2576 24.4906 27.2859 24.4247 27.2941C24.2953 27.2824 24.1682 27.1682 24.1777 27.0341C24.1647 26.8882 24.2718 26.7753 24.3635 26.6788L24.3659 26.6765C24.9247 26.1224 25.4835 25.5635 26.0365 25.0094C26.34 25.2918 26.6329 25.5859 26.9247 25.8824ZM22.8671 28.1765C22.6753 28.3694 22.4847 28.5612 22.2906 28.7518C22.4188 28.8753 22.5424 29.0024 22.6659 29.1294L22.6729 29.1376L22.7412 29.0976C22.9541 28.9706 23.1694 28.8435 23.4118 28.7941C23.8365 28.6847 24.2824 28.7765 24.6682 28.9659L24.7318 28.9953C24.8094 29.0329 24.8894 29.0729 24.9753 29.0624C25.1306 28.9953 25.2894 28.7729 25.1388 28.6259L24.4694 27.9553L23.7871 27.2694C23.4741 27.5647 23.1706 27.8706 22.8671 28.1753V28.1765V28.1765ZM21.2106 29.8353C21.4729 29.5741 21.7365 29.3129 21.9977 29.0494C22.4329 29.48 22.8659 29.9141 23.3 30.3471C23.8024 30.8506 24.3035 31.3529 24.8106 31.8518C25.1012 32.14 25.3894 32.4294 25.6788 32.72C26.1094 33.1518 26.5388 33.5835 26.9729 34.0106C26.6718 34.3212 26.3647 34.6282 26.0588 34.9341C25.7929 35.1976 25.5294 35.4612 25.2694 35.7282C25.1839 35.8101 25.082 35.873 24.9706 35.9129L24.9471 35.9047C24.8471 35.8694 24.7329 35.8294 24.7024 35.72C24.6671 35.6141 24.7118 35.52 24.7553 35.4259C24.7929 35.3435 24.8306 35.2635 24.82 35.1741C24.7492 35.0528 24.659 34.9439 24.5529 34.8518C24.5223 34.8224 24.4921 34.7926 24.4624 34.7624L21.4012 31.7C21.3447 31.6471 21.2898 31.5925 21.2365 31.5365C21.1188 31.4141 21.0012 31.2918 20.8553 31.2047C20.7612 31.1859 20.6729 31.2282 20.5847 31.2671C20.4706 31.32 20.3588 31.3729 20.2412 31.2882C20.0647 31.1753 20.1153 30.9235 20.2494 30.7976C20.5671 30.4741 20.8882 30.1553 21.2094 29.8365L21.2106 29.8353ZM24.5965 29.4118C24.4165 29.3812 24.2565 29.5835 24.3235 29.7553C24.3541 29.8424 24.3988 29.9235 24.4424 30.0059C24.5012 30.1153 24.56 30.2259 24.5882 30.3471C24.6466 30.5597 24.6227 30.7866 24.5212 30.9824C24.6129 31.0706 24.7024 31.16 24.7918 31.2518H24.7929V31.2529L24.92 31.3812C25.0455 31.3169 25.1843 31.2831 25.3253 31.2822C25.4663 31.2814 25.6055 31.3137 25.7318 31.3765C25.7953 31.4 25.8553 31.4353 25.9153 31.4706C26.0282 31.5353 26.1388 31.6 26.2729 31.5871C26.3859 31.5753 26.4447 31.4729 26.4953 31.3847L26.5024 31.3729L26.5118 31.3553C26.4671 31.1941 26.3471 31.0824 26.2294 30.9729C26.1941 30.94 26.1588 30.9071 26.1259 30.8729C25.8788 30.6212 25.6294 30.3729 25.38 30.1235C25.1872 29.9316 24.995 29.7391 24.8035 29.5459C24.7485 29.4824 24.6768 29.4355 24.5965 29.4106V29.4118ZM27.0247 30.8518C27.1129 30.7176 27.3271 30.6965 27.4318 30.8224L27.9459 31.3376C28.2318 31.6224 28.5165 31.9082 28.7965 32.1965C28.5941 32.3941 28.3953 32.5953 28.1953 32.7965C27.8859 33.1094 27.5765 33.4224 27.2553 33.72C27.1824 33.6424 27.1059 33.5659 27.0294 33.4882L26.8765 33.3341C27.3271 32.78 27.3894 31.9776 27.0882 31.3388C27.0773 31.3095 27.0655 31.2805 27.0529 31.2518C26.9965 31.12 26.9353 30.9741 27.0247 30.8518ZM19.5529 32.4106C20.3 32.3471 21.0435 32.6153 21.6612 33.0224C22.1435 33.3471 22.5941 33.72 22.9377 34.1871C23.3585 34.7381 23.5926 35.4091 23.6059 36.1024C23.6177 36.8906 23.3071 37.6906 22.7447 38.2482C22.6151 38.123 22.4876 37.9955 22.3624 37.8659L22.3765 37.8388C22.4482 37.7047 22.5247 37.5612 22.5012 37.4035C22.4588 37.1518 22.2871 36.9459 22.1141 36.7741L19.2788 33.9388C19.0871 33.7506 18.8671 33.5435 18.5824 33.5235C18.4271 33.5059 18.2882 33.5859 18.1588 33.6612C18.1177 33.6165 18.0718 33.5753 18.0259 33.5341C17.9353 33.4518 17.8435 33.3694 17.7929 33.2588C18.2553 32.7835 18.8847 32.4518 19.5529 32.4106V32.4106Z" fill="#001A3A"/>
</g>
<defs>
<clipPath id="clip0_0_155">
<rect width="40" height="40" fill="white"/>
</clipPath>
</defs>
</svg>
