<svg width="40" height="40" viewBox="0 0 40 40" fill="none" xmlns="http://www.w3.org/2000/svg">
<g clip-path="url(#clip0_0_138)">
<path fill-rule="evenodd" clip-rule="evenodd" d="M0 0H40V40H0V0ZM11.9341 25.8588C11.9341 26.5 12.5871 26.7729 13.0588 26.7729C13.3706 26.7729 13.6647 26.6647 13.7788 26.5847C13.54 26.3271 12.4059 25.0541 12.4059 25.0541C12.18 25.2094 11.9353 25.4835 11.9353 25.8588H11.9341ZM16.0082 25.2647C16.0082 25.6635 15.9729 26.1765 15.7329 26.5965L17.0471 28.06H15.1153L14.8094 27.7282C14.3741 28.0176 13.7565 28.1988 13.1012 28.1988C11.1906 28.1988 10.1082 27.2871 10.1082 25.9082C10.1082 24.9176 10.7482 24.3 11.3647 24.0118C10.9012 23.5835 10.8 23.1059 10.8 22.8C10.8 21.7082 11.6847 20.9847 13.0624 20.9847C14.3329 20.9847 15.2435 21.6576 15.2435 22.7565V23.1918H13.5906V22.8576C13.5906 22.58 13.42 22.3812 13.1012 22.3812C12.8047 22.3812 12.6071 22.56 12.6071 22.8271C12.6071 23.0553 12.7082 23.2035 12.8635 23.3965L14.4741 25.1965V24.1824H16.0082V25.2647V25.2647ZM20.7859 24.5212C21.3035 24.5212 21.5882 24.1765 21.5882 23.6988C21.5882 23.1824 21.3129 22.8588 20.7859 22.8588H19.7353V24.5212H20.7859ZM20.36 26.2388H19.7353V28.06H17.5647V21.1235H21.0329C22.7976 21.1235 23.7588 22.1741 23.7588 23.6882C23.7588 24.6824 23.3129 25.4435 22.5694 25.8706L23.9459 28.06H21.42L20.3612 26.2388H20.36ZM5.16 21.1235H2.98824V28.06H5.16V25.5741H6.94353V28.06H9.11412V21.1235H6.94353V23.5906H5.16V21.1235V21.1235ZM6.49882 35.3529C6.84353 35.3529 7.04353 35.0965 7.04353 34.7624C7.04353 34.4529 6.83176 34.1882 6.48706 34.1882H5.04588V35.3529H6.49882ZM6.06824 32.7153C6.40941 32.7153 6.59294 32.4682 6.59294 32.1365C6.59294 31.8365 6.38824 31.6012 6.06824 31.6012H5.06235V32.7153H6.06824V32.7153ZM2.99765 30.0082H6.59412C7.89294 30.0082 8.65529 30.7612 8.65529 31.8012C8.65529 32.5047 8.31765 33.0812 7.74588 33.3576C8.57647 33.5447 9.08235 34.1094 9.08235 34.9741C9.08235 36.1435 8.23059 36.9459 6.64471 36.9459H2.99765V30.0082ZM12.1424 30.0082H9.97412V36.9459H14.9588V35.1435H12.1412V30.0082H12.1424ZM19.9776 34.0424V32.9129C19.9776 32.1094 19.5718 31.6741 18.8365 31.6741C18.1035 31.6741 17.6965 32.1094 17.6965 32.9129V34.0424C17.6965 34.8435 18.1035 35.2812 18.8365 35.2812C19.5718 35.2812 19.9776 34.8435 19.9776 34.0424ZM15.5259 33.9129V33.0424C15.5259 31.1588 16.6671 29.8694 18.8365 29.8694C21.0082 29.8694 22.1482 31.1588 22.1482 33.0424V33.9129C22.1482 35.7976 21.0071 37.0847 18.8365 37.0847C16.6671 37.0847 15.5259 35.7988 15.5259 33.9141V33.9129ZM27.2482 34.2518C27.2082 34.7576 26.9306 35.2812 26.1682 35.2812C25.4247 35.2812 25.0694 34.7953 25.0694 34.0318V32.9235C25.0694 32.16 25.4247 31.6741 26.1682 31.6741C26.9306 31.6741 27.2082 32.1988 27.2482 32.7059H29.3C29.2518 31.1388 28.1612 29.8694 26.2082 29.8694C23.9682 29.8694 22.9 31.1388 22.9 33.0224V33.9341C22.9 35.8165 23.9694 37.0847 26.2082 37.0847C28.1612 37.0847 29.2518 35.8153 29.3 34.2529H27.2471L27.2482 34.2518ZM30.4859 30.0082H32.6553V32.4224H32.7918L34.2024 30.0082H36.6365L34.8176 33.1376L36.8412 36.9459H34.26L32.8282 34.0565H32.6553V36.9459H30.4859V30.0082V30.0082ZM37.6976 30.3447C37.6976 30.3776 37.6765 30.4 37.6388 30.4H37.5918V30.2941H37.6388C37.6765 30.2941 37.6976 30.3153 37.6976 30.3447ZM37.5918 30.5188H37.6235L37.6918 30.6529H37.8718L37.7776 30.4882C37.8007 30.4722 37.8194 30.4507 37.8321 30.4256C37.8448 30.4006 37.8512 30.3728 37.8506 30.3447C37.8506 30.2365 37.7859 30.1682 37.6588 30.1682H37.4365V30.6529H37.5906V30.5188H37.5918ZM37.6294 29.9753C37.9153 29.9753 38.08 30.1706 38.08 30.4282C38.08 30.6812 37.9153 30.88 37.6294 30.88C37.3447 30.88 37.18 30.68 37.18 30.4282C37.18 30.1706 37.3447 29.9753 37.6294 29.9753V29.9753ZM37.6294 29.8694C37.5542 29.8657 37.4791 29.8775 37.4086 29.904C37.3382 29.9305 37.2739 29.9713 37.2199 30.0237C37.1658 30.0761 37.1231 30.139 37.0944 30.2086C37.0657 30.2782 37.0516 30.353 37.0529 30.4282C37.0529 30.7318 37.2753 30.9859 37.6294 30.9859C37.9824 30.9859 38.2059 30.7318 38.2059 30.4282C38.2073 30.353 38.1932 30.2782 38.1645 30.2086C38.1357 30.139 38.093 30.0761 38.039 30.0237C37.9849 29.9713 37.9207 29.9305 37.8502 29.904C37.7798 29.8775 37.7046 29.8657 37.6294 29.8694Z" fill="#001A3A"/>
</g>
<defs>
<clipPath id="clip0_0_138">
<rect width="40" height="40" fill="white"/>
</clipPath>
</defs>
</svg>
