<svg width="160" height="160" viewBox="0 0 160 160" fill="none" xmlns="http://www.w3.org/2000/svg">
<path opacity="0.2" d="M73.19 53.188C77.621 36.95 94.361 27.152 130.81 27C131.391 26.9977 131.966 27.1024 132.509 27.309C133.042 27.5114 133.53 27.8138 133.949 28.2C134.361 28.583 134.687 29.037 134.909 29.537C135.131 30.037 135.244 30.573 135.242 31.114V103.65C135.242 104.74 134.775 105.787 133.944 106.558C133.113 107.33 131.985 107.763 130.81 107.763C95.35 107.763 81.651 116.66 73.188 126.478V53.188H73.19Z" fill="#46B1FF"/>
<path d="M80 58.652V131M80 58.652C84.286 42.786 100.472 34.684 135.714 34.536C136.278 34.534 136.836 34.636 137.357 34.838C137.878 35.039 138.351 35.335 138.749 35.709C139.148 36.083 139.463 36.527 139.678 37.015C139.893 37.504 140.002 38.027 140 38.555V110.903C139.997 111.438 139.884 111.966 139.668 112.455C139.452 112.944 139.138 113.383 138.745 113.746C137.92 114.508 136.837 114.929 135.714 114.923C101.429 114.923 88.183 121.406 80 131C71.865 121.454 58.571 114.923 24.286 114.923C21.639 114.923 20 112.9 20 110.419V38.556C19.9984 38.0258 20.1081 37.5012 20.322 37.016C20.537 36.526 20.852 36.083 21.251 35.709C21.6548 35.3323 22.1274 35.037 22.643 34.839C23.1671 34.6368 23.7243 34.534 24.286 34.536C59.528 34.685 75.714 42.786 80 58.652V58.652Z" stroke="#425D8D" stroke-width="4" stroke-linecap="round" stroke-linejoin="round"/>
</svg>
