<svg width="160" height="160" viewBox="0 0 160 160" fill="none" xmlns="http://www.w3.org/2000/svg">
<path opacity="0.2" fill-rule="evenodd" clip-rule="evenodd" d="M133 75.001C133 101.511 111.51 123.001 85 123.001C58.49 123.001 37 101.511 37 75.001C37 48.491 58.49 27.001 85 27.001C111.51 27.001 133 48.491 133 75.001ZM77.133 55.155C75.806 54.243 74 55.193 74 56.803V93.199C74 94.809 75.806 95.759 77.133 94.847L103.603 76.649C103.87 76.4652 104.089 76.2191 104.24 75.932C104.391 75.6449 104.47 75.3254 104.47 75.001C104.47 74.6766 104.391 74.3571 104.24 74.0699C104.089 73.7828 103.87 73.5368 103.603 73.353L77.133 55.155Z" fill="#46B1FF"/>
<path d="M77 131.001C103.51 131.001 125 109.511 125 83.001C125 56.491 103.51 35.001 77 35.001C50.49 35.001 29 56.491 29 83.001C29 109.511 50.49 131.001 77 131.001Z" stroke="#425D8D" stroke-width="4" stroke-linecap="round" stroke-linejoin="round"/>
<path d="M66 64.803C66 63.193 67.806 62.243 69.133 63.155L95.603 81.353C95.8703 81.5368 96.0889 81.7828 96.2399 82.07C96.3909 82.3571 96.4698 82.6766 96.4698 83.001C96.4698 83.3254 96.3909 83.6449 96.2399 83.932C96.0889 84.2191 95.8703 84.4652 95.603 84.649L69.133 102.847C67.806 103.759 66 102.809 66 101.199V64.803V64.803Z" stroke="#425D8D" stroke-width="4" stroke-linecap="round" stroke-linejoin="round"/>
</svg>
