<svg width="160" height="160" viewBox="0 0 160 160" fill="none" xmlns="http://www.w3.org/2000/svg">
<g opacity="0.2">
<path opacity="0.2" d="M126.733 49.501C125.896 61.645 117.268 71.001 107.859 71.001C98.45 71.001 89.809 61.649 88.985 49.501C88.127 36.867 96.525 28.001 107.859 28.001C119.192 28.001 127.591 37.097 126.733 49.501V49.501ZM108 89.101C89.444 89.101 71.6 98.61 67.13 117.128C66.538 119.578 68.027 122.001 70.467 122.001H145.536C147.976 122.001 149.457 119.578 148.873 117.128C144.403 98.313 126.559 89.1 108 89.1V89.101Z" fill="#46B1FF"/>
</g>
<path d="M67.717 94.092C62.56 91.686 56.88 90.762 50.86 90.762C36.003 90.762 21.688 98.282 18.103 112.928C17.631 114.866 18.826 116.783 20.78 116.783H52.86M119.734 54.501C118.896 66.645 110.268 76.001 100.859 76.001C91.451 76.001 82.809 66.649 81.985 54.501C81.127 41.867 89.525 33.001 100.859 33.001C112.192 33.001 120.592 42.097 119.734 54.501V54.501ZM101 94.101C82.444 94.101 64.6 103.61 60.13 122.128C59.538 124.578 61.027 127.001 63.467 127.001H138.536C140.976 127.001 142.457 124.578 141.873 122.128C137.403 103.313 119.559 94.1 101 94.1V94.101ZM66.002 59.165C65.334 68.614 58.368 76.055 50.86 76.055C43.351 76.055 36.374 68.617 35.717 59.165C35.034 49.335 41.814 42.31 50.86 42.31C59.905 42.31 66.685 49.516 66.002 59.165V59.165Z" stroke="#425D8D" stroke-width="4" stroke-linecap="round" stroke-linejoin="round"/>
</svg>
