<svg width="160" height="160" viewBox="0 0 160 160" fill="none" xmlns="http://www.w3.org/2000/svg">
<path opacity="0.2" d="M145.1 23.001H26.9C21.433 23.001 17 27.445 17 32.927V97.075C17 102.557 21.433 107.001 26.9 107.001H145.1C150.567 107.001 155 102.557 155 97.075V32.927C155 27.445 150.567 23.001 145.1 23.001Z" fill="#46B1FF"/>
<path d="M136.956 30.001H17.044C11.497 30.001 7 34.498 7 40.045V104.957C7 110.504 11.497 115.001 17.044 115.001H136.956C142.503 115.001 147 110.504 147 104.957V40.045C147 34.498 142.503 30 136.956 30V30.001Z" stroke="#425D8D" stroke-width="4" stroke-linejoin="round"/>
<path d="M37 130.001H117" stroke="#425D8D" stroke-width="4" stroke-miterlimit="10" stroke-linecap="round"/>
</svg>
