<svg width="95" height="40" viewBox="0 0 95 40" fill="none" xmlns="http://www.w3.org/2000/svg">
<g clip-path="url(#clip0_0_213)">
<path d="M0 0.952393V39.0476H95V0.952393H0ZM21.3541 35.2895L14.8675 14.0819H14.7915L10.4842 35.2895H2.6923L9.2796 4.6343H19.6099L25.9407 25.8914H26.0433L30.4019 4.6343H38.1938L31.635 35.3143H21.356V35.2895H21.3541ZM52.8561 35.2895L55.6263 22.1581H45.8603L43.1167 35.2895H34.8365L41.2452 4.60954H49.5501L47.1162 16.3429H56.9069L59.3427 4.60954H67.6476L61.2142 35.2895H52.858H52.8561ZM89.4653 11.5676C87.334 10.598 85.0127 10.1209 82.6728 10.1714C79.3915 10.1714 76.7258 10.6533 76.7258 13.1181C76.7258 17.461 88.7471 15.8343 88.7471 25.1562C88.7471 33.6381 80.8013 35.8229 73.6231 35.8229C70.3612 35.7456 67.1258 35.2155 64.0091 34.2476L65.93 28C67.5716 29.0667 70.851 29.7524 73.5452 29.7524C76.2356 29.7524 80.1572 29.2705 80.1572 26.0952C80.1572 21.1676 68.1359 23.0229 68.1359 14.3619C68.1359 6.46287 75.1336 4.0762 81.9261 4.0762C85.7717 4.0762 89.3361 4.48192 91.4109 5.44763L89.4634 11.5676H89.4653Z" fill="#005EB8"/>
</g>
<defs>
<clipPath id="clip0_0_213">
<rect width="95" height="40" fill="white"/>
</clipPath>
</defs>
</svg>
