<svg width="107" height="40" viewBox="0 0 107 40" fill="none" xmlns="http://www.w3.org/2000/svg">
<g clip-path="url(#clip0_0_203)">
<path fill-rule="evenodd" clip-rule="evenodd" d="M43.8261 31.6191C50.3168 34.4762 56.9851 37.1429 62.7746 39.0476C69.6169 24.1905 84.016 12.381 107 1.52382V0.952393C76.868 9.18858 57.1609 16 43.8261 31.6191ZM56.8189 2.55049C50.7084 2.0343 13.14 1.57906 0 8.41334C4.53987 11.2906 9.14592 14.0628 13.8145 16.7276C29.9657 8.11239 54.826 5.69906 67.6469 5.20763V4.74477C64.3433 4.22858 58.8385 2.72001 56.8189 2.55049V2.55049Z" fill="#0060A3"/>
<path fill-rule="evenodd" clip-rule="evenodd" d="M69.8366 5.8724C57.1227 7.72002 33.4471 9.3124 20.7313 20.3943C25.4565 23.0934 31.2593 25.8286 36.2367 28.2457C54.7267 12.2172 73.4097 9.01145 90.0443 5.0305V4.61145C80.3379 5.40764 74.7452 5.34097 69.8404 5.8724H69.8366Z" fill="#0060A3"/>
</g>
<defs>
<clipPath id="clip0_0_203">
<rect width="107" height="40" fill="white"/>
</clipPath>
</defs>
</svg>
