<svg width="42" height="40" viewBox="0 0 42 40" fill="none" xmlns="http://www.w3.org/2000/svg">
<g clip-path="url(#clip0_0_206)">
<path d="M0 12.4252C0 22.8593 11.631 32.7363 21.324 39.2593C24.2325 37.3956 27.141 35.16 29.8545 32.923C16.8645 22.4889 4.2645 12.9837 0 9.62964V12.4252Z" fill="#2E4BB1"/>
<path d="M41.796 17.3407C32.226 10.2 26.562 6.45183 20.3115 3.06072C18.555 2.16887 15.234 0.740723 11.523 0.740723C8.007 0.740723 4.8825 1.81183 2.733 3.7748C1.31996 5.04835 0.361348 6.73872 0 8.59406C4.8825 11.8074 18.36 20.5526 31.836 30.3704C36.327 26.4444 40.038 21.9807 41.796 17.3407Z" fill="#E61C23"/>
<path d="M38.7945 3.64739C36.7425 1.76591 33.948 0.740723 30.5925 0.740723C27.051 0.740723 24.4425 1.76591 22.3905 2.79257C25.932 4.67257 33.7815 8.60443 41.796 14.0741C41.982 13.3896 41.982 12.5363 41.982 11.8518C42.1695 8.43257 40.8435 5.52591 38.7945 3.64739V3.64739Z" fill="#FDB913"/>
</g>
<defs>
<clipPath id="clip0_0_206">
<rect width="42" height="40" fill="white"/>
</clipPath>
</defs>
</svg>
