<svg width="20" height="21" viewBox="0 0 20 21" fill="none" xmlns="http://www.w3.org/2000/svg">
<path d="M12.6999 10.8125C12.6999 9.3125 11.4999 8.1125 9.99994 8.1125C8.49994 8.1125 7.29994 9.3125 7.29994 10.8125C7.29994 12.3125 8.49994 13.5125 9.99994 13.5125C11.4999 13.5125 12.6999 12.3125 12.6999 10.8125ZM14.0999 10.8125C14.0999 13.1125 12.2999 14.9125 9.99994 14.9125C7.69994 14.9125 5.89994 13.1125 5.89994 10.8125C5.89994 8.5125 7.69994 6.7125 9.99994 6.7125C12.2999 6.7125 14.0999 8.5125 14.0999 10.8125ZM15.1999 6.5125C15.1999 7.1125 14.7999 7.5125 14.1999 7.5125C13.5999 7.5125 13.1999 7.1125 13.1999 6.5125C13.1999 5.9125 13.5999 5.5125 14.1999 5.5125C14.7999 5.5125 15.1999 6.0125 15.1999 6.5125ZM9.99994 4.2125C8.79994 4.2125 6.29994 4.1125 5.29994 4.5125C4.59994 4.8125 3.99994 5.4125 3.79994 6.1125C3.39994 7.1125 3.49994 9.6125 3.49994 10.8125C3.49994 12.0125 3.39994 14.5125 3.79994 15.5125C3.99994 16.2125 4.59994 16.8125 5.29994 17.0125C6.29994 17.4125 8.89994 17.3125 9.99994 17.3125C11.0999 17.3125 13.6999 17.4125 14.6999 17.0125C15.3999 16.7125 15.8999 16.2125 16.1999 15.5125C16.5999 14.4125 16.4999 11.9125 16.4999 10.8125C16.4999 9.7125 16.5999 7.1125 16.1999 6.1125C15.9999 5.4125 15.3999 4.8125 14.6999 4.6125C13.6999 4.1125 11.1999 4.2125 9.99994 4.2125ZM17.9999 10.8125V14.1125C17.9999 15.3125 17.5999 16.5125 16.6999 17.5125C15.7999 18.4125 14.5999 18.8125 13.2999 18.8125H6.69994C5.49994 18.8125 4.29994 18.4125 3.29994 17.5125C2.49994 16.6125 1.99994 15.4125 1.99994 14.1125V10.8125V7.5125C1.99994 6.2125 2.49994 5.0125 3.29994 4.1125C4.29994 3.3125 5.49994 2.8125 6.69994 2.8125H13.2999C14.4999 2.8125 15.6999 3.2125 16.6999 4.1125C17.4999 5.0125 17.9999 6.2125 17.9999 7.5125V10.8125Z" fill="white"/>
</svg>
