<svg width="21" height="21" viewBox="0 0 21 21" fill="none" xmlns="http://www.w3.org/2000/svg">
<path d="M4.48587 6.81C5.49287 6.81 6.3092 5.99366 6.3092 4.98666C6.3092 3.97966 5.49287 3.16333 4.48587 3.16333C3.47887 3.16333 2.66254 3.97966 2.66254 4.98666C2.66254 5.99366 3.47887 6.81 4.48587 6.81Z" fill="white"/>
<path d="M8.0309 8.19165V18.3075H11.1717V13.305C11.1717 11.985 11.4201 10.7067 13.0567 10.7067C14.6709 10.7067 14.6909 12.2158 14.6909 13.3883V18.3083H17.8334V12.7608C17.8334 10.0358 17.2467 7.94165 14.0617 7.94165C12.5326 7.94165 11.5076 8.78082 11.0884 9.57498H11.0459V8.19165H8.0309ZM2.91257 8.19165H6.0584V18.3075H2.91257V8.19165Z" fill="white"/>
</svg>
