<svg width="20" height="21" viewBox="0 0 20 21" fill="none" xmlns="http://www.w3.org/2000/svg">
<path d="M10 2.82153C7.238 2.82153 5 5.05053 5 7.81153C5 12.5855 10 18.8115 10 18.8115C10 18.8115 15 12.5845 15 7.81153C15 5.05153 12.762 2.82153 10 2.82153ZM10 10.5725C9.28392 10.5725 8.59716 10.2881 8.09081 9.78172C7.58446 9.27537 7.3 8.58862 7.3 7.87253C7.3 7.15645 7.58446 6.46969 8.09081 5.96334C8.59716 5.457 9.28392 5.17253 10 5.17253C10.7161 5.17253 11.4028 5.457 11.9092 5.96334C12.4155 6.46969 12.7 7.15645 12.7 7.87253C12.7 8.58862 12.4155 9.27537 11.9092 9.78172C11.4028 10.2881 10.7161 10.5725 10 10.5725Z" fill="#377DFF"/>
</svg>
