<svg width="20" height="21" viewBox="0 0 20 21" fill="none" xmlns="http://www.w3.org/2000/svg">
<path d="M18 8.1855V15.3125C18 15.9755 17.7366 16.6114 17.2678 17.0803C16.7989 17.5491 16.163 17.8125 15.5 17.8125H4.5C3.83696 17.8125 3.20107 17.5491 2.73223 17.0803C2.26339 16.6114 2 15.9755 2 15.3125V8.1855L9.746 12.7435C9.82295 12.7889 9.91066 12.8128 10 12.8128C10.0893 12.8128 10.177 12.7889 10.254 12.7435L18 8.1855ZM15.5 4.8125C16.1151 4.8124 16.7087 5.03911 17.1672 5.44924C17.6257 5.85937 17.9168 6.42414 17.985 7.0355L10 11.7325L2.015 7.0355C2.08316 6.42414 2.37432 5.85937 2.83279 5.44924C3.29127 5.03911 3.88485 4.8124 4.5 4.8125H15.5Z" fill="#377DFF"/>
</svg>
