<svg width="20" height="21" viewBox="0 0 20 21" fill="none" xmlns="http://www.w3.org/2000/svg">
<path d="M6.987 2.8786C7.42458 2.74667 7.89415 2.76859 8.31754 2.94071C8.74093 3.11283 9.0926 3.42477 9.314 3.8246L9.389 3.9736L10.05 5.4446C10.2509 5.89108 10.3161 6.38678 10.2375 6.87004C10.159 7.35329 9.94003 7.80278 9.608 8.1626L9.476 8.2946L8.432 9.2676C8.244 9.4456 8.385 10.1346 9.066 11.3126C9.677 12.3726 10.176 12.8676 10.42 12.8946H10.463L10.516 12.8846L12.566 12.2576C12.8415 12.1731 13.1355 12.1698 13.4129 12.248C13.6903 12.3262 13.9392 12.4826 14.13 12.6986L14.222 12.8136L15.578 14.6936C15.8441 15.062 15.9768 15.51 15.9542 15.9639C15.9317 16.4177 15.7553 16.8504 15.454 17.1906L15.332 17.3166L14.789 17.8306C14.3023 18.2915 13.6935 18.603 13.0349 18.728C12.3763 18.8529 11.6957 18.7862 11.074 18.5356C9.139 17.7556 7.381 15.9736 5.784 13.2076C4.184 10.4346 3.519 8.0176 3.816 5.9476C3.90596 5.32175 4.16378 4.73196 4.56206 4.24089C4.96034 3.74982 5.4842 3.37581 6.078 3.1586L6.271 3.0946L6.987 2.8786Z" fill="#377DFF"/>
</svg>
