<svg width="45" height="41" viewBox="0 0 45 41" fill="none" xmlns="http://www.w3.org/2000/svg">
<mask id="mask0_8825_8" style="mask-type:alpha" maskUnits="userSpaceOnUse" x="0" y="0" width="45" height="41">
<path d="M9.64294 21.5311C9.32179 21.809 9.28964 22.2995 9.56263 22.6264C9.83561 22.9534 10.3174 22.9861 10.6385 22.7082L11.6984 21.7927L12.2925 25.046C4.18326 32.125 -0.698337 38.0105 1.05197 40.0868C2.80228 42.1631 9.27361 38.1904 17.415 31.1604L20.482 32.2721L19.4222 33.1877C19.101 33.4656 19.0689 33.9561 19.3419 34.283C19.6148 34.61 20.0966 34.6427 20.4178 34.3648L22.152 32.8607L38.0493 38.6154L38.8522 37.9288L24.1111 24.8825C30.3897 18.5556 35.9618 11.9835 35.9618 11.9835L43.9746 13.0788L44.6973 12.4576L39.366 8.84451C39.366 8.84451 41.02 7.25869 40.1368 6.21238C39.2537 5.16606 37.4551 6.57204 37.4551 6.57204L34.7895 0.637481L34.067 1.25873L33.8582 9.48211C33.8582 9.48211 26.6001 14.0434 19.4704 19.3567L9.14516 2.46853L8.34226 3.15517L11.4093 20.0433L9.64294 21.5311Z" fill="#EEAA2B"/>
</mask>
<g mask="url(#mask0_8825_8)">
<rect y="41" width="41" height="45" transform="rotate(-90 0 41)" fill="white"/>
</g>
</svg>
