<svg width="88" height="31" viewBox="0 0 88 31" fill="none" xmlns="http://www.w3.org/2000/svg">
<g opacity="0.5">
<mask id="mask0_8825_3" style="mask-type:alpha" maskUnits="userSpaceOnUse" x="0" y="0" width="88" height="31">
<path d="M0.061519 30.339C0.061519 30.339 0.349279 30.126 0.908816 29.7C1.46835 29.2904 2.25169 28.6678 3.29083 27.9305C4.36194 27.2259 5.64089 26.3248 7.14365 25.3581C8.66239 24.4242 10.341 23.31 12.2594 22.245C14.1458 21.1309 16.2401 20.0004 18.4783 18.8535C20.7164 17.7065 23.0825 16.5269 25.5924 15.4127C28.0863 14.2986 30.6762 13.1353 33.362 12.1031C36.0158 11.0053 38.7815 10.055 41.5152 9.05554C44.2969 8.17077 47.0466 7.20409 49.8123 6.4504C52.5621 5.59841 55.2958 4.94303 57.9496 4.28765C60.5874 3.58312 63.1933 3.15712 65.6393 2.63282C68.0852 2.14128 70.4353 1.84636 72.5935 1.50229C74.7517 1.19098 76.7501 1.02714 78.5086 0.846908C80.2672 0.63391 81.8179 0.584756 83.0808 0.502834C85.6227 0.388143 87.0615 0.338989 87.0615 0.338989C87.0615 0.338989 85.6387 0.617525 83.1288 1.02714C81.8818 1.24014 80.3631 1.45313 78.6365 1.82998C76.9099 2.17405 74.9595 2.58366 72.8493 3.00966C70.739 3.51758 68.4529 3.99273 66.0389 4.58257C63.6409 5.22157 61.099 5.79502 58.4932 6.56509C57.1982 6.92555 55.8713 7.3024 54.5285 7.67924C53.2015 8.08885 51.8587 8.49846 50.4998 8.90808C47.766 9.69453 45.0643 10.6776 42.3146 11.5787C39.5968 12.5618 36.863 13.4466 34.2252 14.5116C32.8983 15.0195 31.5874 15.5274 30.2765 16.0189C28.9816 16.5432 27.7026 17.0676 26.4557 17.5755C23.9617 18.6241 21.5477 19.6399 19.2776 20.6558C17.0235 21.688 14.8652 22.6547 12.9149 23.605C10.9485 24.5225 9.17397 25.4564 7.59128 26.2265C6.00859 27.0293 4.6657 27.783 3.54662 28.3728C1.34045 29.6181 0.061519 30.339 0.061519 30.339Z" fill="#EBEBEB"/>
</mask>
<g mask="url(#mask0_8825_3)">
<rect y="-1" width="89" height="33" fill="white"/>
</g>
</g>
</svg>
