<svg width="24" height="24" viewBox="0 0 24 24" fill="none" xmlns="http://www.w3.org/2000/svg">
<g clip-path="url(#clip0_8809_10)">
<path d="M10.5717 1.49983L10.5717 18.8769L4.44137 12.4366C4.17317 12.155 3.80941 11.9968 3.43012 11.9968C3.05083 11.9968 2.68707 12.155 2.41887 12.4366C2.15067 12.7182 2 13.1002 2 13.4985C2 13.8968 2.15067 14.2787 2.41887 14.5604L10.9888 23.5594C11.1214 23.699 11.279 23.8099 11.4526 23.8855C11.6261 23.9611 11.8121 24 12 24C12.1879 24 12.3739 23.9611 12.5474 23.8855C12.721 23.8099 12.8786 23.699 13.0112 23.5594L21.5811 14.5604C21.8493 14.2787 22 13.8968 22 13.4985C22 13.1002 21.8493 12.7182 21.5811 12.4366C21.3129 12.155 20.9492 11.9968 20.5699 11.9968C20.1906 11.9968 19.8268 12.155 19.5586 12.4366L13.4283 18.8769L13.4283 1.49983C13.4283 1.10205 13.2778 0.720564 13.01 0.439291C12.7421 0.158018 12.3788 1.84055e-07 12 1.55456e-07C11.6212 1.26856e-07 11.2579 0.158017 10.99 0.439291C10.7222 0.720564 10.5717 1.10205 10.5717 1.49983Z" fill="white"/>
</g>
<defs>
<clipPath id="clip0_8809_10">
<rect width="24" height="24" fill="white" transform="translate(24 24) rotate(-180)"/>
</clipPath>
</defs>
</svg>
