<svg width="50" height="50" viewBox="0 0 50 50" fill="none" xmlns="http://www.w3.org/2000/svg">
<path d="M20.833 21.7488H24.1662V23.9157H20.833V21.7488Z" fill="white"/>
<path d="M49.2849 18.5102L43.6242 17.4594C42.592 16.6351 41.5208 15.8973 40.4165 15.2498C36.7693 13.1024 32.8108 11.9943 28.8066 12H27.8232C23.0977 12.0044 18.4479 13.5458 14.2975 16.4835L11.4407 18.5093C8.09665 18.5582 4.81703 19.7143 1.91176 21.867C0.731065 22.7472 0.0020345 24.3803 0 26.1491V32.5812C0 33.1798 0.372992 33.6646 0.833469 33.6646H3.63159C4.54169 37.0396 7.38423 38.8167 9.9806 37.6337C11.4098 36.9827 12.5332 35.522 13.0341 33.6646H35.2983C36.2084 37.0396 39.051 38.8167 41.6473 37.6337C43.0762 36.9827 44.2 35.522 44.7008 33.6646H44.9999C45.106 33.6646 45.2111 33.6386 45.3098 33.5875L48.0089 32.1797C49.2147 31.5591 50.0044 30.0419 50 28.3569V19.5825C50 19.0439 49.6951 18.5868 49.2849 18.5102ZM11.599 32.3648C11.2305 34.7092 9.4696 36.2215 7.66601 35.7424C5.86209 35.2633 4.69869 32.9744 5.06727 30.6295C5.4362 28.285 7.19706 26.7728 9.00065 27.2519C10.5526 27.664 11.6669 29.439 11.6665 31.4982C11.6665 31.7891 11.6438 32.0796 11.599 32.3648ZM26.6666 31.4982H13.3331C13.3331 27.9086 11.0948 24.9987 8.33333 24.9987C5.57183 24.9987 3.3332 27.9086 3.3332 31.4982H1.6666V26.1491C1.66762 25.1569 2.07655 24.2406 2.73912 23.7478C5.45858 21.7295 8.53542 20.6673 11.6665 20.6659H26.6666V31.4982ZM26.6666 18.4996H14.935L15.0957 18.3854C18.6584 15.8686 22.6159 14.4419 26.6666 14.214V18.4996ZM28.3332 14.1664H28.8049C32.1631 14.1615 35.4909 14.9902 38.6102 16.6082L37.1551 18.4996H28.3332V14.1664ZM43.2658 32.3648C42.8972 34.7092 41.1363 36.2215 39.3324 35.7424C37.5288 35.2633 36.3654 32.9744 36.734 30.6295C37.1026 28.285 38.8638 26.7728 40.6674 27.2519C42.2194 27.664 43.3336 29.439 43.3333 31.4982C43.3333 31.7891 43.3105 32.0796 43.2658 32.3648ZM48.3334 21.7489H45.8333V23.9157H48.3334V28.3569C48.3354 29.1551 47.9611 29.8736 47.3901 30.1667L44.9999 31.4145C44.9999 31.3149 44.99 31.2161 44.9849 31.1165C44.9798 31.0169 44.9781 30.9001 44.97 30.7917C44.9615 30.6833 44.9449 30.5748 44.9317 30.4668C44.9181 30.3584 44.9083 30.25 44.8917 30.1517C44.8751 30.053 44.8507 29.9437 44.829 29.8405C44.8073 29.7378 44.7906 29.6338 44.7655 29.5329C44.7408 29.4324 44.7106 29.3358 44.6825 29.2371C44.654 29.1388 44.6282 29.037 44.5991 28.9391C44.5699 28.8417 44.5306 28.7531 44.4956 28.661C44.4607 28.5689 44.4265 28.468 44.3875 28.375C44.3481 28.282 44.3041 28.2026 44.2664 28.1162C44.2291 28.0294 44.1833 27.9307 44.1359 27.8421C44.0881 27.753 44.044 27.683 43.9982 27.6027C43.9524 27.5225 43.9005 27.4282 43.8473 27.3449C43.7941 27.2616 43.7442 27.1963 43.6923 27.128C43.6408 27.0602 43.5832 26.968 43.5259 26.8922C43.4682 26.8164 43.4116 26.7565 43.3543 26.6895C43.2966 26.6225 43.2349 26.5431 43.1715 26.4726C43.1084 26.4025 43.044 26.3483 42.9809 26.2866C42.9175 26.2249 42.8541 26.1588 42.7877 26.101C42.7209 26.0437 42.6459 25.9931 42.5744 25.9322C42.5025 25.8714 42.4442 25.8238 42.3767 25.7775C42.3092 25.7308 42.2251 25.6819 42.1485 25.6343C42.0719 25.5867 42.0118 25.5444 41.941 25.5056C41.8701 25.4663 41.7741 25.4253 41.6911 25.3866C41.6077 25.3473 41.5534 25.3169 41.4825 25.2878C41.3876 25.2499 41.2903 25.2226 41.1933 25.1913C41.1299 25.1719 41.0692 25.1459 41.0051 25.1287C40.9027 25.1014 40.7976 25.0864 40.6935 25.0666C40.6318 25.056 40.5728 25.0384 40.5111 25.0309C40.3442 25.0093 40.1777 24.9974 40.0028 24.9974C37.2423 25.0009 35.0053 27.9086 35.0026 31.4969H28.3335V20.6655H37.5C37.7211 20.6655 37.933 20.5513 38.089 20.3482L40.25 17.5391C41.157 18.1002 42.039 18.7275 42.8918 19.4177C42.9901 19.4975 43.1 19.5499 43.2149 19.5715L48.3334 20.5214V21.7489Z" fill="white"/>
</svg>
