<svg width="50" height="50" viewBox="0 0 50 50" fill="none" xmlns="http://www.w3.org/2000/svg">
<path d="M19.8786 33.6926L26.7839 12.9764C27.0397 12.209 26.6249 11.3794 25.8574 11.1235C25.09 10.8678 24.2604 11.2825 24.0045 12.05L17.0992 32.7661C16.8435 33.5336 17.2582 34.3632 18.0257 34.619C18.1793 34.6702 18.3355 34.6945 18.4891 34.6945C19.1023 34.6946 19.6739 34.3064 19.8786 33.6926Z" fill="white"/>
<path d="M30.2278 27.2659C32.6509 27.2659 34.6223 25.2945 34.6223 22.8713C34.6223 20.4482 32.6509 18.4768 30.2278 18.4768C27.8046 18.4768 25.8333 20.4482 25.8333 22.8713C25.8333 25.2945 27.8046 27.2659 30.2278 27.2659ZM30.2278 21.4065C31.0355 21.4065 31.6926 22.0636 31.6926 22.8713C31.6926 23.6791 31.0355 24.3362 30.2278 24.3362C29.4201 24.3362 28.7629 23.6791 28.7629 22.8713C28.7629 22.0636 29.4201 21.4065 30.2278 21.4065Z" fill="white"/>
<path d="M13.655 18.4768C11.2319 18.4768 9.2605 20.4482 9.2605 22.8713C9.2605 25.2945 11.2319 27.2659 13.655 27.2659C16.0782 27.2659 18.0496 25.2945 18.0496 22.8713C18.0496 20.4482 16.0783 18.4768 13.655 18.4768ZM13.655 24.3362C12.8473 24.3362 12.1902 23.6791 12.1902 22.8713C12.1902 22.0636 12.8473 21.4065 13.655 21.4065C14.4627 21.4065 15.1199 22.0636 15.1199 22.8713C15.1199 23.6791 14.4628 24.3362 13.655 24.3362Z" fill="white"/>
<path d="M49.707 18.164L44.5989 11.3532L44.7982 9.95838C44.8634 9.50193 44.71 9.04139 44.3839 8.71541L41.2765 5.60799L44.3838 2.50056C44.9559 1.92859 44.9559 1.00105 44.3838 0.42898C43.8118 -0.142993 42.8843 -0.142993 42.3122 0.42898L39.2049 3.5364L36.0975 0.42898C35.7715 0.102905 35.3109 -0.0500245 34.8545 0.014624L20.3532 2.08621C20.0394 2.13103 19.7487 2.27644 19.5246 2.50056L1.57068 20.4545C-0.52356 22.5486 -0.52356 25.9562 1.57068 28.0504L16.7624 43.2422C17.0731 43.5529 17.4134 43.8165 17.7734 44.035V44.6289C17.7734 47.5905 20.1829 50 23.1445 50H44.6289C47.5905 50 50 47.5905 50 44.6289V19.043C50 18.7261 49.8972 18.4176 49.707 18.164ZM3.64226 25.9788C2.69031 25.0268 2.69031 23.478 3.64226 22.5261L21.2509 4.91746L34.5436 3.01853L37.1332 5.60808L35.0616 7.67967L34.0258 6.64383C33.4538 6.07185 32.5263 6.07185 31.9542 6.64383C31.3821 7.2158 31.3821 8.14334 31.9542 8.71541L36.0975 12.8587C36.3835 13.1447 36.7584 13.2878 37.1332 13.2878C37.508 13.2878 37.883 13.1447 38.1689 12.8587C38.741 12.2867 38.741 11.3592 38.1689 10.7871L37.1331 9.75125L39.2047 7.67967L41.7942 10.2692L39.8952 23.562L22.2867 41.1706C21.8256 41.6317 21.2125 41.8856 20.5603 41.8856C19.9082 41.8856 19.2951 41.6316 18.834 41.1706L3.64226 25.9788ZM47.0703 44.6289C47.0703 45.9751 45.9751 47.0703 44.6289 47.0703H23.1445C21.859 47.0703 20.8031 46.0715 20.7104 44.8092C22.0353 44.7725 23.3493 44.2512 24.3582 43.2422L42.3121 25.2883C42.5362 25.0641 42.6816 24.7734 42.7265 24.4597L44.0129 15.4548L47.0703 19.5312V44.6289Z" fill="white"/>
</svg>
