<svg width="30" height="30" viewBox="0 0 30 30" fill="none" xmlns="http://www.w3.org/2000/svg">
<path d="M17.3251 16.3282V18.5397C22.851 19.0872 26.1393 21.0053 26.1393 22.4451C26.1393 24.1419 21.5877 26.5079 14.1758 26.5079C6.76394 26.5079 2.21337 24.1419 2.21337 22.4451C2.21337 20.9945 5.54706 19.0593 11.1435 18.5271V16.3167C5.31617 16.8622 0 18.9685 0 22.4451C0 26.5214 7.30362 28.7214 14.1758 28.7214C21.0478 28.7214 28.3527 26.5214 28.3527 22.4451C28.3527 18.9916 23.1068 16.8912 17.3251 16.3282Z" fill="white"/>
<path d="M29.5125 2.64867C29.3434 2.54247 29.1513 2.48925 28.9582 2.48925C28.8035 2.48925 28.6491 2.52307 28.5052 2.59254L26.6703 3.48294C25.8166 3.89732 24.8914 4.10396 23.9672 4.10396C22.9899 4.10396 22.0145 3.87313 21.1231 3.41341C20.2337 2.95467 19.2622 2.72681 18.2926 2.72681C17.2786 2.72681 16.2655 2.97503 15.3471 3.46949V2.79639C15.3471 2.18119 14.8479 1.68286 14.2336 1.68286C13.6194 1.68286 13.1211 2.18119 13.1211 2.79639V22.7357C13.1211 23.35 13.6194 23.8483 14.2336 23.8483C14.8479 23.8483 15.3471 23.35 15.3471 22.7357V12.5589C16.2655 12.0645 17.2796 11.8153 18.2935 11.8153C19.2632 11.8153 20.2337 12.0432 21.1231 12.5018C22.0145 12.9616 22.9899 13.1924 23.9662 13.1924C24.8904 13.1924 25.8156 12.9857 26.6702 12.5715L29.4129 11.2408C29.7721 11.0669 30 10.7038 30 10.305V3.53035C30.0002 3.17107 29.8147 2.83792 29.5125 2.64867Z" fill="white"/>
</svg>
