<svg width="50" height="50" viewBox="0 0 50 50" fill="none" xmlns="http://www.w3.org/2000/svg">
<path d="M49.3034 12.6064C49.2977 12.6033 32.6446 6.35827 32.6381 6.3556C34.1729 2.89109 30.9517 -0.891188 27.2275 0.187229C26.8342 0.30167 26.6081 0.712132 26.7227 1.10466C26.8361 1.49643 27.247 1.72341 27.6404 1.60897C29.5868 1.04249 31.541 2.50924 31.541 4.53332C31.541 7.5744 27.6255 8.6841 25.9669 6.23849C25.3036 5.26078 25.2872 4.02329 25.8249 3.05741C26.0234 2.69997 25.894 2.25022 25.5361 2.05109C25.1787 1.85273 24.7273 1.98205 24.5287 2.3391C23.4029 4.36433 23.9891 6.95794 25.9669 8.28966V12.1631C25.9669 12.5717 26.2988 12.9032 26.7078 12.9032C27.1175 12.9032 27.4486 12.5717 27.4486 12.1631V8.93778C28.1536 9.10639 28.9392 9.10562 29.6938 8.89734V30.915C29.3703 30.915 28.196 30.9128 27.4486 30.9128V15.1233C27.4486 14.714 27.1175 14.3833 26.7078 14.3833C26.2988 14.3833 25.9669 14.714 25.9669 15.1233V30.9128C24.6257 30.9128 23.4235 31.1451 22.1622 31.8672C21.8322 31.2118 21.1528 30.7609 20.3696 30.7609H16.6931C15.5876 30.7609 14.6878 31.6589 14.6878 32.7629V33.947H2.23214C1.00055 33.947 0 34.9476 0 36.1767V45.1652C0 46.3959 1.00055 47.3953 2.23214 47.3953H14.6878V47.9969C14.6878 49.1013 15.5876 50 16.6931 50H20.3696C21.0421 50 21.6386 49.6674 22.0021 49.1573C23.7439 50.0431 23.7413 49.847 36.2329 49.847C38.4383 49.847 39.5014 47.1512 37.988 45.6154C38.9332 44.6564 38.9347 43.0836 37.9918 42.1226C38.934 41.1602 38.9328 39.5916 37.9918 38.6326C39.4254 37.1715 38.544 34.6435 36.5032 34.4196C36.8393 32.9319 35.5504 30.915 33.4481 30.915H31.1755V21.4538L37.2342 19.1814C37.6176 19.0383 37.8112 18.6122 37.6668 18.2292C37.5236 17.8466 37.0959 17.6532 36.7137 17.7963L31.1755 19.873V8.17827C31.4004 8.01233 31.6089 7.82579 31.7995 7.62247L47.8209 13.6306L39.4873 16.7564C39.105 16.8994 38.9103 17.3267 39.0546 17.7093C39.1978 18.0912 39.6256 18.2857 40.009 18.1415C40.0204 18.1373 49.2915 14.661 49.3026 14.6556C50.231 14.2909 50.2337 12.9745 49.3034 12.6064V12.6064ZM14.6878 45.9152H2.23214C1.81855 45.9152 1.48173 45.5788 1.48173 45.1652V36.1767C1.48173 35.7635 1.81855 35.4271 2.23214 35.4271H14.6878V45.9152ZM20.7664 48.3356C20.5609 48.5817 20.6953 48.5199 16.6931 48.5199C16.4044 48.5199 16.1696 48.2853 16.1696 47.9969C16.1696 46.1582 16.1696 33.3801 16.1696 32.7629C16.1696 32.4749 16.4044 32.241 16.6931 32.241H20.3696C20.6338 32.241 20.8928 32.452 20.8928 32.7884C20.8928 49.2428 20.9474 48.1255 20.7664 48.3356ZM22.3745 47.6727V43.9506C23.6657 43.7427 24.8816 43.2869 25.9669 42.6327C25.9669 47.9153 25.936 47.8241 26.0559 48.3669C24.7995 48.3669 23.7134 48.476 22.3745 47.6727V47.6727ZM28.3721 48.3669H27.6194C27.3917 47.9561 27.4486 47.9115 27.4486 41.5462C27.7122 41.3135 27.9642 41.0667 28.2021 40.8073C28.2861 41.3143 28.5263 41.7702 28.8719 42.1226C27.9184 43.0923 27.9413 44.669 28.8758 45.6154C28.1303 46.3703 27.9863 47.4834 28.3721 48.3669V48.3669ZM36.2329 48.3669C35.6566 48.3669 31.3729 48.3669 30.6313 48.3669C29.947 48.3669 29.4921 47.6952 29.6938 47.0489C29.8183 46.6492 30.1918 46.3592 30.6313 46.3592H36.2329C36.774 46.3592 37.2143 46.7991 37.2143 47.34C37.2143 47.9759 36.74 48.3669 36.2329 48.3669V48.3669ZM36.0954 44.8715C34.4899 44.8715 32.2543 44.8715 30.6313 44.8715C29.9573 44.8715 29.4879 44.2112 29.6938 43.552C29.8183 43.1526 30.1918 42.8623 30.6313 42.8623H36.2329C37.4755 42.8623 37.655 44.8715 36.0954 44.8715ZM29.6495 40.3534C29.6495 39.8151 30.0875 39.3726 30.6313 39.3726H36.2329C36.735 39.3726 37.2143 39.7583 37.2143 40.3999C37.2143 40.9416 36.774 41.3814 36.2329 41.3814C35.799 41.3814 35.6581 41.3814 35.6619 41.3814C34.9604 41.3814 33.4928 41.3814 30.6313 41.3814C30.1287 41.3814 29.6495 40.9965 29.6495 40.3534V40.3534ZM36.2329 35.8848C36.735 35.8848 37.2143 36.2705 37.2143 36.9118C37.2143 37.4527 36.774 37.8925 36.2329 37.8925C30.1158 37.8925 30.4484 37.9429 30.1345 37.7575C29.926 37.635 29.7667 37.4389 29.6938 37.2051V36.5745C29.9405 35.783 30.7485 35.8848 31.1755 35.8848H36.2329ZM33.4481 32.3948C34.9871 32.3948 35.5046 34.4036 34.6759 34.4036H33.9026C33.9156 34.4036 33.9282 34.4036 33.94 34.4047C30.3082 34.4047 30.144 34.3284 29.4635 34.6996C28.2487 35.3512 27.8641 36.8316 28.4068 37.9684C27.1924 40.2881 24.9629 41.9548 22.3745 42.448C22.3745 39.859 22.3745 36.4143 22.3745 33.49C23.3258 32.8003 24.4944 32.3929 25.7557 32.3929C28.5302 32.3929 33.4348 32.3948 33.4481 32.3948V32.3948Z" fill="white"/>
</svg>
