<svg width="50" height="50" viewBox="0 0 50 50" fill="none" xmlns="http://www.w3.org/2000/svg">
<path d="M48.6129 20.71C49.1834 20.71 49.6459 20.2727 49.6459 19.7334C49.6459 19.1941 49.1834 18.7568 48.6129 18.7568C48.0423 18.7568 47.5798 19.1941 47.5798 19.7334C47.5798 20.2727 48.0423 20.71 48.6129 20.71Z" fill="white"/>
<path d="M48.9669 23.1309C48.3977 23.1309 47.9339 23.5684 47.9339 24.1074V27.5391C47.9329 28.0762 47.469 28.5146 46.9008 28.5156H45.8678V23.6328C45.8678 22.2939 45.7252 20.957 45.4432 19.6572C45.1695 18.3906 44.7604 17.1445 44.2273 15.9541C43.7044 14.7852 43.0579 13.6582 42.3037 12.6035C41.5568 11.5586 40.7003 10.5771 39.7552 9.68457C38.8108 8.79102 37.7727 7.98145 36.6673 7.27539C35.5515 6.56348 34.3594 5.95117 33.1228 5.45703C31.8635 4.95313 30.5454 4.56641 29.2055 4.30762C26.4565 3.77539 23.5432 3.77539 20.7943 4.30762C19.4543 4.56641 18.1363 4.95313 16.877 5.45703C15.6403 5.95117 14.4481 6.56348 13.3324 7.27539C12.2271 7.98145 11.1888 8.79102 10.2437 9.68457C9.29938 10.5771 8.44298 11.5586 7.69618 12.6035C6.94205 13.6582 6.29525 14.7852 5.77262 15.9541C5.23957 17.1445 4.83048 18.3906 4.55661 19.6572C4.27479 20.957 4.13223 22.2939 4.13223 23.6328V28.5156H2.06612V23.6328C2.06612 17.8438 4.45248 12.3994 8.78306 8.30273C13.1167 4.20898 18.875 1.95312 25 1.95312H25.0031C34.4267 1.95312 43.031 7.54004 46.4143 15.8555C46.4907 16.0439 46.6239 16.2021 46.7995 16.3145C47.0774 16.4912 47.4358 16.5303 47.7489 16.417C48.2799 16.2236 48.5464 15.6582 48.3429 15.1562C48.3429 15.1562 48.3429 15.1553 48.3429 15.1543C47.4502 12.959 46.2147 10.9043 44.6724 9.04687C43.1425 7.20703 41.3398 5.59375 39.3119 4.25391C37.2582 2.89551 35.0101 1.8418 32.6321 1.12207C30.1736 0.37793 27.6063 0 25 0C23.3037 0 21.6085 0.161133 19.9617 0.480469C18.3563 0.791016 16.7779 1.25391 15.2685 1.85742C13.7871 2.44922 12.3584 3.18262 11.0216 4.03613C9.69824 4.88184 8.45351 5.85254 7.32221 6.92187C6.19091 7.99121 5.16415 9.16797 4.26952 10.4189C3.36663 11.6826 2.59081 13.0332 1.96467 14.4336C1.32624 15.8604 0.83657 17.3525 0.508058 18.8701C0.170351 20.4268 0 22.0293 0 23.6328V37.3047C0 43.2279 5.09773 48.0469 11.3636 48.0469H21.4753C22.1909 49.2133 23.5255 50 25.0517 50C27.3302 50 29.1839 48.2477 29.1839 46.0938C29.1839 45.3825 28.9808 44.7156 28.628 44.1406H34.8657C35.4362 44.1406 35.8988 43.7034 35.8988 43.1641V31.4453C35.8988 30.906 35.4362 30.4688 34.8657 30.4688H15.1343C14.5638 30.4688 14.1012 30.906 14.1012 31.4453V43.1641C14.1012 43.7034 14.5638 44.1406 15.1343 44.1406H21.4753C21.1225 44.7156 20.9194 45.3825 20.9194 46.0938H11.3636C6.23698 46.0938 2.06612 42.151 2.06612 37.3047V30.4688H4.13223V33.3984C4.13223 35.0139 5.52252 36.3281 7.23141 36.3281C8.94029 36.3281 10.3306 35.0139 10.3306 33.3984V25.5859C10.3306 23.9705 8.94029 22.6562 7.23141 22.6562C6.87665 22.6562 6.53605 22.7136 6.21839 22.8178C6.42924 18.3775 8.35888 14.2299 11.7055 11.0654C15.2571 7.70898 19.9792 5.85938 25 5.85938C30.0207 5.85938 34.7428 7.70898 38.2943 11.0654C41.6409 14.2309 43.5708 18.3776 43.7815 22.8178C43.4638 22.7136 43.1233 22.6562 42.7686 22.6562C41.0597 22.6562 39.6694 23.9705 39.6694 25.5859V33.3984C39.6694 35.0139 41.0597 36.3281 42.7686 36.3281C44.4775 36.3281 45.8678 35.0139 45.8678 33.3984V30.4688H46.9008C47.7283 30.4688 48.5072 30.1641 49.0919 29.6104C49.6777 29.0576 50 28.3223 50 27.5391V24.1074C50 23.5684 49.5362 23.1309 48.9669 23.1309V23.1309ZM16.1674 36.3281H33.8326V38.2812H16.1674V36.3281ZM33.8326 32.4219V34.375H16.1674V32.4219H33.8326ZM16.1674 40.2344H33.8326V42.1875H16.1674V40.2344ZM27.1178 46.0938C27.1178 47.1707 26.1909 48.0469 25.0517 48.0469C23.9124 48.0469 22.9855 47.1707 22.9855 46.0938C22.9855 45.0168 23.9124 44.1406 25.0517 44.1406C26.1909 44.1406 27.1178 45.0168 27.1178 46.0938ZM7.23141 24.6094C7.80103 24.6094 8.26446 25.0475 8.26446 25.5859V33.3984C8.26446 33.9369 7.80103 34.375 7.23141 34.375C6.66178 34.375 6.19835 33.9369 6.19835 33.3984V25.5859C6.19835 25.0475 6.66178 24.6094 7.23141 24.6094ZM43.8017 33.3984C43.8017 33.9369 43.3382 34.375 42.7686 34.375C42.199 34.375 41.7355 33.9369 41.7355 33.3984V25.5859C41.7355 25.0475 42.199 24.6094 42.7686 24.6094C43.3382 24.6094 43.8017 25.0475 43.8017 25.5859V33.3984Z" fill="white"/>
<path d="M30.1446 17.439L28.0785 25.2514C27.94 25.7747 28.2766 26.3049 28.83 26.4357C28.9141 26.4555 28.9985 26.4651 29.0815 26.4651C29.5443 26.4651 29.9656 26.1689 30.0828 25.7252L32.1489 17.9127C32.2874 17.3894 31.9508 16.8593 31.3974 16.7284C30.8439 16.598 30.283 16.9157 30.1446 17.439Z" fill="white"/>
<path d="M40.16 17.1237C39.9674 16.858 39.6486 16.6992 39.3078 16.6992H35.2789C34.7085 16.6992 34.2458 17.1364 34.2458 17.6758C34.2458 18.2151 34.7085 18.6523 35.2789 18.6523H37.8003L35.1457 25.1358C34.9399 25.6388 35.2042 26.2044 35.7363 26.399C35.859 26.4438 35.9849 26.4651 36.109 26.4651C36.5232 26.4651 36.9141 26.2278 37.0726 25.8407L40.2713 18.0282C40.3943 17.7278 40.3526 17.3895 40.16 17.1237V17.1237Z" fill="white"/>
<path d="M24.5372 26.4648H24.545C25.1119 26.4648 25.5736 26.0323 25.5779 25.4955C25.5798 25.2401 25.5836 24.7557 25.5877 24.1522C26.1004 24.095 26.4981 23.6826 26.4981 23.1825C26.4981 22.6861 26.1064 22.2763 25.5994 22.214C25.6089 20.3668 25.6135 18.4207 25.593 18.1477C25.5404 17.4519 25.1161 16.9007 24.5119 16.7432C24.2915 16.6859 23.5256 16.5632 22.9158 17.3895C22.5094 17.9401 20.6494 21.6435 20.0888 22.7655C19.9378 23.068 19.961 23.4226 20.1504 23.7053C20.3399 23.9879 20.6691 24.1591 21.023 24.1591H23.5215C23.5184 24.6263 23.5151 25.0742 23.5119 25.4811C23.5076 26.0204 23.9666 26.4608 24.5372 26.4648V26.4648ZM22.6583 22.2059C22.9659 21.5988 23.268 21.0083 23.5401 20.483C23.5385 21.0134 23.536 21.602 23.5329 22.2059H22.6583Z" fill="white"/>
<path d="M15.5759 21.0373C14.2963 22.7698 13.533 23.717 13.1228 24.2258C12.6081 24.8646 12.3496 25.1852 12.5236 25.7193C12.6265 26.0355 12.8794 26.278 13.2172 26.3847C13.3533 26.4277 13.4757 26.4665 15.0719 26.4665C15.6905 26.4665 16.5307 26.4607 17.6783 26.447C18.2488 26.4402 18.7054 25.9975 18.6983 25.4582C18.6911 24.9232 18.2301 24.494 17.6656 24.494C17.6612 24.494 16.1502 24.5088 15.482 24.5109C15.9194 23.9533 16.5045 23.1917 17.27 22.1553C17.7951 21.4444 18.1378 20.7707 18.2891 20.1528C18.2968 20.121 18.3557 19.6777 18.3557 19.6363C18.3557 18.0167 16.9641 16.699 15.2535 16.699C13.7743 16.699 12.494 17.6955 12.2094 19.0685C12.0997 19.5978 12.4647 20.1109 13.0246 20.2146C13.5844 20.318 14.1274 19.9733 14.237 19.444C14.3321 18.9851 14.7596 18.6521 15.2535 18.6521C15.8066 18.6521 16.2598 19.0658 16.2882 19.5845L16.2652 19.7551C16.1674 20.1161 15.9299 20.5582 15.5759 21.0373V21.0373Z" fill="white"/>
</svg>
