<svg width="21" height="22" viewBox="0 0 21 22" fill="none" xmlns="http://www.w3.org/2000/svg">
<path d="M10.5 0.526367C4.70094 0.526367 0 5.2273 0 11.0264C0 16.8254 4.70094 21.5264 10.5 21.5264C16.2991 21.5264 21 16.8254 21 11.0264C21 5.2273 16.2991 0.526367 10.5 0.526367ZM7.92969 15.3784H5.80344V8.5359H7.92969V15.3784ZM6.85344 7.6959C6.18187 7.6959 5.74766 7.22012 5.74766 6.63168C5.74766 6.03121 6.195 5.56965 6.88078 5.56965C7.56656 5.56965 7.98656 6.03121 7.99969 6.63168C7.99969 7.22012 7.56656 7.6959 6.85344 7.6959ZM15.6953 15.3784H13.5691V11.5864C13.5691 10.7037 13.2606 10.1043 12.4917 10.1043C11.9044 10.1043 11.5555 10.5101 11.4013 10.9006C11.3444 11.0395 11.3302 11.2364 11.3302 11.4321V15.3773H9.20281V10.7179C9.20281 9.86371 9.17547 9.14949 9.14703 8.5348H10.9944L11.0917 9.48527H11.1344C11.4144 9.03902 12.1002 8.38059 13.2475 8.38059C14.6464 8.38059 15.6953 9.31793 15.6953 11.3326V15.3784Z" fill="#E6E6E6"/>
</svg>
