<svg width="16" height="16" viewBox="0 0 16 16" fill="none" xmlns="http://www.w3.org/2000/svg">
<path d="M2.66667 1C1.95942 1 1.28115 1.295 0.781048 1.82011C0.280951 2.34521 0 3.05741 0 3.80002V4.08143L8 8.60486L16 4.08283V3.80002C16 3.05741 15.719 2.34521 15.219 1.82011C14.7189 1.295 14.0406 1 13.3333 1H2.66667Z" fill="white"/>
<path d="M16 5.67139L8.316 10.0156C8.21888 10.0705 8.1103 10.0993 8 10.0993C7.8897 10.0993 7.78112 10.0705 7.684 10.0156L0 5.67139V12.1996C0 12.9423 0.280951 13.6545 0.781048 14.1796C1.28115 14.7047 1.95942 14.9997 2.66667 14.9997H13.3333C14.0406 14.9997 14.7189 14.7047 15.219 14.1796C15.719 13.6545 16 12.9423 16 12.1996V5.67139Z" fill="white"/>
</svg>
