<svg width="5" height="5" viewBox="0 0 5 5" fill="none" xmlns="http://www.w3.org/2000/svg">
<path d="M4.7763 0.111478C4.71992 0.0650091 4.65632 0.0320792 4.58913 0.0145697C4.52195 -0.0029398 4.45249 -0.0046859 4.38474 0.00943125C4.31698 0.0235484 4.25225 0.0532521 4.19423 0.0968457C4.13622 0.140439 4.08607 0.197069 4.04665 0.263499L2.05474 3.61452L0.748688 2.5636C0.643939 2.47919 0.515016 2.44726 0.390281 2.47483C0.265546 2.5024 0.155216 2.58721 0.0835638 2.7106C0.0119114 2.83399 -0.0151947 2.98586 0.00820852 3.1328C0.0316117 3.27973 0.103607 3.4097 0.208357 3.4941L1.95904 4.90271C2.01296 4.94606 2.07389 4.97584 2.13803 4.99019C2.20217 5.00453 2.26813 5.00314 2.33179 4.98608C2.39969 4.9721 2.46457 4.94247 2.52273 4.89889C2.58089 4.85531 2.63117 4.79863 2.6707 4.73212L4.90543 0.971459C4.98507 0.837173 5.0162 0.671133 4.99197 0.509825C4.96775 0.348516 4.89014 0.205138 4.77622 0.111197" fill="white"/>
</svg>
