<svg width="16" height="17" viewBox="0 0 16 17" fill="none" xmlns="http://www.w3.org/2000/svg">
<path d="M15.5437 11.8325L12.0437 10.3325C11.8941 10.2688 11.728 10.2554 11.5701 10.2942C11.4123 10.3331 11.2714 10.4222 11.1686 10.5481L9.61861 12.4419C7.18598 11.295 5.22828 9.33726 4.08132 6.90463L5.97511 5.35461C6.10126 5.252 6.19055 5.11109 6.22945 4.95321C6.26836 4.79532 6.25477 4.62906 6.19074 4.47959L4.69071 0.979529C4.62043 0.818404 4.49613 0.686851 4.33925 0.607554C4.18237 0.528256 4.00273 0.506185 3.83132 0.545147L0.58126 1.29516C0.415998 1.33332 0.26855 1.42637 0.162983 1.55913C0.0574151 1.69188 -3.80697e-05 1.8565 1.8926e-08 2.02611C1.8926e-08 10.0419 6.49699 16.5264 14.5003 16.5264C14.6699 16.5265 14.8346 16.4691 14.9674 16.3635C15.1002 16.2579 15.1933 16.1104 15.2315 15.9451L15.9815 12.695C16.0202 12.5228 15.9977 12.3424 15.9178 12.185C15.8379 12.0276 15.7056 11.903 15.5437 11.8325V11.8325Z" fill="white"/>
</svg>
