<svg width="38" height="30" viewBox="0 0 38 30" fill="none" xmlns="http://www.w3.org/2000/svg">
<path opacity="0.5" d="M3.22383 4.2975C5.8887 1.44562 9.92113 0 15.2072 0H17.1066V5.28562L15.5794 5.5875C12.9773 6.10125 11.1671 7.11187 10.1984 8.595C9.69299 9.39399 9.40633 10.3088 9.3665 11.25H15.2072C15.7109 11.25 16.194 11.4475 16.5502 11.7992C16.9065 12.1508 17.1066 12.6277 17.1066 13.125V26.25C17.1066 28.3181 15.4028 30 13.3078 30H1.91135C1.40759 30 0.924472 29.8025 0.568265 29.4508C0.212058 29.0992 0.0119431 28.6223 0.0119431 28.125V18.75L0.0176414 13.2769C0.000546747 13.0688 -0.36034 8.1375 3.22383 4.2975ZM34.2012 30H22.8048C22.301 30 21.8179 29.8025 21.4617 29.4508C21.1055 29.0992 20.9054 28.6223 20.9054 28.125V18.75L20.9111 13.2769C20.894 13.0688 20.5331 8.1375 24.1173 4.2975C26.7821 1.44562 30.8146 0 36.1006 0H38V5.28562L36.4729 5.5875C33.8707 6.10125 32.0606 7.11187 31.0919 8.595C30.5864 9.39399 30.2998 10.3088 30.2599 11.25H36.1006C36.6043 11.25 37.0875 11.4475 37.4437 11.7992C37.7999 12.1508 38 12.6277 38 13.125V26.25C38 28.3181 36.2962 30 34.2012 30Z" fill="white"/>
</svg>
