<svg width="70" height="71" viewBox="0 0 70 71" fill="none" xmlns="http://www.w3.org/2000/svg">
<path d="M6.6742 11.6481C6.91824 11.6481 7.16338 11.558 7.35902 11.3749C7.60334 11.1465 7.8549 10.9181 8.1066 10.6963C8.53782 10.3165 8.591 9.64541 8.22514 9.19755C7.85942 8.74969 7.21342 8.69431 6.78207 9.07444C6.51492 9.30973 6.24804 9.55212 5.98869 9.79465C5.56841 10.1877 5.53464 10.8601 5.91308 11.2966C6.11515 11.5296 6.39406 11.6481 6.6742 11.6481V11.6481Z" fill="white"/>
<path d="M34.377 2.89238C35.0383 2.99249 35.7045 3.11475 36.3571 3.25603C36.4276 3.27123 36.4979 3.27861 36.5671 3.27861C37.0418 3.27861 37.4676 2.9337 37.5684 2.43188C37.6838 1.85694 37.3285 1.29378 36.7749 1.17393C36.0817 1.02384 35.3742 0.894054 34.6721 0.787698C34.1124 0.703209 33.5929 1.10549 33.5114 1.68682C33.4298 2.26802 33.8174 2.80775 34.377 2.89238V2.89238Z" fill="white"/>
<path d="M50.7151 10.4499C51.2296 10.8929 51.7373 11.3578 52.2246 11.8316C52.422 12.0236 52.6733 12.1187 52.9241 12.1187C53.1975 12.1187 53.4701 12.0057 53.6718 11.7822C54.0583 11.3535 54.0371 10.6806 53.6243 10.2792C53.1073 9.77622 52.5682 9.28292 52.0221 8.81277C51.5865 8.4379 50.9415 8.50066 50.5804 8.95264C50.2196 9.40462 50.2799 10.075 50.7151 10.4499Z" fill="white"/>
<path d="M40.2377 4.35657C40.8705 4.58008 41.5049 4.82673 42.123 5.08985C42.2501 5.14395 42.3815 5.16951 42.5108 5.16951C42.914 5.16951 43.2963 4.92044 43.4587 4.50894C43.6731 3.96551 43.4228 3.34442 42.8994 3.12177C42.2429 2.84232 41.569 2.58033 40.8969 2.34305C40.3619 2.15391 39.78 2.45154 39.5979 3.00746C39.4158 3.56352 39.7023 4.16743 40.2377 4.35657Z" fill="white"/>
<path d="M28.3207 2.55338C28.333 2.55338 28.3453 2.55324 28.3576 2.55267C29.0226 2.52825 29.7009 2.52442 30.3703 2.54103C30.9353 2.55793 31.405 2.09062 31.4185 1.50346C31.432 0.916299 30.9848 0.428965 30.4195 0.414765C29.7099 0.3973 28.9906 0.401418 28.2853 0.427261C27.7201 0.447993 27.2782 0.940723 27.2983 1.5276C27.3177 2.10169 27.7719 2.55338 28.3207 2.55338V2.55338Z" fill="white"/>
<path d="M59.365 21.8497C59.5429 22.2265 59.9067 22.4454 60.2852 22.4454C60.4365 22.4454 60.59 22.4104 60.7349 22.3366C61.2427 22.0781 61.4527 21.4411 61.2039 20.9138C60.8921 20.2529 60.5569 19.5936 60.2073 18.9541C59.9281 18.4433 59.3032 18.2645 58.8116 18.5542C58.3198 18.8442 58.1474 19.4932 58.4266 20.004C58.7555 20.6063 59.0713 21.2273 59.365 21.8497Z" fill="white"/>
<path d="M56.2344 16.505C56.4353 16.7866 56.7445 16.9356 57.0579 16.9356C57.2697 16.9356 57.4834 16.8676 57.6666 16.7266C58.1209 16.377 58.2163 15.711 57.8797 15.2391C57.4576 14.6473 57.013 14.0616 56.5584 13.4983C56.1949 13.0481 55.5493 12.9891 55.1159 13.3665C54.6827 13.7438 54.6259 14.4146 54.989 14.8646C55.4177 15.3953 55.8366 15.9474 56.2344 16.505V16.505Z" fill="white"/>
<path d="M60.9091 25.7009C61.128 26.3565 61.3299 27.0271 61.5092 27.6939C61.6355 28.1638 62.0469 28.4715 62.4948 28.4715C62.586 28.4715 62.6787 28.4587 62.7708 28.432C63.3154 28.274 63.6337 27.6874 63.4815 27.1217C63.291 26.4133 63.0765 25.7009 62.8441 25.0044C62.659 24.4496 62.0755 24.1556 61.5413 24.3478C61.007 24.5402 60.724 25.1461 60.9091 25.7009Z" fill="white"/>
<path d="M22.1579 3.3632C22.231 3.3632 22.3051 3.35496 22.3793 3.33806C23.0302 3.18911 23.6949 3.0589 24.3549 2.95112C24.9135 2.85982 25.2951 2.31554 25.2073 1.73534C25.1196 1.15528 24.5952 0.758686 24.0367 0.84999C23.3359 0.964439 22.63 1.10274 21.9385 1.26107C21.3863 1.38745 21.0373 1.95487 21.1591 2.5284C21.2645 3.02482 21.6879 3.3632 22.1579 3.3632V3.3632Z" fill="white"/>
<path d="M45.7448 6.90605C46.3268 7.24471 46.9073 7.60695 47.4699 7.98267C47.6412 8.09698 47.8329 8.15165 48.0226 8.15165C48.3594 8.15165 48.6893 7.97926 48.8848 7.66318C49.1906 7.16917 49.0528 6.51115 48.5772 6.19365C47.9798 5.79492 47.3637 5.41025 46.7457 5.05071C46.2521 4.76359 45.6283 4.9462 45.352 5.45867C45.0757 5.971 45.2515 6.61907 45.7448 6.90605V6.90605Z" fill="white"/>
<path d="M16.2407 5.32237C16.3738 5.32237 16.5088 5.29524 16.6391 5.23816C17.2542 4.96794 17.8849 4.71419 18.5141 4.48373C19.0473 4.28848 19.3272 3.68102 19.1391 3.12723C18.9511 2.5733 18.366 2.28263 17.833 2.47816C17.1647 2.72282 16.4948 2.99262 15.8415 3.27945C15.3208 3.50821 15.0771 4.13215 15.2974 4.67316C15.4624 5.07856 15.8417 5.32237 16.2407 5.32237V5.32237Z" fill="white"/>
<path d="M10.7636 8.36703C10.9569 8.36703 11.1524 8.31023 11.3259 8.19152C11.8837 7.80998 12.4599 7.44135 13.0385 7.09573C13.5286 6.80293 13.6975 6.15287 13.4157 5.64381C13.1339 5.13461 12.508 4.95938 12.0177 5.25204C11.4035 5.61896 10.7918 6.01031 10.1996 6.41542C9.72741 6.73847 9.59671 7.3979 9.90774 7.88836C10.1045 8.19877 10.4308 8.36703 10.7636 8.36703V8.36703Z" fill="white"/>
<path d="M63.2153 30.5841C62.6561 30.6717 62.2712 31.2136 62.3556 31.7942C62.4049 32.1333 62.4498 32.4773 62.4893 32.8169C62.5522 33.3566 62.9939 33.7528 63.5044 33.7528C63.5455 33.7528 63.587 33.7502 63.6286 33.7449C64.19 33.6745 64.59 33.1447 64.5223 32.5617C64.4803 32.2016 64.4326 31.8365 64.3804 31.4768C64.296 30.8962 63.7727 30.4969 63.2153 30.5841Z" fill="white"/>
<path d="M12.8518 28.548C12.8518 27.9607 12.3934 27.4846 11.828 27.4846H9.86166C9.29619 27.4846 8.83777 27.9607 8.83777 28.548C8.83777 29.1353 9.29619 29.6115 9.86166 29.6115H11.828C12.3934 29.6115 12.8518 29.1353 12.8518 28.548Z" fill="white"/>
<path d="M15.1554 32.3549H13.1891C12.6236 32.3549 12.1652 32.831 12.1652 33.4183C12.1652 34.0056 12.6236 34.4817 13.1891 34.4817H15.1553C15.7207 34.4817 16.1792 34.0056 16.1792 33.4183C16.1793 32.831 15.7209 32.3549 15.1554 32.3549Z" fill="white"/>
<path d="M10.4669 41.9368H8.50064C7.93516 41.9368 7.47675 42.4129 7.47675 43.0002C7.47675 43.5875 7.93516 44.0636 8.50064 44.0636H10.4668C11.0323 44.0636 11.4907 43.5875 11.4907 43.0002C11.4908 42.4129 11.0324 41.9368 10.4669 41.9368V41.9368Z" fill="white"/>
<path d="M31.5189 11.4612H29.5526C28.9872 11.4612 28.5287 11.9373 28.5287 12.5246C28.5287 13.1119 28.9872 13.588 29.5526 13.588H31.5189C32.0844 13.588 32.5428 13.1119 32.5428 12.5246C32.5428 11.9373 32.0844 11.4612 31.5189 11.4612Z" fill="white"/>
<path d="M38.2873 52.4354C38.2873 51.8481 37.829 51.3719 37.2634 51.3719H35.2971C34.7316 51.3719 34.2732 51.8481 34.2732 52.4354C34.2732 53.0227 34.7316 53.4988 35.2971 53.4988H37.2634C37.8288 53.4988 38.2873 53.0227 38.2873 52.4354Z" fill="white"/>
<path d="M32.9597 55.3068H30.9934C30.4279 55.3068 29.9695 55.7829 29.9695 56.3702C29.9695 56.9575 30.4279 57.4336 30.9934 57.4336H32.9597C33.5251 57.4336 33.9836 56.9575 33.9836 56.3702C33.9836 55.7829 33.5251 55.3068 32.9597 55.3068Z" fill="white"/>
<path d="M68.914 37.5276C68.1921 36.7777 67.1939 36.3669 66.1722 36.4015C63.4917 36.4913 60.9237 37.6321 59.0028 39.5556C59.0702 38.7066 59.105 37.8506 59.105 36.9891C59.105 34.7088 58.866 32.4471 58.3828 30.2204C57.5738 26.493 56.0852 22.9325 54.0201 19.7707C52.987 18.1891 51.8118 16.7082 50.5145 15.3529C49.4822 14.2746 48.3911 13.2928 47.2265 12.3868C45.4954 11.0401 43.514 9.83487 41.6069 8.94924C37.8246 7.19273 33.6945 6.29602 29.5527 6.29602C21.6589 6.29602 14.2377 9.48868 8.6561 15.2857C8.11825 15.8443 7.60747 16.417 7.11309 17.0162C2.52616 22.5706 0 29.6639 0 36.9893C0 45.8479 3.61595 54.1395 9.9682 59.9724C12.8933 62.6682 16.3471 64.7672 20.0652 66.0727C23.1161 67.1439 26.3329 67.6824 29.5528 67.6824C34.4133 67.6824 39.0924 66.4673 43.2755 64.1836L45.3833 68.9998C45.6966 69.7159 46.3285 70.2271 47.0738 70.3675C47.7965 70.5037 48.5874 70.2556 49.119 69.7034L50.6497 68.1136C51.0577 67.6899 51.2971 67.1267 51.3237 66.5279L51.5092 62.3507L55.4787 58.6079L60.3395 66.2466C60.7234 66.8501 61.341 67.2379 62.034 67.3108C62.7039 67.3811 63.4102 67.1284 63.8994 66.6204L65.4299 65.031C65.9516 64.489 66.1936 63.7137 66.0774 62.957L64.1575 50.4573L66.3679 48.418C68.5795 46.3775 69.9025 43.446 69.9981 40.3752C70.0313 39.3153 69.6362 38.2773 68.914 37.5276V37.5276ZM45.331 13.588C51.4175 18.0216 55.5086 24.7947 56.6968 32.3549H39.8039C39.1885 32.3549 38.6099 32.106 38.1746 31.6539C37.7394 31.2019 37.4998 30.601 37.4998 29.9617C37.4998 28.6421 38.5334 27.5686 39.8039 27.5686H43.8921C45.0534 27.5686 46.1459 27.0993 46.9693 26.2462C47.7912 25.3924 48.244 24.2574 48.244 23.0501C48.244 20.5578 46.2916 18.5302 43.8921 18.5302H42.0026C41.3669 18.5302 40.7694 18.2733 40.3195 17.806C39.8701 17.3403 39.6225 16.7202 39.6225 16.0597C39.6225 14.6967 40.6902 13.5879 42.0026 13.5879H45.331V13.588ZM29.5528 65.5554C24.1906 65.5554 19.1823 63.9528 14.9475 61.1853H21.9613C23.2852 61.1853 24.5302 60.6497 25.4667 59.6771C26.4031 58.7045 26.9188 57.4121 26.9188 56.038C26.9188 53.1998 24.6949 50.8908 21.9613 50.8908H18.3313C17.9588 50.8908 17.6083 50.7401 17.3447 50.4664C17.0813 50.1927 16.9361 49.8282 16.9361 49.4401C16.9361 48.6411 17.562 47.9911 18.3313 47.9911H31.6922C33.2431 47.9911 34.7014 47.3636 35.7987 46.2242C36.8957 45.0847 37.4999 43.5696 37.4999 41.9577C37.4999 38.6318 34.8946 35.9259 31.6922 35.9259H26.4031C24.2682 35.9259 22.5315 34.1221 22.5315 31.9048V31.5658C22.5315 30.5812 22.9001 29.657 23.57 28.9623C24.2396 28.2668 25.1304 27.8837 26.0781 27.8837C27.5239 27.8837 28.8823 27.2987 29.9019 26.2378C30.9247 25.1775 31.4879 23.7666 31.4879 22.265C31.4879 19.1661 29.0612 16.6449 26.0782 16.6449H19.0989C18.5334 16.6449 18.075 17.121 18.075 17.7083C18.075 18.2956 18.5334 18.7717 19.0989 18.7717H26.0782C27.932 18.7717 29.4403 20.3388 29.4403 22.265C29.4403 23.1978 29.0906 24.0741 28.4541 24.7339C27.8202 25.3936 26.9765 25.7569 26.0784 25.7569C24.5836 25.7569 23.1787 26.3611 22.1228 27.4577C21.066 28.5535 20.484 30.0124 20.484 31.5657V31.9046C20.484 35.2945 23.1393 38.0525 26.4034 38.0525H31.6925C33.7657 38.0525 35.4524 39.8044 35.4524 41.9576C35.4524 43.0013 35.0612 43.9825 34.3508 44.7202C33.6405 45.4578 32.6964 45.8642 31.6925 45.8642H18.3316C16.4331 45.8642 14.8887 47.4684 14.8887 49.44C14.8887 50.3962 15.2468 51.2946 15.8972 51.97C16.5475 52.6454 17.412 53.0173 18.3317 53.0173H21.9618C23.5662 53.0173 24.8714 54.3723 24.8714 56.0378C24.8714 56.8437 24.5687 57.602 24.0191 58.173C23.4694 58.7439 22.7387 59.0583 21.9618 59.0583H12.0884C5.70256 53.6051 2.04778 45.5829 2.04778 36.9891C2.04778 30.3336 4.28847 23.8838 8.3664 18.7717H14.3089C14.8744 18.7717 15.3328 18.2956 15.3328 17.7083C15.3328 17.121 14.8744 16.6449 14.3089 16.6449H10.2679C15.2356 11.5643 22.0467 8.42257 29.5528 8.42257C33.9869 8.42257 38.1782 9.51964 41.8908 11.4639C39.5008 11.5259 37.5747 13.5627 37.5747 16.0596C37.5747 17.289 38.0358 18.4439 38.8723 19.3106C39.7082 20.1788 40.8198 20.6569 42.0026 20.6569H43.8921C45.1626 20.6569 46.1962 21.7305 46.1962 23.05C46.1962 23.6891 45.9565 24.29 45.5222 24.7413C45.0862 25.193 44.5073 25.4416 43.8921 25.4416H39.8039C37.4043 25.4416 35.452 27.4694 35.452 29.9615C35.452 31.1688 35.9047 32.3038 36.7266 33.1576C37.5488 34.0113 38.6416 34.4815 39.8039 34.4815H56.9507C57.0208 35.3077 57.0573 36.144 57.0573 36.9888C57.0573 38.8193 56.888 40.6092 56.5698 42.3448L56.4685 42.4633L51.1871 41.5883C50.6281 41.4951 50.1038 41.891 50.0148 42.4708C49.9258 43.0507 50.3063 43.596 50.8645 43.6884L54.8322 44.3459L50.0007 49.8796L42.3861 44.653C42.3004 44.5942 42.2756 44.512 42.27 44.4533C42.2643 44.3948 42.2728 44.3091 42.3452 44.2337L43.8757 42.6443C43.9347 42.583 44.0194 42.5547 44.1019 42.568L46.1064 42.9002C46.6649 42.9926 47.1896 42.5974 47.2787 42.0177C47.3677 41.4378 46.9873 40.8925 46.429 40.8L44.4245 40.4679C43.6964 40.3474 42.9493 40.5987 42.4278 41.1406L40.8974 42.7299C40.4049 43.2415 40.1626 43.9476 40.2326 44.6672C40.3028 45.3868 40.676 46.0284 41.2572 46.4272L48.6183 51.4799L45.0136 55.604L40.9916 55.7966C40.4153 55.8243 39.8732 56.073 39.4652 56.4967L37.9343 58.0866C37.3989 58.6428 37.1599 59.4369 37.295 60.2109C37.43 60.9848 37.9224 61.6412 38.6117 61.9667L40.8568 63.0266C37.4064 64.6492 33.58 65.5554 29.5528 65.5554V65.5554ZM63.9823 63.5271L62.452 65.1163C62.3794 65.1917 62.2965 65.2003 62.2405 65.1947C62.1841 65.1888 62.105 65.1631 62.0484 65.074L57.0159 57.1655L62.344 52.1476L64.0557 63.2921C64.0688 63.3777 64.0413 63.4658 63.9823 63.5271V63.5271ZM65.0082 46.8281L61.1989 50.3425L49.818 61.073C49.6164 61.2631 49.4959 61.5288 49.4833 61.8114L49.2781 66.4298C49.2753 66.4977 49.248 66.5616 49.2016 66.6097L47.6709 68.1995C47.5909 68.2829 47.5005 68.2861 47.439 68.2748C47.3774 68.2631 47.2942 68.2269 47.2474 68.1197L44.9724 62.9213C44.8699 62.6873 44.6893 62.4998 44.464 62.3933L39.4588 60.0304C39.3556 59.9817 39.3207 59.8953 39.3095 59.8314C39.2983 59.7675 39.3019 59.6737 39.3818 59.5905L40.9128 58.0006C40.959 57.9526 41.0206 57.9243 41.0858 57.9212L45.5327 57.7081C45.8048 57.695 46.0604 57.5699 46.2435 57.3605L59.959 41.5842C61.5521 39.7216 63.8406 38.6073 66.2381 38.527C66.2566 38.5264 66.2752 38.5261 66.2937 38.5261C66.7365 38.5261 67.151 38.7042 67.4659 39.0313C67.794 39.372 67.9664 39.8248 67.9514 40.3065C67.8743 42.7965 66.8014 45.1734 65.0082 46.8281V46.8281Z" fill="white"/>
</svg>
