<svg width="30" height="30" viewBox="0 0 30 30" fill="none" xmlns="http://www.w3.org/2000/svg">
<path d="M9.38963 26.4703V25.4988C9.38963 25.0141 8.99732 24.6199 8.51506 24.6199H5.67882C5.19657 24.6199 4.80425 25.0141 4.80425 25.4988V26.4703C4.80425 26.9549 5.19657 27.3492 5.67882 27.3492H8.51506C8.99732 27.3492 9.38963 26.9549 9.38963 26.4703ZM5.65061 26.4703V25.4988C5.65061 25.4831 5.66325 25.4704 5.67882 25.4704H8.51506C8.53064 25.4704 8.54328 25.4831 8.54328 25.4988V26.4703C8.54328 26.4859 8.53064 26.4986 8.51506 26.4986H5.67882C5.66325 26.4986 5.65061 26.4859 5.65061 26.4703Z" fill="white"/>
<path d="M21.1182 19.9229C20.3694 19.9229 19.7603 20.535 19.7603 21.2875C19.7603 22.0401 20.3695 22.6522 21.1182 22.6522C21.867 22.6522 22.4762 22.04 22.4762 21.2875C22.4762 20.5351 21.867 19.9229 21.1182 19.9229ZM21.1182 21.8016C20.8362 21.8016 20.6067 21.571 20.6067 21.2875C20.6067 21.004 20.8362 20.7734 21.1182 20.7734C21.4004 20.7734 21.6298 21.004 21.6298 21.2875C21.6298 21.571 21.4003 21.8016 21.1182 21.8016Z" fill="white"/>
<path d="M25.792 16.1652H25.2804V13.7723V10.0147C25.2804 9.26224 24.6713 8.65007 23.9225 8.65007H23.411V2.96933C23.411 2.47584 23.0114 2.07437 22.5204 2.07437H14.1076C14.0927 2.07437 14.0782 2.07591 14.0634 2.07664V1.52809C14.0634 0.793326 13.4686 0.195557 12.7375 0.195557H5.19544C4.4643 0.195557 3.86948 0.793326 3.86948 1.52809V3.05813C3.86948 3.29299 4.05895 3.4834 4.29266 3.4834C4.52637 3.4834 4.71584 3.29299 4.71584 3.05813V1.52809C4.71584 1.26232 4.93098 1.04611 5.19544 1.04611H5.73897V12.4076H4.71584V4.75924C4.71584 4.52437 4.52637 4.33396 4.29266 4.33396C4.05895 4.33396 3.86948 4.52437 3.86948 4.75924V8.68948C3.40771 8.77538 2.98448 9.00129 2.64932 9.34752C2.23218 9.77841 2.00395 10.3415 2.00068 10.9403C2.00051 10.9449 2 10.9495 2 10.9541V26.9237C2 28.1942 3.02849 29.2278 4.29272 29.2278H6.25056C6.48427 29.2278 6.67374 29.0374 6.67374 28.8025C6.67374 28.5677 6.48427 28.3773 6.25056 28.3773H4.29272C3.49523 28.3773 2.84635 27.7252 2.84635 26.9237V12.7224C3.23325 13.0407 3.72357 13.2387 4.25474 13.2562C4.26727 13.2574 23.9224 13.2581 23.9224 13.2581C24.2045 13.2581 24.434 13.4888 24.434 13.7722V18.0439H19.2486C18.4999 18.0439 17.8907 18.656 17.8907 19.4086V23.1662C17.8907 23.9187 18.4998 24.5308 19.2486 24.5308H24.434V27.8631C24.434 28.1466 24.2045 28.3773 23.9224 28.3773H7.94327C7.70956 28.3773 7.52009 28.5677 7.52009 28.8025C7.52009 29.0374 7.70956 29.2278 7.94327 29.2278H23.9225C24.6713 29.2278 25.2804 28.6156 25.2804 27.8631V24.5308H25.7919C27.0561 24.5308 28.0846 23.4972 28.0846 22.2268V18.4692C28.0846 17.1988 27.0561 16.1652 25.792 16.1652V16.1652ZM2.84692 10.9953C2.83609 10.5988 2.98138 10.2243 3.25593 9.94064C3.42898 9.76191 3.63916 9.63388 3.86948 9.56351V12.3339C3.29193 12.1457 2.8639 11.617 2.84692 10.9953ZM14.1075 2.92487H22.5203C22.5447 2.92487 22.5645 2.94483 22.5645 2.96927V12.4076H21.5414V5.58495C21.5414 5.27354 21.3303 5.00879 21.0281 4.9412C20.812 4.89277 20.6056 4.68529 20.5583 4.46891C20.493 4.16997 20.2235 3.95302 19.9177 3.95302H16.7103C16.4004 3.95302 16.137 4.16515 16.0697 4.4688C16.0215 4.68609 15.815 4.89345 15.5997 4.94103C15.3023 5.00669 15.0864 5.27745 15.0864 5.58484V12.4076H14.0634V2.96933C14.0634 2.94483 14.0832 2.92487 14.1075 2.92487V2.92487ZM20.695 12.4076H15.9329V5.72875C16.3536 5.58183 16.7066 5.2271 16.8533 4.80369H19.7745C19.9207 5.22653 20.2736 5.58127 20.695 5.72875V12.4076ZM13.217 1.52809V2.96933V12.4076H8.45486V1.04611H12.7374C13.0019 1.04611 13.217 1.26232 13.217 1.52809ZM6.58538 12.4076V1.04611H7.60851V12.4076H6.58538ZM23.9225 12.4076H23.4109V9.50062H23.9225C24.2046 9.50062 24.434 9.73124 24.434 10.0147V12.5085C24.276 12.4437 24.1034 12.4076 23.9225 12.4076ZM27.2383 22.2268C27.2383 23.0282 26.5895 23.6803 25.792 23.6803H19.2487C18.9666 23.6803 18.7371 23.4497 18.7371 23.1662V19.4086C18.7371 19.1252 18.9666 18.8945 19.2487 18.8945H25.3246C25.5583 18.8945 25.7477 18.7041 25.7477 18.4692C25.7477 18.2343 25.5583 18.0439 25.3246 18.0439H25.2804V17.0157H25.7919C26.5894 17.0157 27.2382 17.6678 27.2382 18.4692V22.2268H27.2383Z" fill="white"/>
<path d="M18.3139 8.65015C17.5651 8.65015 16.956 9.26232 16.956 10.0148C16.956 10.7672 17.5651 11.3795 18.3139 11.3795C19.0627 11.3795 19.6718 10.7673 19.6718 10.0148C19.6719 9.26232 19.0627 8.65015 18.3139 8.65015ZM18.3139 10.5289C18.0318 10.5289 17.8023 10.2983 17.8023 10.0148C17.8023 9.73131 18.0318 9.5007 18.3139 9.5007C18.596 9.5007 18.8255 9.73131 18.8255 10.0148C18.8255 10.2983 18.596 10.5289 18.3139 10.5289Z" fill="white"/>
<path d="M18.3139 7.62175C18.5476 7.62175 18.7371 7.43134 18.7371 7.19647V6.25706C18.7371 6.0222 18.5476 5.83179 18.3139 5.83179C18.0802 5.83179 17.8907 6.0222 17.8907 6.25706V7.19647C17.8907 7.43134 18.0802 7.62175 18.3139 7.62175Z" fill="white"/>
<path d="M10.3526 5.74319H11.3193C11.8015 5.74319 12.1938 5.34893 12.1938 4.86428V2.95337C12.1938 2.46872 11.8015 2.07446 11.3193 2.07446H10.3526C9.8703 2.07446 9.47799 2.46872 9.47799 2.95337V4.86428C9.47799 5.34887 9.8703 5.74319 10.3526 5.74319ZM10.3243 2.95331C10.3243 2.93766 10.337 2.92496 10.3526 2.92496H11.3193C11.3348 2.92496 11.3475 2.93766 11.3475 2.95331V4.86422C11.3475 4.87987 11.3348 4.89258 11.3193 4.89258H10.3526C10.337 4.89258 10.3243 4.87987 10.3243 4.86422V2.95331Z" fill="white"/>
</svg>
