<svg width="17" height="20" viewBox="0 0 17 20" fill="none" xmlns="http://www.w3.org/2000/svg">
<path d="M13.9601 10.1909C13.9383 7.77013 15.9422 6.59244 16.0338 6.53761C14.899 4.88298 13.14 4.65691 12.5219 4.63888C11.0445 4.48341 9.61144 5.5229 8.85886 5.5229C8.09126 5.5229 6.93234 4.6539 5.6833 4.67944C4.07599 4.70423 2.5724 5.63481 1.74765 7.07988C0.0457749 10.0264 1.31503 14.3563 2.94569 16.738C3.76129 17.9052 4.71447 19.2068 5.96195 19.161C7.18245 19.1114 7.63836 18.3836 9.11122 18.3836C10.5705 18.3836 10.9987 19.161 12.2709 19.1317C13.5809 19.1114 14.4055 17.96 15.1927 16.7831C16.1353 15.4469 16.5138 14.1295 16.5289 14.0619C16.4988 14.0514 13.9857 13.0915 13.9601 10.1909ZM11.5567 3.07213C12.213 2.25121 12.6623 1.13435 12.5376 0.000976562C11.5874 0.0430369 10.3993 0.65817 9.71496 1.46107C9.10959 2.16859 8.56882 3.32825 8.70852 4.41882C9.77586 4.49843 10.8717 3.88029 11.5567 3.07213Z" fill="white"/>
</svg>
