<svg width="72" height="72" viewBox="0 0 72 72" fill="none" xmlns="http://www.w3.org/2000/svg">
<mask id="path-1-inside-1_5959_167" fill="white">
<path d="M63.8806 32.9776C64.1778 31.3071 63.9143 29.5938 63.1566 28.0986C63.9143 26.6033 64.1772 24.89 63.8806 23.219C63.5839 21.5485 62.7465 20.028 61.5189 18.88C61.716 17.2177 61.3728 15.5187 60.5177 14.0493C59.6632 12.5799 58.352 11.4351 56.8034 10.7732C56.4154 9.14445 55.5077 7.6646 54.1982 6.57366C52.8882 5.48327 51.2621 4.85265 49.5785 4.75652C48.6525 3.35742 47.2893 2.27471 45.6826 1.69464C44.0765 1.11456 42.3308 1.07391 40.7158 1.55511C39.3637 0.554808 37.7094 0 35.9997 0C34.2906 0 32.6363 0.554808 31.2842 1.55511C29.6692 1.07391 27.9235 1.11456 26.3168 1.69464C24.7107 2.27526 23.3475 3.35796 22.4215 4.75652C20.7379 4.8532 19.1113 5.48327 17.8018 6.57366C16.4923 7.6646 15.5846 9.14445 15.1966 10.7737C13.6474 11.4356 12.3368 12.5799 11.4817 14.0493C10.6272 15.5187 10.284 17.2177 10.4811 18.88C9.25348 20.028 8.41609 21.5485 8.11943 23.219C7.82222 24.89 8.08567 26.6033 8.84337 28.0986C8.08567 29.5938 7.82222 31.3071 8.11943 32.9776C8.41609 34.6486 9.25348 36.1691 10.4811 37.3172C10.284 38.9794 10.6272 40.6784 11.4817 42.1479C12.3368 43.6173 13.648 44.7615 15.1966 45.4234C15.4601 46.5303 15.9643 47.5685 16.671 48.4622L10.4445 61.3953C10.0931 62.1248 10.1933 62.9894 10.7014 63.6217C11.21 64.2534 12.0374 64.5413 12.8322 64.3622L22.2112 62.2512L26.4486 70.8199C26.8055 71.5423 27.5461 71.9999 28.3564 71.9999H28.3674C29.1821 71.996 29.9227 71.5296 30.2741 70.8002L35.9997 58.9075L41.7259 70.8002C42.0768 71.5296 42.8173 71.9955 43.632 71.9999H43.6436C44.4534 71.9999 45.1939 71.5423 45.5514 70.8199L49.7888 62.2512L59.1673 64.3622C59.962 64.5413 60.7895 64.2534 61.2981 63.6217C61.8067 62.9894 61.9064 62.1248 61.5549 61.3953L55.3284 48.4622C56.0352 47.5685 56.5394 46.5303 56.8028 45.4234C58.352 44.7615 59.6632 43.6173 60.5177 42.1479C61.3723 40.6784 61.7154 38.9794 61.5189 37.3172C62.746 36.1691 63.5839 34.6486 63.8806 32.9776V32.9776ZM58.978 29.3966C59.6122 30.2025 59.8729 31.2407 59.6947 32.2454C59.5159 33.2501 58.9127 34.1366 58.0398 34.6788C57.213 35.1919 56.8438 36.1977 57.1449 37.1183C57.4631 38.0906 57.3508 39.1546 56.8366 40.0385C56.323 40.9218 55.4502 41.5508 54.4429 41.7633C53.4892 41.9649 52.7958 42.7851 52.7614 43.7524C52.7249 44.7736 52.2528 45.7354 51.4652 46.3913C50.6776 47.0472 49.6416 47.3422 48.6215 47.1999C47.6557 47.0648 46.7215 47.6009 46.3562 48.4979C45.9704 49.4455 45.195 50.1893 44.2287 50.5381C43.2629 50.8869 42.1875 50.8122 41.2781 50.3327C40.4164 49.8784 39.3543 50.064 38.7017 50.7837C38.0127 51.5428 37.0275 51.9784 35.9997 51.9784C34.9719 51.9784 33.9868 51.5428 33.2977 50.7837C32.8837 50.3272 32.3053 50.086 31.7181 50.086C31.3788 50.086 31.0368 50.1662 30.7213 50.3327C29.8125 50.8122 28.7366 50.8869 27.7708 50.5381C26.805 50.1893 26.0296 49.4455 25.6433 48.4979C25.278 47.6009 24.3443 47.0659 23.3779 47.1999C22.3579 47.3416 21.3218 47.0472 20.5342 46.3913C19.7466 45.7354 19.2745 44.7736 19.238 43.7524C19.2037 42.7851 18.5108 41.9649 17.5566 41.7633C16.5498 41.5508 15.677 40.9218 15.1628 40.0385C14.6492 39.1546 14.5369 38.0906 14.8546 37.1183C15.1556 36.1977 14.7865 35.1919 13.9596 34.6788C13.0868 34.1366 12.4835 33.2501 12.3053 32.2454C12.1265 31.2407 12.3878 30.2025 13.0215 29.3966C13.6214 28.6336 13.6214 27.5635 13.0215 26.8005C12.3878 25.9947 12.1265 24.9565 12.3053 23.9518C12.4835 22.9471 13.0868 22.06 13.9596 21.5183C14.7865 21.0053 15.1556 19.9995 14.8546 19.0788C14.5369 18.1065 14.6492 17.0425 15.1628 16.1587C15.677 15.2754 16.5493 14.6464 17.5566 14.4338C18.5102 14.2322 19.2037 13.4121 19.238 12.4447C19.2745 11.4236 19.7466 10.4617 20.5342 9.80583C21.3213 9.14994 22.3579 8.85551 23.3779 8.99724C24.3437 9.13237 25.2774 8.59624 25.6433 7.69865C26.0296 6.75163 26.805 6.00786 27.7708 5.65905C28.7366 5.30968 29.812 5.38494 30.7213 5.86449C31.5825 6.31822 32.6452 6.13256 33.2977 5.4135C33.9873 4.65435 34.9719 4.21874 35.9997 4.21874C37.0281 4.21874 38.0127 4.65435 38.7017 5.4135C39.3548 6.13256 40.4169 6.31877 41.2781 5.86449C42.1875 5.38494 43.2634 5.31023 44.2292 5.65905C45.195 6.00786 45.9704 6.75163 46.3562 7.6992C46.722 8.59624 47.6563 9.13182 48.6221 8.99724C49.6416 8.85551 50.6782 9.14994 51.4658 9.80583C52.2528 10.4617 52.7255 11.4236 52.7614 12.4447C52.7963 13.4126 53.4892 14.2322 54.4434 14.4338C55.4502 14.6464 56.323 15.2754 56.8366 16.1587C57.3508 17.0425 57.4631 18.1065 57.1454 19.0788C56.8444 19.9995 57.213 21.0053 58.0398 21.5183C58.9132 22.0605 59.5165 22.9476 59.6947 23.9518C59.8735 24.9565 59.6122 25.9947 58.9785 26.8005C58.378 27.5635 58.378 28.6336 58.978 29.3966ZM49.0909 57.7682C48.1306 57.5523 47.1465 58.0187 46.7126 58.8959L43.6691 65.0516L39.1013 55.5643C39.6725 55.3215 40.2149 55.0128 40.7158 54.642C42.3308 55.1232 44.0765 55.0826 45.6832 54.5025C47.2893 53.9224 48.6525 52.8392 49.5785 51.4406C50.3494 51.3967 51.1071 51.239 51.8288 50.9787L55.8282 59.2849L49.0909 57.7682ZM25.2874 58.8959C24.9243 58.1626 24.1766 57.716 23.3801 57.716C23.2241 57.716 23.0663 57.733 22.9091 57.7682L16.1718 59.2843L20.1712 50.9781C20.8929 51.239 21.6511 51.3961 22.4215 51.4406C23.3475 52.8392 24.7107 53.9219 26.3168 54.502C27.9235 55.0826 29.6692 55.1227 31.2842 54.642C31.7851 55.0123 32.3275 55.3215 32.8987 55.5638L28.3309 65.051L25.2874 58.8959Z"/>
</mask>
<path d="M63.8806 32.9776C64.1778 31.3071 63.9143 29.5938 63.1566 28.0986C63.9143 26.6033 64.1772 24.89 63.8806 23.219C63.5839 21.5485 62.7465 20.028 61.5189 18.88C61.716 17.2177 61.3728 15.5187 60.5177 14.0493C59.6632 12.5799 58.352 11.4351 56.8034 10.7732C56.4154 9.14445 55.5077 7.6646 54.1982 6.57366C52.8882 5.48327 51.2621 4.85265 49.5785 4.75652C48.6525 3.35742 47.2893 2.27471 45.6826 1.69464C44.0765 1.11456 42.3308 1.07391 40.7158 1.55511C39.3637 0.554808 37.7094 0 35.9997 0C34.2906 0 32.6363 0.554808 31.2842 1.55511C29.6692 1.07391 27.9235 1.11456 26.3168 1.69464C24.7107 2.27526 23.3475 3.35796 22.4215 4.75652C20.7379 4.8532 19.1113 5.48327 17.8018 6.57366C16.4923 7.6646 15.5846 9.14445 15.1966 10.7737C13.6474 11.4356 12.3368 12.5799 11.4817 14.0493C10.6272 15.5187 10.284 17.2177 10.4811 18.88C9.25348 20.028 8.41609 21.5485 8.11943 23.219C7.82222 24.89 8.08567 26.6033 8.84337 28.0986C8.08567 29.5938 7.82222 31.3071 8.11943 32.9776C8.41609 34.6486 9.25348 36.1691 10.4811 37.3172C10.284 38.9794 10.6272 40.6784 11.4817 42.1479C12.3368 43.6173 13.648 44.7615 15.1966 45.4234C15.4601 46.5303 15.9643 47.5685 16.671 48.4622L10.4445 61.3953C10.0931 62.1248 10.1933 62.9894 10.7014 63.6217C11.21 64.2534 12.0374 64.5413 12.8322 64.3622L22.2112 62.2512L26.4486 70.8199C26.8055 71.5423 27.5461 71.9999 28.3564 71.9999H28.3674C29.1821 71.996 29.9227 71.5296 30.2741 70.8002L35.9997 58.9075L41.7259 70.8002C42.0768 71.5296 42.8173 71.9955 43.632 71.9999H43.6436C44.4534 71.9999 45.1939 71.5423 45.5514 70.8199L49.7888 62.2512L59.1673 64.3622C59.962 64.5413 60.7895 64.2534 61.2981 63.6217C61.8067 62.9894 61.9064 62.1248 61.5549 61.3953L55.3284 48.4622C56.0352 47.5685 56.5394 46.5303 56.8028 45.4234C58.352 44.7615 59.6632 43.6173 60.5177 42.1479C61.3723 40.6784 61.7154 38.9794 61.5189 37.3172C62.746 36.1691 63.5839 34.6486 63.8806 32.9776V32.9776ZM58.978 29.3966C59.6122 30.2025 59.8729 31.2407 59.6947 32.2454C59.5159 33.2501 58.9127 34.1366 58.0398 34.6788C57.213 35.1919 56.8438 36.1977 57.1449 37.1183C57.4631 38.0906 57.3508 39.1546 56.8366 40.0385C56.323 40.9218 55.4502 41.5508 54.4429 41.7633C53.4892 41.9649 52.7958 42.7851 52.7614 43.7524C52.7249 44.7736 52.2528 45.7354 51.4652 46.3913C50.6776 47.0472 49.6416 47.3422 48.6215 47.1999C47.6557 47.0648 46.7215 47.6009 46.3562 48.4979C45.9704 49.4455 45.195 50.1893 44.2287 50.5381C43.2629 50.8869 42.1875 50.8122 41.2781 50.3327C40.4164 49.8784 39.3543 50.064 38.7017 50.7837C38.0127 51.5428 37.0275 51.9784 35.9997 51.9784C34.9719 51.9784 33.9868 51.5428 33.2977 50.7837C32.8837 50.3272 32.3053 50.086 31.7181 50.086C31.3788 50.086 31.0368 50.1662 30.7213 50.3327C29.8125 50.8122 28.7366 50.8869 27.7708 50.5381C26.805 50.1893 26.0296 49.4455 25.6433 48.4979C25.278 47.6009 24.3443 47.0659 23.3779 47.1999C22.3579 47.3416 21.3218 47.0472 20.5342 46.3913C19.7466 45.7354 19.2745 44.7736 19.238 43.7524C19.2037 42.7851 18.5108 41.9649 17.5566 41.7633C16.5498 41.5508 15.677 40.9218 15.1628 40.0385C14.6492 39.1546 14.5369 38.0906 14.8546 37.1183C15.1556 36.1977 14.7865 35.1919 13.9596 34.6788C13.0868 34.1366 12.4835 33.2501 12.3053 32.2454C12.1265 31.2407 12.3878 30.2025 13.0215 29.3966C13.6214 28.6336 13.6214 27.5635 13.0215 26.8005C12.3878 25.9947 12.1265 24.9565 12.3053 23.9518C12.4835 22.9471 13.0868 22.06 13.9596 21.5183C14.7865 21.0053 15.1556 19.9995 14.8546 19.0788C14.5369 18.1065 14.6492 17.0425 15.1628 16.1587C15.677 15.2754 16.5493 14.6464 17.5566 14.4338C18.5102 14.2322 19.2037 13.4121 19.238 12.4447C19.2745 11.4236 19.7466 10.4617 20.5342 9.80583C21.3213 9.14994 22.3579 8.85551 23.3779 8.99724C24.3437 9.13237 25.2774 8.59624 25.6433 7.69865C26.0296 6.75163 26.805 6.00786 27.7708 5.65905C28.7366 5.30968 29.812 5.38494 30.7213 5.86449C31.5825 6.31822 32.6452 6.13256 33.2977 5.4135C33.9873 4.65435 34.9719 4.21874 35.9997 4.21874C37.0281 4.21874 38.0127 4.65435 38.7017 5.4135C39.3548 6.13256 40.4169 6.31877 41.2781 5.86449C42.1875 5.38494 43.2634 5.31023 44.2292 5.65905C45.195 6.00786 45.9704 6.75163 46.3562 7.6992C46.722 8.59624 47.6563 9.13182 48.6221 8.99724C49.6416 8.85551 50.6782 9.14994 51.4658 9.80583C52.2528 10.4617 52.7255 11.4236 52.7614 12.4447C52.7963 13.4126 53.4892 14.2322 54.4434 14.4338C55.4502 14.6464 56.323 15.2754 56.8366 16.1587C57.3508 17.0425 57.4631 18.1065 57.1454 19.0788C56.8444 19.9995 57.213 21.0053 58.0398 21.5183C58.9132 22.0605 59.5165 22.9476 59.6947 23.9518C59.8735 24.9565 59.6122 25.9947 58.9785 26.8005C58.378 27.5635 58.378 28.6336 58.978 29.3966ZM49.0909 57.7682C48.1306 57.5523 47.1465 58.0187 46.7126 58.8959L43.6691 65.0516L39.1013 55.5643C39.6725 55.3215 40.2149 55.0128 40.7158 54.642C42.3308 55.1232 44.0765 55.0826 45.6832 54.5025C47.2893 53.9224 48.6525 52.8392 49.5785 51.4406C50.3494 51.3967 51.1071 51.239 51.8288 50.9787L55.8282 59.2849L49.0909 57.7682ZM25.2874 58.8959C24.9243 58.1626 24.1766 57.716 23.3801 57.716C23.2241 57.716 23.0663 57.733 22.9091 57.7682L16.1718 59.2843L20.1712 50.9781C20.8929 51.239 21.6511 51.3961 22.4215 51.4406C23.3475 52.8392 24.7107 53.9219 26.3168 54.502C27.9235 55.0826 29.6692 55.1227 31.2842 54.642C31.7851 55.0123 32.3275 55.3215 32.8987 55.5638L28.3309 65.051L25.2874 58.8959Z" fill="#005FEC" stroke="white" mask="url(#path-1-inside-1_5959_167)"/>
<path d="M33.6672 32.8762L33.8433 33.0509L34.0194 32.8761L44.5356 22.4388C45.5701 21.412 47.2495 21.412 48.2841 22.4388C49.3184 23.4653 49.3184 25.1281 48.2841 26.1547L35.7175 38.627C35.2208 39.12 34.5463 39.3977 33.8433 39.3977C33.1402 39.3977 32.4658 39.12 31.969 38.627L24.1391 30.8558L24.139 30.8557C23.1048 29.83 23.1048 28.1665 24.139 27.1407L24.1391 27.1406C25.1737 26.1131 26.853 26.1131 27.8875 27.1406L27.8876 27.1407L33.6672 32.8762Z" fill="#00ECD0" stroke="white" stroke-width="0.5"/>
</svg>
