<svg width="72" height="72" viewBox="0 0 72 72" fill="none" xmlns="http://www.w3.org/2000/svg">
<path d="M59.8417 44.8995C62.8015 40.3303 64.527 34.8651 64.527 28.9968C64.527 13.0078 51.7296 0 36 0C20.2704 0 7.47354 13.0078 7.47354 28.9968C7.47354 34.8651 9.19906 40.3303 12.1583 44.8995L1 61.441L13.7682 59.0213L16.1492 72L26.672 56.4C29.5967 57.4316 32.7349 57.9935 36 57.9935C39.2657 57.9935 42.4038 57.4316 45.328 56.4L55.8513 72L58.2318 59.0213L71 61.441L59.8417 44.8995ZM18.4054 61.151L17.1068 54.0714L10.1426 55.392L14.842 48.425C17.0928 50.9551 19.7759 53.0799 22.7708 54.6806L18.4054 61.151ZM11.6482 28.9968C11.6482 15.3479 22.5725 4.24347 36 4.24347C49.428 4.24347 60.3524 15.3479 60.3524 28.9968C60.3524 42.6462 49.428 53.7506 36 53.7506C22.5725 53.7506 11.6482 42.6462 11.6482 28.9968V28.9968ZM54.8932 54.0714L53.5946 61.151L49.2297 54.6806C52.2246 53.0799 54.9078 50.9551 57.1586 48.425L61.8579 55.3914L54.8932 54.0714Z" fill="#005FEC"/>
<path d="M30.9149 34.3649L24.1274 27.4661L21.1757 30.4664L30.9149 40.3662L50.8251 20.1283L47.8734 17.1279L30.9149 34.3649Z" fill="#00ECD0"/>
</svg>
