<svg width="18" height="20" viewBox="0 0 18 20" fill="none" xmlns="http://www.w3.org/2000/svg">
<path d="M0.703523 0.555664C0.4813 0.777886 0.407227 1.14826 0.407227 1.5927V17.9631C0.407227 18.4075 0.555375 18.7779 0.777597 19.0001L0.851671 19.0742L10.0369 9.889V9.74085L0.703523 0.555664Z" fill="url(#paint0_linear_5954_4)"/>
<path d="M12.9999 13.0004L9.96289 9.96336V9.74114L12.9999 6.7041L13.074 6.77818L16.7036 8.85225C17.7407 9.44484 17.7407 10.4078 16.7036 11.0004L12.9999 13.0004V13.0004Z" fill="url(#paint1_linear_5954_4)"/>
<path d="M13.074 12.9256L9.96287 9.81445L0.703613 19.0737C1.07398 19.4441 1.5925 19.4441 2.25917 19.1478L13.074 12.9256" fill="url(#paint2_linear_5954_4)"/>
<path d="M13.074 6.70415L2.25917 0.556C1.5925 0.18563 1.07398 0.259704 0.703613 0.630074L9.96287 9.81526L13.074 6.70415V6.70415Z" fill="url(#paint3_linear_5954_4)"/>
<path opacity="0.2" d="M12.9999 12.8516L2.25917 18.9256C1.66658 19.296 1.14806 19.2219 0.777688 18.9256L0.703613 18.9997L0.777688 19.0738C1.14806 19.3701 1.66658 19.4442 2.25917 19.0738L12.9999 12.8516Z" fill="#18216D"/>
<path opacity="0.12" d="M0.703523 18.9256C0.4813 18.7033 0.407227 18.333 0.407227 17.8885V17.9626C0.407227 18.407 0.555375 18.7774 0.777597 18.9996V18.9256H0.703523ZM16.7035 10.7774L12.9998 12.8515L13.0739 12.9256L16.7035 10.8515C17.222 10.5552 17.4443 10.1848 17.4443 9.81445C17.4443 10.1848 17.148 10.4811 16.7035 10.7774V10.7774Z" fill="#18216D"/>
<path opacity="0.25" d="M2.25908 0.62936L16.7035 8.85158C17.148 9.14788 17.4443 9.44418 17.4443 9.81455C17.4443 9.44418 17.222 9.07381 16.7035 8.77751L2.25908 0.555286C1.22204 -0.037307 0.407227 0.407137 0.407227 1.59232V1.6664C0.407227 0.555286 1.22204 0.0367671 2.25908 0.62936Z" fill="white"/>
<defs>
<linearGradient id="paint0_linear_5954_4" x1="9.14797" y1="1.45196" x2="-3.28389" y2="13.8831" gradientUnits="userSpaceOnUse">
<stop stop-color="#00A0FF"/>
<stop offset="0.007" stop-color="#00A1FF"/>
<stop offset="0.26" stop-color="#00BEFF"/>
<stop offset="0.512" stop-color="#00D2FF"/>
<stop offset="0.76" stop-color="#00DFFF"/>
<stop offset="1" stop-color="#00E3FF"/>
</linearGradient>
<linearGradient id="paint1_linear_5954_4" x1="18.0621" y1="9.81595" x2="0.138446" y2="9.81595" gradientUnits="userSpaceOnUse">
<stop stop-color="#FFE000"/>
<stop offset="0.409" stop-color="#FFBD00"/>
<stop offset="0.775" stop-color="#FFA500"/>
<stop offset="1" stop-color="#FF9C00"/>
</linearGradient>
<linearGradient id="paint2_linear_5954_4" x1="11.3903" y1="11.5152" x2="-5.4675" y2="28.373" gradientUnits="userSpaceOnUse">
<stop stop-color="#FF3A44"/>
<stop offset="1" stop-color="#C31162"/>
</linearGradient>
<linearGradient id="paint3_linear_5954_4" x1="-1.59491" y1="-4.86918" x2="5.93324" y2="2.65896" gradientUnits="userSpaceOnUse">
<stop stop-color="#32A071"/>
<stop offset="0.069" stop-color="#2DA771"/>
<stop offset="0.476" stop-color="#15CF74"/>
<stop offset="0.801" stop-color="#06E775"/>
<stop offset="1" stop-color="#00F076"/>
</linearGradient>
</defs>
</svg>
