<svg width="32" height="32" viewBox="0 0 32 32" fill="none" xmlns="http://www.w3.org/2000/svg">
<g clip-path="url(#clip0_5946_6)">
<path fill-rule="evenodd" clip-rule="evenodd" d="M0 4.57143C0 2.0467 2.0467 0 4.57143 0H27.4286C29.9533 0 32 2.0467 32 4.57143V27.4286C32 29.9533 29.9533 32 27.4286 32H4.57143C2.0467 32 0 29.9533 0 27.4286V4.57143ZM6 8V26H10.6102V15.5234H10.7458L14.6102 25.8594H17.3898L21.2542 15.5938H21.3898V26H26V8H20.1356L16.1017 18.1953H15.8983L11.8644 8H6ZM16 10C17.6569 10 19 8.65685 19 7C19 5.34315 17.6569 4 16 4C14.3431 4 13 5.34315 13 7C13 8.65685 14.3431 10 16 10Z" fill="#005FEC"/>
</g>
<defs>
<clipPath id="clip0_5946_6">
<rect width="32" height="32" fill="white"/>
</clipPath>
</defs>
</svg>
