<svg width="21" height="20" viewBox="0 0 21 20" fill="none" xmlns="http://www.w3.org/2000/svg">
<path d="M17.8347 18.1207C14.7703 20.6222 5.20184 20.6222 2.19996 18.1207C-0.864454 15.6191 -0.551764 4.92494 2.19996 2.11069C4.95168 -0.703563 15.083 -0.703563 17.8347 2.11069C20.5864 4.92494 20.8991 15.6191 17.8347 18.1207Z" fill="#005FEC"/>
<path opacity="0.1" d="M10.0799 13.7726C7.32818 15.9615 4.26377 17.0872 1.38699 17.1497C-0.739354 13.5225 -0.301563 4.70449 2.2 2.1404C4.4514 -0.173531 11.5183 -0.611323 15.5834 0.827068C16.5839 4.95465 14.5202 10.2079 10.0799 13.7726Z" fill="white"/>
<path d="M8.57866 15.5862C8.14087 15.5862 7.70312 15.3986 7.45296 15.0233L3.9508 10.5205C3.45048 9.89516 3.57558 9.01962 4.20096 8.51929C4.82634 8.01897 5.70188 8.14407 6.20221 8.76946L8.57866 11.8339L13.8319 5.01713C14.3323 4.39175 15.2078 4.26664 15.8332 4.76697C16.4586 5.26729 16.5837 6.14283 16.0834 6.76821L9.70437 15.0233C9.39168 15.336 9.01646 15.5862 8.57866 15.5862Z" fill="white"/>
</svg>
