<svg width="148" height="48" viewBox="0 0 148 48" fill="none" xmlns="http://www.w3.org/2000/svg">
<g clip-path="url(#clip0_43_24)">
<path d="M142.628 29.3348L146.692 32.0402C145.373 33.9802 142.219 37.3088 136.764 37.3088C129.992 37.3088 124.948 32.0759 124.948 25.4191C124.948 18.3353 130.045 13.5296 136.194 13.5296C142.379 13.5296 145.409 18.4419 146.389 21.0939L146.924 22.4468L130.99 29.0322C132.202 31.4173 134.091 32.6276 136.764 32.6276C139.438 32.6276 141.292 31.3105 142.628 29.3348V29.3348ZM130.135 25.0456L140.775 20.6313C140.187 19.1542 138.44 18.1042 136.354 18.1042C133.699 18.1042 130.01 20.4536 130.135 25.0456Z" fill="white" fill-opacity="0.2"/>
<path d="M117.266 1.40879H122.399V36.2231H117.266V1.40851V1.40879Z" fill="white" fill-opacity="0.2"/>
<path d="M109.174 14.4551H114.129V35.6C114.129 44.3746 108.943 47.9877 102.811 47.9877C97.0369 47.9877 93.5616 44.1077 92.2604 40.9574L96.8052 39.0706C97.6249 41.0106 99.6033 43.3069 102.811 43.3069C106.75 43.3069 109.174 40.8683 109.174 36.312V34.6034H108.996C107.82 36.0271 105.574 37.3086 102.722 37.3086C96.7694 37.3086 91.3154 32.1291 91.3154 25.4549C91.3154 18.7446 96.7694 13.512 102.722 13.512C105.556 13.512 107.82 14.7757 108.996 16.164H109.174V14.4554V14.4551ZM109.531 25.4549C109.531 21.2543 106.732 18.1929 103.168 18.1929C99.5675 18.1929 96.5377 21.2543 96.5377 25.4549C96.5377 29.6017 99.5675 32.6097 103.168 32.6097C106.733 32.6277 109.531 29.6017 109.531 25.4549H109.531Z" fill="white" fill-opacity="0.2"/>
<path d="M63.1374 25.3658C63.1374 32.2184 57.7907 37.2552 51.2317 37.2552C44.6731 37.2552 39.3261 32.2007 39.3261 25.3658C39.3261 18.4778 44.6731 13.4586 51.2317 13.4586C57.7907 13.4586 63.1374 18.4778 63.1374 25.3658ZM57.9332 25.3658C57.9332 21.0944 54.8318 18.1572 51.2317 18.1572C47.6317 18.1572 44.5303 21.0944 44.5303 25.3658C44.5303 29.6018 47.6317 32.5744 51.2317 32.5744C54.8321 32.5744 57.9332 29.6018 57.9332 25.3658Z" fill="white" fill-opacity="0.2"/>
<path d="M89.1414 25.4191C89.1414 32.2716 83.7944 37.3085 77.2358 37.3085C70.6768 37.3085 65.3301 32.2714 65.3301 25.4191C65.3301 18.5311 70.6768 13.5296 77.2358 13.5296C83.7944 13.5296 89.1414 18.5133 89.1414 25.4191V25.4191ZM83.9192 25.4191C83.9192 21.1476 80.8181 18.2105 77.2177 18.2105C73.6177 18.2105 70.5163 21.1476 70.5163 25.4191C70.5163 29.6551 73.6177 32.6276 77.2177 32.6276C80.8358 32.6276 83.9192 29.6374 83.9192 25.4191Z" fill="white" fill-opacity="0.2"/>
<path d="M19.7567 32.0937C12.2888 32.0937 6.44312 26.0777 6.44312 18.62C6.44312 11.1625 12.2888 5.14653 19.7567 5.14653C23.7848 5.14653 26.7254 6.73053 28.8998 8.75967L32.4824 5.18224C29.4525 2.2811 25.4067 0.0736694 19.7567 0.0736694C9.52646 0.0739551 0.917862 8.40395 0.917862 18.62C0.917862 28.8365 9.52646 37.1662 19.7567 37.1662C25.282 37.1662 29.4525 35.3508 32.7141 31.9691C36.0647 28.6228 37.0984 23.924 37.0984 20.1151C37.0984 18.9225 36.9559 17.6945 36.7954 16.7868H19.7567V21.7348H31.8941C31.5376 24.832 30.5574 26.95 29.1138 28.3914C27.3671 30.1537 24.6047 32.0937 19.7567 32.0937V32.0937Z" fill="white" fill-opacity="0.2"/>
</g>
<defs>
<clipPath id="clip0_43_24">
<rect width="146.486" height="48" fill="white" transform="translate(0.705109)"/>
</clipPath>
</defs>
</svg>
