<svg width="64" height="64" viewBox="0 0 64 64" fill="none" xmlns="http://www.w3.org/2000/svg">
<g opacity="0.78" clip-path="url(#clip0_38_6)">
<path d="M0 4C0 1.79086 1.79086 0 4 0H60C62.2091 0 64 1.79086 64 4V60C64 62.2091 62.2091 64 60 64H4C1.79086 64 0 62.2091 0 60V4Z" fill="#FF0066"/>
<path d="M21.7775 20.595C23.8018 20.5655 25.4218 18.9057 25.4023 16.8812C25.3825 14.8565 23.7308 13.2285 21.706 13.2382C19.6813 13.248 18.0453 14.8917 18.045 16.9165C18.0467 17.4036 18.1448 17.8856 18.3336 18.3347C18.5224 18.7838 18.7983 19.1911 19.1452 19.5331C19.4922 19.8751 19.9034 20.145 20.3552 20.3273C20.807 20.5096 21.2904 20.6006 21.7775 20.5952V20.595Z" fill="white"/>
<path d="M14.0387 40.2892C13.8268 41.195 13.7161 42.1215 13.7087 43.0517C13.7087 46.29 15.4647 48.4402 19.1972 48.4402C22.2922 48.4402 24.8034 46.6022 26.6084 43.6327L25.5049 48.0615H31.6489L35.1639 33.9815C36.0419 30.4127 37.7417 28.562 40.3222 28.562C42.3522 28.562 43.6144 29.824 43.6144 31.9105C43.6244 32.5792 43.5319 33.2457 43.3404 33.8867L41.5304 40.361C41.2716 41.2526 41.1423 42.1768 41.1467 43.1052C41.1467 46.1772 42.9567 48.4302 46.7427 48.4302C49.9812 48.4302 52.5617 46.3462 53.9877 41.3517L51.5734 40.4172C50.3652 43.7657 49.3234 44.3697 48.5014 44.3697C47.6797 44.3697 47.2367 43.8222 47.2367 42.7237C47.2604 42.1474 47.3524 41.5759 47.5107 41.0212L49.2694 34.7112C49.6643 33.4139 49.8679 32.0659 49.8737 30.7097C49.8737 25.989 47.0192 23.5265 43.5607 23.5265C40.3222 23.5265 37.0302 26.4472 35.3839 29.522L36.5897 24.0025H27.2072L25.8889 28.8665H30.2819L27.5787 39.68C25.4537 44.4007 21.5524 44.4775 21.0634 44.3675C20.2594 44.1855 19.7474 43.881 19.7474 42.8312C19.7709 41.9815 19.8999 41.138 20.1314 40.32L24.2479 23.9897H13.8237L12.5079 28.8537H16.8419L14.0387 40.2892V40.2892Z" fill="white"/>
</g>
<defs>
<clipPath id="clip0_38_6">
<rect width="64" height="64" fill="white"/>
</clipPath>
</defs>
</svg>
