<svg width="218" height="48" viewBox="0 0 218 48" fill="none" xmlns="http://www.w3.org/2000/svg">
<g clip-path="url(#clip0_43_12)">
<path d="M217.695 21.5721V17.6439H212.941V11.5374L212.781 11.5881L208.316 12.9897L208.227 13.0172V17.6444H201.179V15.0672C201.179 13.8672 201.441 12.9482 201.957 12.3356C202.468 11.7303 203.201 11.4227 204.134 11.4227C204.806 11.4227 205.501 11.585 206.201 11.9053L206.376 11.9852V7.84843L206.294 7.81744C205.641 7.57657 204.753 7.45526 203.653 7.45526C202.266 7.45526 201.006 7.76508 199.908 8.37861C198.808 8.99301 197.943 9.8701 197.337 10.9859C196.733 12.0999 196.427 13.3868 196.427 14.8106V17.6444H193.116V21.5725H196.427V38.1207H201.179V21.5721H208.227V32.0884C208.227 36.4198 210.219 38.6151 214.145 38.6151C214.791 38.6151 215.47 38.537 216.163 38.3852C216.869 38.2294 217.35 38.0736 217.633 37.9069L217.695 37.8694V33.9046L217.502 34.0355C217.244 34.2126 216.923 34.3562 216.546 34.4631C216.168 34.5722 215.852 34.6272 215.608 34.6272C214.688 34.6272 214.007 34.3728 213.584 33.871C213.157 33.3648 212.941 32.479 212.941 31.2397V21.5721H217.695V21.5721ZM182.503 34.6281C180.778 34.6281 179.419 34.0407 178.46 32.8848C177.496 31.7228 177.007 30.0663 177.007 27.9617C177.007 25.7908 177.496 24.0912 178.461 22.9086C179.42 21.734 180.766 21.1379 182.465 21.1379C184.113 21.1379 185.425 21.7073 186.364 22.831C187.308 23.9612 187.787 25.6468 187.787 27.8435C187.787 30.0668 187.336 31.7751 186.448 32.9175C185.565 34.0516 184.239 34.6281 182.503 34.6281V34.6281ZM182.715 17.1508C179.424 17.1508 176.81 18.1401 174.947 20.0915C173.084 22.0433 172.14 24.7436 172.14 28.1193C172.14 31.3252 173.061 33.9041 174.88 35.7827C176.698 37.6625 179.172 38.6147 182.233 38.6147C185.424 38.6147 187.986 37.611 189.849 35.633C191.711 33.6563 192.655 30.9814 192.655 27.6846C192.655 24.4285 191.769 21.8304 190.022 19.9641C188.274 18.0973 185.815 17.1508 182.715 17.1508V17.1508ZM164.477 17.1508C162.239 17.1508 160.387 17.7382 158.972 18.8963C157.549 20.0614 156.828 21.59 156.828 23.4393C156.828 24.4006 156.984 25.2545 157.29 25.9789C157.599 26.7054 158.076 27.3452 158.71 27.8823C159.34 28.4147 160.311 28.9728 161.599 29.5405C162.681 29.9974 163.489 30.384 164.002 30.6886C164.503 30.987 164.858 31.2873 165.06 31.5796C165.254 31.8654 165.354 32.2569 165.354 32.7404C165.354 34.1162 164.35 34.7852 162.283 34.7852C161.517 34.7852 160.643 34.6215 159.686 34.2977C158.735 33.9787 157.838 33.5117 157.025 32.9132L156.828 32.7683V37.4627L156.9 37.4976C157.573 37.8161 158.42 38.0841 159.419 38.2957C160.417 38.5073 161.323 38.6151 162.11 38.6151C164.54 38.6151 166.496 38.0247 167.923 36.8592C169.359 35.6862 170.088 34.1219 170.088 32.208C170.088 30.8278 169.696 29.6444 168.923 28.6896C168.156 27.7427 166.825 26.8734 164.967 26.105C163.487 25.4958 162.539 24.9901 162.149 24.6017C161.772 24.2265 161.58 23.6963 161.58 23.0247C161.58 22.4291 161.816 21.9521 162.302 21.5655C162.791 21.1772 163.471 20.9795 164.324 20.9795C165.116 20.9795 165.926 21.1078 166.731 21.3591C167.537 21.6109 168.244 21.9478 168.834 22.3597L169.028 22.4958V18.0428L168.954 18.0096C168.409 17.77 167.691 17.5654 166.819 17.3987C165.95 17.2342 165.163 17.1508 164.477 17.1508V17.1508ZM144.438 34.6276C142.714 34.6276 141.354 34.0407 140.395 32.8848C139.431 31.7228 138.943 30.0668 138.943 27.9617C138.943 25.7908 139.431 24.0912 140.396 22.9086C141.354 21.734 142.701 21.1379 144.4 21.1379C146.047 21.1379 147.359 21.7073 148.299 22.831C149.243 23.9612 149.722 25.6468 149.722 27.8435C149.722 30.0668 149.272 31.7751 148.383 32.9175C147.501 34.0516 146.174 34.6281 144.438 34.6281V34.6276ZM144.651 17.1508C141.359 17.1508 138.745 18.1401 136.882 20.0915C135.02 22.0433 134.075 24.7436 134.075 28.1193C134.075 31.3265 134.997 33.9041 136.815 35.7827C138.633 37.6625 141.108 38.6147 144.169 38.6147C147.359 38.6147 149.921 37.611 151.784 35.633C153.646 33.6563 154.591 30.9814 154.591 27.6846C154.591 24.4285 153.704 21.8304 151.957 19.9641C150.208 18.0973 147.75 17.1508 144.65 17.1508H144.651ZM126.861 21.1902V17.6439H122.166V38.1207H126.86V27.6462C126.86 25.865 127.254 24.4019 128.031 23.2966C128.798 22.2044 129.819 21.6515 131.067 21.6515C131.49 21.6515 131.964 21.7226 132.479 21.8644C132.987 22.0049 133.356 22.1577 133.573 22.3182L133.77 22.4649V17.609L133.694 17.5754C133.257 17.3847 132.639 17.2887 131.856 17.2887C130.677 17.2887 129.621 17.6775 128.716 18.4433C127.923 19.1162 127.349 20.0391 126.91 21.1902H126.86H126.861ZM113.759 17.1508C111.606 17.1508 109.685 17.6247 108.05 18.5585C106.413 19.4945 105.147 20.8316 104.286 22.5312C103.428 24.2269 102.993 26.2071 102.993 28.416C102.993 30.3504 103.415 32.126 104.249 33.6908C105.084 35.2582 106.266 36.4844 107.762 37.3344C109.256 38.184 110.982 38.6151 112.894 38.6151C115.125 38.6151 117.03 38.1569 118.557 37.255L118.619 37.2183V32.8054L118.421 32.9533C117.719 33.4759 116.945 33.8894 116.125 34.1804C115.295 34.4771 114.539 34.6276 113.875 34.6276C112.034 34.6276 110.555 34.0359 109.481 32.8704C108.405 31.7027 107.86 30.0637 107.86 28.0006C107.86 25.9248 108.429 24.2435 109.55 23.0025C110.667 21.7658 112.148 21.1383 113.953 21.1383C115.496 21.1383 116.999 21.6742 118.422 22.7332L118.619 22.8798V18.2304L118.555 18.1933C118.02 17.8861 117.29 17.6321 116.383 17.4397C115.481 17.2477 114.598 17.1508 113.759 17.1508H113.759ZM99.7588 17.6439H95.0644V38.1207H99.7592V17.6444L99.7588 17.6439ZM97.4597 8.92101C96.6874 8.92101 96.0137 9.19068 95.4595 9.72566C94.9037 10.2624 94.6217 10.9374 94.6217 11.7342C94.6217 12.5184 94.9003 13.1812 95.451 13.7031C95.998 14.2237 96.6737 14.4877 97.4597 14.4877C98.2456 14.4877 98.924 14.2237 99.4777 13.704C100.035 13.1812 100.318 12.5184 100.318 11.7342C100.318 10.9649 100.042 10.2964 99.5007 9.74704C98.9593 9.19897 98.2728 8.92101 97.4597 8.92101V8.92101ZM85.7472 16.1332V38.1207H90.5377V9.54806H83.9074L75.479 30.7706L67.2998 9.54806H60.399V38.1207H64.9011V16.131H65.0559L73.6927 38.1203H77.0904L85.5919 16.1332H85.7468H85.7472Z" fill="white" fill-opacity="0.2"/>
<path d="M22.0841 22.6591H0V0H22.0841V22.6591Z" fill="white" fill-opacity="0.2"/>
<path d="M46.4672 22.6591H24.3836V0H46.4672V22.6591Z" fill="white" fill-opacity="0.2"/>
<path d="M22.0832 47.6858H0V25.0272H22.0832V47.6858Z" fill="white" fill-opacity="0.2"/>
<path d="M46.4672 47.6858H24.3836V25.0272H46.4672V47.6858Z" fill="white" fill-opacity="0.2"/>
</g>
<defs>
<clipPath id="clip0_43_12">
<rect width="217.749" height="48" fill="white"/>
</clipPath>
</defs>
</svg>
