<svg width="64" height="64" viewBox="0 0 64 64" fill="none" xmlns="http://www.w3.org/2000/svg">
<path d="M32 4L13.9637 5.87248L0 24.2781L32 60.867L64 24.2779L50.0365 5.87248L32 4Z" fill="#FDB300"/>
<path d="M0 24.2782L32 60.8671L12.9615 24.2782H0Z" fill="#EB6C00"/>
<path d="M51.0382 24.2782L32 60.8671L64 24.2782H51.0382Z" fill="#EB6C00"/>
<path d="M12.9617 24.2782L32.0002 60.8671L51.0387 24.2782H12.9617Z" fill="#FDAD00"/>
<path d="M13.9636 5.87248L12.9611 24.2781L31.9998 4L13.9636 5.87248Z" fill="#FDD231"/>
<path d="M51.0382 24.2781L50.0363 5.87248L32 4L51.0382 24.2781Z" fill="#FDD231"/>
<path d="M51.0383 24.2781H63.9998L50.0363 5.87244L51.0383 24.2781Z" fill="#FDAD00"/>
<path d="M0 24.2781H12.9615L13.9637 5.87244L0 24.2781Z" fill="#FDAD00"/>
<path d="M32.0002 4L12.9617 24.2779H51.0387L32.0002 4Z" fill="#FEEEB7"/>
</svg>
