<svg width="189" height="48" viewBox="0 0 189 48" fill="none" xmlns="http://www.w3.org/2000/svg">
<g clip-path="url(#clip0_43_18)">
<path d="M60.2342 37.6191L62.5801 32.1416C65.1152 34.0435 68.4826 35.0326 71.8125 35.0326C74.2719 35.0326 75.8234 34.0815 75.8234 32.6363C75.7855 28.6043 61.1043 31.7612 60.9908 21.6432C60.953 16.5083 65.4939 12.5524 71.926 12.5524C75.7477 12.5524 79.5694 13.5031 82.2936 15.6713L80.0991 21.2629C77.6018 19.6652 74.4993 18.5243 71.5477 18.5243C69.5422 18.5243 68.2181 19.4751 68.2181 20.6924C68.2559 24.6484 83.0507 22.4803 83.202 32.1416C83.202 37.3909 78.775 41.0806 72.4182 41.0806C67.7638 41.0806 63.4881 39.9774 60.2342 37.6191V37.6191ZM150.251 30.1636L156.722 33.7772C154.3 38.1515 149.684 41.0806 144.348 41.0806C136.516 41.0806 130.159 34.6903 130.159 26.8165C130.159 18.9427 136.516 12.5524 144.348 12.5524C149.646 12.5524 154.3 15.5191 156.722 19.8558L150.251 23.4691C149.078 21.415 146.883 20.0079 144.348 20.0079C140.602 20.0079 137.575 23.0507 137.575 26.8165C137.575 30.5823 140.602 33.6251 144.348 33.6251C146.883 33.6251 149.078 32.2176 150.251 30.1636H150.251ZM86.4559 0.722595H94.5533V40.5478H86.4559V0.722595V0.722595ZM159.9 0.722595H167.997V24.1156L177.154 13.1228H187.068L175.754 26.3598L187.976 40.5478H177.608L167.997 28.6043V40.5478H159.9V0.722595ZM118.619 30.24V23.5071C117.445 21.5291 115.024 20.0079 112.3 20.0079C108.553 20.0079 105.527 23.0507 105.527 26.8165C105.527 30.5823 108.553 33.6251 112.3 33.6251C115.024 33.6251 117.445 32.1796 118.619 30.2396V30.24ZM118.619 13.1232H126.716V40.5102H118.619V37.2772C117.294 39.5214 114.002 41.081 110.559 41.081C103.445 41.081 97.8454 34.6907 97.8454 26.7788C97.8454 18.867 103.445 12.5527 110.559 12.5527C114.002 12.5527 117.294 14.1124 118.619 16.3566V13.1225V13.1232Z" fill="white" fill-opacity="0.2"/>
<path d="M10.1741 30.2016C10.1741 32.9782 7.94172 35.2228 5.17928 35.2228C4.52319 35.2234 3.87341 35.0939 3.26714 34.8418C2.66088 34.5897 2.11002 34.2199 1.64611 33.7535C1.1822 33.2871 0.814338 32.7333 0.563585 32.1238C0.312832 31.5143 0.18411 30.8611 0.184787 30.2016C0.184787 27.425 2.41721 25.1808 5.17928 25.1808H10.1741V30.2016ZM12.6714 30.2016C12.6714 27.425 14.9038 25.1808 17.6659 25.1808C20.428 25.1808 22.6608 27.425 22.6608 30.2016V42.754C22.6608 45.5306 20.4283 47.7751 17.6659 47.7751C17.0098 47.7757 16.3601 47.6462 15.7539 47.3941C15.1476 47.1419 14.5968 46.7721 14.133 46.3057C13.6691 45.8393 13.3013 45.2856 13.0505 44.6761C12.7998 44.0667 12.6711 43.4135 12.6718 42.754V30.2016H12.6714Z" fill="white" fill-opacity="0.2"/>
<path d="M17.666 10.042C17.0099 10.0426 16.3602 9.91307 15.754 9.66093C15.1477 9.40879 14.5969 9.03894 14.133 8.57256C13.6692 8.10617 13.3013 7.55241 13.0506 6.94295C12.7999 6.3335 12.6712 5.68032 12.6718 5.0208C12.6715 2.24418 14.9039 0 17.666 0C20.428 0 22.6608 2.24418 22.6608 5.0208V10.042H17.666V10.042ZM17.666 12.5904C20.428 12.5904 22.6608 14.8346 22.6608 17.6112C22.6608 20.3878 20.4284 22.6324 17.666 22.6324H5.14153C4.48544 22.633 3.83566 22.5036 3.22939 22.2514C2.62313 21.9993 2.07227 21.6295 1.60836 21.1631C1.14445 20.6967 0.776588 20.1429 0.525835 19.5334C0.275082 18.924 0.14636 18.2707 0.147036 17.6112C0.147036 14.8346 2.37946 12.5908 5.14153 12.5908H17.6663L17.666 12.5904Z" fill="white" fill-opacity="0.2"/>
<path d="M37.6825 17.6112C37.6825 14.8346 39.9149 12.5904 42.677 12.5904C45.4391 12.5904 47.6719 14.8346 47.6719 17.6112C47.6719 20.3878 45.4394 22.6324 42.677 22.6324H37.6825V17.6112V17.6112ZM35.1849 17.6112C35.1849 20.3878 32.9528 22.6324 30.1904 22.6324C29.5343 22.633 28.8845 22.5036 28.2783 22.2514C27.672 21.9993 27.1211 21.6295 26.6572 21.1631C26.1933 20.6967 25.8254 20.1429 25.5747 19.5334C25.3239 18.924 25.1952 18.2707 25.1959 17.6112V5.0208C25.1959 2.24418 27.4283 0 30.1904 0C32.9525 0 35.1853 2.24418 35.1853 5.0208V17.6116L35.1849 17.6112Z" fill="white" fill-opacity="0.2"/>
<path d="M30.1904 37.7332C32.9525 37.7332 35.1853 39.9773 35.1853 42.754C35.1853 45.5306 32.9528 47.7751 30.1904 47.7751C29.5343 47.7758 28.8845 47.6463 28.2783 47.3942C27.672 47.1421 27.1211 46.7722 26.6572 46.3058C26.1933 45.8395 25.8254 45.2857 25.5747 44.6762C25.3239 44.0667 25.1952 43.4135 25.1959 42.754V37.7332H30.1904V37.7332ZM30.1904 35.2224C29.5343 35.223 28.8846 35.0936 28.2783 34.8415C27.6721 34.5894 27.1213 34.2196 26.6573 33.7532C26.1934 33.2869 25.8256 32.7331 25.5748 32.1237C25.324 31.5143 25.1953 30.8611 25.1959 30.2016C25.1959 27.425 27.4283 25.1808 30.1904 25.1808H42.7152C45.4773 25.1808 47.7097 27.425 47.7097 30.2016C47.7097 32.9782 45.4773 35.2228 42.7148 35.2228H30.1904V35.2224Z" fill="white" fill-opacity="0.2"/>
</g>
<defs>
<clipPath id="clip0_43_18">
<rect width="188.056" height="48" fill="white" transform="translate(0.147034)"/>
</clipPath>
</defs>
</svg>
