<svg width="64" height="64" viewBox="0 0 64 64" fill="none" xmlns="http://www.w3.org/2000/svg">
<g opacity="0.78" clip-path="url(#clip0_32_0)">
<path fill-rule="evenodd" clip-rule="evenodd" d="M13.4614 40.3307C13.4621 41.2115 13.2891 42.0838 12.9522 42.8977C12.6154 43.7115 12.1214 44.451 11.4984 45.0737C10.8755 45.6964 10.1358 46.1901 9.32185 46.5266C8.50786 46.8631 7.6355 47.0358 6.7547 47.0347C5.87434 47.0351 5.00255 46.8619 4.18918 46.5251C3.3758 46.1882 2.63679 45.6944 2.01441 45.0718C1.39203 44.4491 0.898483 43.7099 0.561991 42.8964C0.225498 42.0829 0.0526611 41.2111 0.0533621 40.3307C0.0526607 39.4501 0.225586 38.5781 0.562245 37.7644C0.898904 36.9507 1.39269 36.2114 2.01535 35.5887C2.63802 34.966 3.37734 34.4723 4.19102 34.1356C5.00471 33.7989 5.87678 33.626 6.75736 33.6267H13.464V40.3307H13.4614ZM16.8134 40.3307C16.8127 39.4501 16.9856 38.5781 17.3222 37.7644C17.6589 36.9507 18.1527 36.2114 18.7754 35.5887C19.398 34.966 20.1373 34.4723 20.951 34.1356C21.7647 33.7989 22.6368 33.626 23.5174 33.6267C24.3979 33.626 25.27 33.7989 26.0837 34.1356C26.8974 34.4723 27.6367 34.966 28.2594 35.5887C28.882 36.2114 29.3758 36.9507 29.7125 37.7644C30.0491 38.5781 30.2221 39.4501 30.2214 40.3307V57.0934C30.2221 57.974 30.0491 58.846 29.7125 59.6597C29.3758 60.4734 28.882 61.2127 28.2594 61.8354C27.6367 62.458 26.8974 62.9518 26.0837 63.2885C25.27 63.6251 24.3979 63.7981 23.5174 63.7974C22.6368 63.7981 21.7647 63.6251 20.951 63.2885C20.1373 62.9518 19.398 62.458 18.7754 61.8354C18.1527 61.2127 17.6589 60.4734 17.3222 59.6597C16.9856 58.846 16.8127 57.974 16.8134 57.0934V40.3307Z" fill="#E01E5A"/>
<path fill-rule="evenodd" clip-rule="evenodd" d="M23.5173 13.4107C22.6365 13.4114 21.7642 13.2384 20.9504 12.9015C20.1365 12.5647 19.3971 12.0707 18.7744 11.4477C18.1517 10.8248 17.658 10.0852 17.3215 9.27116C16.9849 8.45717 16.8123 7.5848 16.8133 6.704C16.8126 5.82342 16.9856 4.95135 17.3222 4.13766C17.6589 3.32398 18.1527 2.58466 18.7753 1.96199C19.398 1.33933 20.1373 0.845544 20.951 0.508885C21.7647 0.172226 22.6368 -0.000699252 23.5173 2.12503e-06C24.3979 -0.000699252 25.27 0.172226 26.0837 0.508885C26.8974 0.845544 27.6367 1.33933 28.2593 1.96199C28.882 2.58466 29.3758 3.32398 29.7125 4.13766C30.0491 4.95135 30.222 5.82342 30.2213 6.704V13.4133H23.52L23.5173 13.4107ZM23.5173 16.8133C24.3979 16.8126 25.27 16.9856 26.0837 17.3222C26.8974 17.6589 27.6367 18.1527 28.2593 18.7753C28.882 19.398 29.3758 20.1373 29.7125 20.951C30.0491 21.7647 30.222 22.6368 30.2213 23.5173C30.222 24.3979 30.0491 25.27 29.7125 26.0837C29.3758 26.8974 28.882 27.6367 28.2593 28.2593C27.6367 28.882 26.8974 29.3758 26.0837 29.7125C25.27 30.0491 24.3979 30.222 23.5173 30.2213H6.704C5.82365 30.222 4.95179 30.0492 4.13828 29.7127C3.32477 29.3762 2.58557 28.8827 1.96294 28.2603C1.34031 27.6379 0.846468 26.8989 0.509652 26.0855C0.172835 25.2721 -0.000348614 24.4004 2.12503e-06 23.52C-0.000699252 22.6394 0.172226 21.7673 0.508885 20.9537C0.845544 20.14 1.33933 19.4007 1.96199 18.778C2.58466 18.1553 3.32398 17.6615 4.13766 17.3249C4.95135 16.9882 5.82342 16.8153 6.704 16.816H23.52L23.5173 16.8133Z" fill="#36C5F0"/>
<path fill-rule="evenodd" clip-rule="evenodd" d="M50.3865 23.5173C50.3858 22.6365 50.5588 21.7642 50.8956 20.9504C51.2324 20.1365 51.7265 19.3971 52.3494 18.7744C52.9724 18.1517 53.712 17.658 54.526 17.3215C55.34 16.985 56.2123 16.8123 57.0931 16.8133C57.9737 16.8126 58.8458 16.9856 59.6595 17.3222C60.4732 17.6589 61.2125 18.1527 61.8352 18.7753C62.4578 19.398 62.9516 20.1373 63.2883 20.951C63.6249 21.7647 63.7978 22.6368 63.7971 23.5173C63.7978 24.3979 63.6249 25.27 63.2883 26.0837C62.9516 26.8974 62.4578 27.6367 61.8352 28.2593C61.2125 28.882 60.4732 29.3758 59.6595 29.7125C58.8458 30.0491 57.9737 30.222 57.0931 30.2213H50.3865V23.52V23.5173ZM47.0345 23.5173C47.0352 24.3979 46.8623 25.27 46.5256 26.0837C46.1889 26.8974 45.6951 27.6367 45.0725 28.2593C44.4498 28.882 43.7105 29.3758 42.8968 29.7125C42.0831 30.0491 41.2111 30.222 40.3305 30.2213C39.4497 30.2224 38.5773 30.0497 37.7633 29.7132C36.9493 29.3767 36.2097 28.883 35.5867 28.2603C34.9638 27.6376 34.4698 26.8982 34.1329 26.0843C33.7961 25.2704 33.6231 24.3981 33.6238 23.5173V6.70401C33.6231 5.8232 33.7961 4.95091 34.1329 4.13705C34.4698 3.32319 34.9638 2.58375 35.5867 1.96105C36.2097 1.33835 36.9493 0.844623 37.7633 0.508121C38.5773 0.171619 39.4497 -0.00104742 40.3305 4.78005e-06C41.2111 -0.000696597 42.0831 0.172229 42.8968 0.508888C43.7105 0.845547 44.4498 1.33933 45.0725 1.962C45.6951 2.58466 46.1889 3.32398 46.5256 4.13767C46.8623 4.95135 47.0352 5.82343 47.0345 6.70401V23.52V23.5173Z" fill="#2EB67D"/>
<path fill-rule="evenodd" clip-rule="evenodd" d="M40.3304 50.3867C41.211 50.386 42.0831 50.5589 42.8968 50.8956C43.7105 51.2322 44.4498 51.726 45.0724 52.3487C45.6951 52.9714 46.1889 53.7107 46.5256 54.5244C46.8622 55.3381 47.0351 56.2101 47.0344 57.0907C47.0355 57.9715 46.8628 58.8439 46.5263 59.6579C46.1898 60.4719 45.6961 61.2115 45.0734 61.8344C44.4507 62.4574 43.7113 62.9514 42.8974 63.2882C42.0835 63.6251 41.2112 63.7981 40.3304 63.7974C39.4496 63.7981 38.5773 63.6251 37.7635 63.2882C36.9496 62.9514 36.2102 62.4574 35.5875 61.8344C34.9648 61.2115 34.4711 60.4719 34.1346 59.6579C33.7981 58.8439 33.6254 57.9715 33.6264 57.0907V50.3867H40.3304V50.3867ZM40.3304 47.0347C39.4499 47.0354 38.5778 46.8625 37.7641 46.5258C36.9504 46.1892 36.2111 45.6954 35.5884 45.0727C34.9658 44.4501 34.472 43.7107 34.1353 42.8971C33.7987 42.0834 33.6257 41.2113 33.6264 40.3307C33.6257 39.4501 33.7987 38.5781 34.1353 37.7644C34.472 36.9507 34.9658 36.2114 35.5884 35.5887C36.2111 34.966 36.9504 34.4723 37.7641 34.1356C38.5778 33.7989 39.4499 33.626 40.3304 33.6267H57.1438C58.0244 33.626 58.8964 33.7989 59.7101 34.1356C60.5238 34.4723 61.2631 34.966 61.8858 35.5887C62.5084 36.2114 63.0022 36.9507 63.3389 37.7644C63.6756 38.5781 63.8485 39.4501 63.8478 40.3307C63.8485 41.2113 63.6756 42.0834 63.3389 42.8971C63.0022 43.7107 62.5084 44.4501 61.8858 45.0727C61.2631 45.6954 60.5238 46.1892 59.7101 46.5258C58.8964 46.8625 58.0244 47.0354 57.1438 47.0347H40.3304V47.0347Z" fill="#ECB22E"/>
</g>
<defs>
<clipPath id="clip0_32_0">
<rect width="64" height="64" fill="white"/>
</clipPath>
</defs>
</svg>
