<svg width="64" height="64" viewBox="0 0 64 64" fill="none" xmlns="http://www.w3.org/2000/svg">
<g opacity="0.78" clip-path="url(#clip0_26_121)">
<path d="M61.5338 6.77184L48.3983 0.397545C47.6565 0.0375708 46.8219 -0.0811101 46.0102 0.0579258C45.1985 0.196962 44.4498 0.58684 43.8676 1.17361L0.86656 40.6891C-0.28994 41.7521 -0.28844 43.5872 0.86956 44.6485L4.38206 47.8667C4.84093 48.2872 5.43133 48.5326 6.05091 48.5604C6.67049 48.5882 7.28019 48.3966 7.77431 48.0188L59.5573 8.42551C61.2946 7.09739 63.7898 8.34614 63.7898 10.5438V10.3901C63.7898 9.63413 63.5781 8.89351 63.179 8.25343C62.7799 7.61334 62.2096 7.09979 61.5338 6.77184V6.77184Z" fill="#0065A9"/>
<path d="M61.5338 57.1504L48.3983 63.5247C47.6564 63.8846 46.8219 64.0033 46.0103 63.8642C45.1986 63.7252 44.4498 63.3354 43.8676 62.7487L0.86656 23.2332C-0.28994 22.1704 -0.28844 20.3351 0.86956 19.274L4.38206 16.0556C4.84096 15.6352 5.43137 15.3898 6.05095 15.362C6.67053 15.3343 7.28021 15.5259 7.77431 15.9037L59.5573 55.4968C61.2946 56.8249 63.7898 55.5761 63.7898 53.3782V53.5322C63.7898 54.2881 63.578 55.0287 63.1789 55.6688C62.7798 56.3089 62.2096 56.8225 61.5338 57.1504V57.1504Z" fill="#007ACC"/>
<path d="M48.3571 63.5298C47.615 63.8895 46.7804 64.008 45.9687 63.8688C45.1569 63.7297 44.4081 63.3397 43.8258 62.753C45.2961 64.2345 47.8103 63.1851 47.8103 61.0892V2.84039C47.8103 0.744514 45.2961 -0.304935 43.8258 1.17689C44.4081 0.590077 45.1569 0.2001 45.9686 0.0608901C46.7804 -0.0783194 47.615 0.0401171 48.3571 0.399821L61.4903 6.7653C62.1665 7.09307 62.7372 7.60664 63.1366 8.24689C63.536 8.88714 63.7478 9.62805 63.7478 10.3843V53.5458C63.7478 55.0891 62.8703 56.4961 61.4903 57.1648L48.3571 63.53V63.5298Z" fill="#1F9CF0"/>
<path d="M45.2071 63.6486C45.7144 63.8479 46.2569 63.9399 46.801 63.9189C47.345 63.8978 47.879 63.7641 48.3696 63.5261L61.4946 57.1607C62.1706 56.8327 62.741 56.3191 63.1402 55.6789C63.5394 55.0386 63.7512 54.2978 63.7511 53.5416V10.3804C63.7512 9.62431 63.5395 8.88352 63.1403 8.24329C62.7412 7.60306 62.1708 7.08941 61.4948 6.76141L48.3693 0.395681C47.6277 0.0360551 46.7935 -0.0823422 45.9822 0.0568756C45.1709 0.196093 44.4226 0.586042 43.8408 1.17275L18.7143 24.2773L7.76934 15.9038C7.27564 15.5261 6.66632 15.3345 6.04709 15.3623C5.42787 15.39 4.83783 15.6354 4.37934 16.0558L0.869092 19.2742C-0.288408 20.3352 -0.289658 22.1706 0.866092 23.2334L10.3578 31.961L0.866092 40.6885C-0.289658 41.7515 -0.288408 43.5866 0.869092 44.6479L4.37934 47.8661C4.8378 48.2865 5.42783 48.5319 6.04705 48.5597C6.66627 48.5875 7.27561 48.3959 7.76934 48.0182L18.7143 39.6446L43.8408 62.7488C44.2294 63.141 44.6947 63.4474 45.2071 63.6486V63.6486ZM47.8231 17.3746L28.7576 31.961L47.8231 46.547V17.3748V17.3746Z" fill="url(#paint0_linear_26_121)" fill-opacity="0.25"/>
</g>
<defs>
<linearGradient id="paint0_linear_26_121" x1="31.8756" y1="0.00012207" x2="31.8756" y2="63.9218" gradientUnits="userSpaceOnUse">
<stop stop-color="white"/>
<stop offset="1" stop-color="white" stop-opacity="0"/>
</linearGradient>
<clipPath id="clip0_26_121">
<rect width="64" height="64" fill="white"/>
</clipPath>
</defs>
</svg>
