<svg width="209" height="48" viewBox="0 0 209 48" fill="none" xmlns="http://www.w3.org/2000/svg">
<g clip-path="url(#clip0_43_31)">
<path d="M121.283 18.7594H113.062V19.6365C115.633 19.6365 116.047 20.1908 116.047 23.4708V29.3838C116.047 32.6634 115.633 33.264 113.062 33.264C111.087 32.9871 109.755 31.9241 107.918 29.8917L105.805 27.5824C108.652 27.0737 110.168 25.2726 110.168 23.2398C110.168 20.6999 108.01 18.7598 103.968 18.7598H95.8853V19.6365C98.4566 19.6365 98.8703 20.1908 98.8703 23.4708V29.3838C98.8703 32.6634 98.4566 33.264 95.8853 33.264V34.1416H105.024V33.2636C102.453 33.2636 102.04 32.6634 102.04 29.3838V27.721H102.82L107.918 34.1416H121.283C127.85 34.1416 130.697 30.6314 130.697 26.4271C130.697 22.2236 127.85 18.7594 121.283 18.7594ZM102.04 26.2884V20.1453H103.922C105.989 20.1453 106.908 21.5771 106.908 23.2402C106.908 24.857 105.989 26.2884 103.922 26.2884H102.04V26.2884ZM121.421 32.7098H121.099C119.446 32.7098 119.216 32.2942 119.216 30.1691V20.1453H121.421C126.197 20.1453 127.069 23.6554 127.069 26.3812C127.069 29.1988 126.196 32.7098 121.421 32.7098ZM70.3055 27.9984L73.4745 18.5744C74.3934 15.8491 73.9798 15.0642 71.0406 15.0642V14.1399H79.6744V15.0642C76.7812 15.0642 76.0927 15.7567 74.9445 19.1291L69.7084 34.9268H69.1116L64.4266 20.4677L59.6502 34.9268H59.053L53.956 19.1291C52.8539 15.7567 52.1188 15.0642 49.4549 15.0642V14.1399H59.6506V15.0642C56.9409 15.0642 56.2055 15.7108 57.1706 18.5744L60.2473 27.998L64.8859 14.1399H65.7588L70.3055 27.9984V27.9984ZM85.9197 34.7418C80.8679 34.7418 76.7347 31.0002 76.7347 26.4267C76.7347 21.9003 80.8683 18.158 85.9197 18.158C90.9718 18.158 95.1046 21.9003 95.1046 26.4267C95.1046 31.0002 90.9718 34.7418 85.9197 34.7418ZM85.9197 19.591C81.6947 19.591 80.2251 23.4244 80.2251 26.4271C80.2251 29.4765 81.6947 33.264 85.9197 33.264C90.1911 33.264 91.6608 29.4765 91.6608 26.4271C91.6608 23.4244 90.1911 19.591 85.9197 19.591V19.591Z" fill="white" fill-opacity="0.2"/>
<path d="M142.04 33.2176V34.1415H131.523V33.2176C134.601 33.2176 135.152 32.4324 135.152 27.8125V20.4226C135.152 15.8023 134.601 15.0638 131.523 15.0638V14.1395H141.03C145.76 14.1395 148.379 16.5879 148.379 19.8679C148.379 23.0556 145.76 25.5495 141.03 25.5495H138.412V27.8121C138.412 32.4324 138.963 33.2176 142.04 33.2176ZM141.03 15.8023H138.412V23.8404H141.03C143.602 23.8404 144.796 22.039 144.796 19.8679C144.796 17.6509 143.602 15.8023 141.03 15.8023ZM179.929 29.7994L179.699 30.631C179.286 32.1551 178.78 32.7098 175.52 32.7098H174.876C172.489 32.7098 172.075 32.1551 172.075 28.8759V26.7508C175.658 26.7508 175.934 27.0741 175.934 29.4765H176.806V22.5928H175.933C175.933 24.9949 175.658 25.3182 172.075 25.3182V20.1448H174.601C177.862 20.1448 178.367 20.6995 178.78 22.2236L179.01 23.1007H179.745L179.424 18.759H165.921V19.6361C168.493 19.6361 168.907 20.1904 168.907 23.4704V29.3834C168.907 32.3836 168.555 33.1393 166.528 33.2472C164.6 32.951 163.278 31.8938 161.467 29.8913L159.354 27.582C162.202 27.0732 163.718 25.2722 163.718 23.2394C163.718 20.6995 161.559 18.7594 157.518 18.7594H149.435V19.6361C152.006 19.6361 152.42 20.1904 152.42 23.4704V29.3834C152.42 32.663 152.007 33.2636 149.435 33.2636V34.1411H158.574V33.2632C156.003 33.2632 155.589 32.663 155.589 29.3834V27.721H156.37L161.467 34.1415H180.343L180.619 29.7998H179.929V29.7994ZM155.589 26.2884V20.1452H157.471C159.538 20.1452 160.457 21.577 160.457 23.2402C160.457 24.857 159.538 26.2884 157.471 26.2884H155.589ZM189.252 34.7418C187.415 34.7418 185.807 33.7719 185.118 33.1709C184.889 33.4023 184.475 34.0952 184.384 34.7418H183.511V28.3676H184.43C184.797 31.4158 186.91 33.2176 189.619 33.2176C191.089 33.2176 192.283 32.3865 192.283 31.0006C192.283 29.7998 191.227 28.8755 189.344 27.9984L186.726 26.7512C184.889 25.8728 183.511 24.3483 183.511 22.3163C183.511 20.0993 185.578 18.2055 188.425 18.2055C189.941 18.2055 191.226 18.7598 192.008 19.4064C192.237 19.2218 192.467 18.713 192.605 18.1584H193.478V23.6103H192.513C192.191 21.4388 190.997 19.6373 188.563 19.6373C187.278 19.6373 186.083 20.3766 186.083 21.5319C186.083 22.7327 187.048 23.3789 189.252 24.3955L191.777 25.6427C193.983 26.7048 194.855 28.4148 194.855 29.8002C194.855 32.7102 192.329 34.7422 189.252 34.7422V34.7418ZM203.397 34.7418C201.56 34.7418 199.952 33.7719 199.264 33.1709C199.033 33.4023 198.621 34.0952 198.529 34.7418H197.656V28.3676H198.575C198.942 31.4158 201.055 33.2176 203.764 33.2176C205.234 33.2176 206.428 32.3865 206.428 31.0006C206.428 29.7998 205.372 28.8755 203.488 27.9984L200.871 26.7512C199.033 25.8728 197.656 24.3483 197.656 22.3163C197.656 20.0993 199.722 18.2055 202.57 18.2055C204.086 18.2055 205.371 18.7598 206.152 19.4064C206.382 19.2218 206.611 18.713 206.749 18.1584H207.622V23.6103H206.657C206.336 21.4388 205.142 19.6373 202.708 19.6373C201.422 19.6373 200.227 20.3766 200.227 21.5319C200.227 22.7327 201.192 23.3789 203.397 24.3955L205.922 25.6427C208.127 26.7048 208.999 28.4148 208.999 29.8002C208.999 32.7102 206.473 34.7422 203.397 34.7422V34.7418Z" fill="white" fill-opacity="0.2"/>
<path d="M3.52662 23.8289C3.52662 31.9208 8.20229 38.9132 14.9819 42.2273L5.28627 15.5093C4.12399 18.1272 3.52436 20.9623 3.52662 23.8293V23.8289ZM37.5726 22.7975C37.5726 20.2712 36.6703 18.5214 35.8961 17.1594C34.8658 15.4757 33.9003 14.0496 33.9003 12.3659C33.9003 10.4866 35.3173 8.73723 37.3132 8.73723C37.4033 8.73723 37.4886 8.74872 37.5767 8.75364C33.9607 5.42154 29.1431 3.38749 23.8515 3.38749C16.7509 3.38749 10.504 7.05149 6.8697 12.6018C7.34694 12.6158 7.79603 12.6261 8.17782 12.6261C10.3038 12.6261 13.5946 12.3664 13.5946 12.3664C14.6902 12.3015 14.8191 13.92 13.7252 14.0505C13.7252 14.0505 12.6238 14.1809 11.3985 14.2453L18.8001 36.3881L23.2478 22.9711L20.0813 14.2449C18.987 14.1801 17.9501 14.0496 17.9501 14.0496C16.8545 13.9852 16.9834 12.3007 18.0782 12.3659C18.0782 12.3659 21.4351 12.6252 23.4322 12.6252C25.5573 12.6252 28.849 12.3659 28.849 12.3659C29.945 12.3007 30.0739 13.9192 28.9791 14.0496C28.9791 14.0496 27.8758 14.1801 26.6529 14.2445L33.9978 36.2199L36.025 29.4055C36.9036 26.5785 37.5726 24.5477 37.5726 22.7975V22.7975ZM24.208 25.6172L18.11 43.44C19.9744 43.9923 21.9079 44.2728 23.8515 44.2728C26.1503 44.2736 28.4325 43.8817 30.6009 43.1138C30.5446 43.0245 30.4963 42.9303 30.4565 42.8324L24.208 25.6172V25.6172ZM41.6858 14.0213C41.7731 14.6724 41.8228 15.3711 41.8228 16.1235C41.8228 18.1977 41.4374 20.5296 40.2769 23.4453L34.0688 41.4995C40.1113 37.9553 44.1755 31.3711 44.1755 23.8297C44.176 20.2753 43.2733 16.9333 41.6858 14.0213V14.0213ZM23.8515 0C10.7879 0 0.159058 10.6896 0.159058 23.8289C0.159058 36.9703 10.7879 47.6595 23.8515 47.6595C36.9151 47.6595 47.5451 36.9703 47.5451 23.8289C47.5451 10.6896 36.9151 0 23.8515 0ZM23.8515 46.567C11.3871 46.567 1.24528 36.3668 1.24528 23.8289C1.24528 11.2923 11.3867 1.09251 23.8515 1.09251C36.3159 1.09251 46.4569 11.2923 46.4569 23.8289C46.4569 36.3668 36.3159 46.567 23.8515 46.567V46.567Z" fill="white" fill-opacity="0.2"/>
</g>
<defs>
<clipPath id="clip0_43_31">
<rect width="208.841" height="48" fill="white" transform="translate(0.159058)"/>
</clipPath>
</defs>
</svg>
