<svg width="24" height="24" viewBox="0 0 24 24" fill="none" xmlns="http://www.w3.org/2000/svg">
<g clip-path="url(#clip0_36404_26)">
<mask id="mask0_36404_26" style="mask-type:alpha" maskUnits="userSpaceOnUse" x="0" y="0" width="24" height="24">
<rect width="24" height="24" rx="12" fill="#D9D9D9"/>
</mask>
<g mask="url(#mask0_36404_26)">
<mask id="mask1_36404_26" style="mask-type:alpha" maskUnits="userSpaceOnUse" x="0" y="0" width="24" height="12">
<rect x="7.62939e-06" width="24" height="12" fill="#D9D9D9"/>
</mask>
<g mask="url(#mask1_36404_26)">
<rect x="7.62939e-06" width="24" height="24" rx="12" fill="#E3EEED"/>
</g>
<mask id="mask2_36404_26" style="mask-type:alpha" maskUnits="userSpaceOnUse" x="0" y="12" width="24" height="12">
<rect y="12" width="24" height="12" fill="#D9D9D9"/>
</mask>
<g mask="url(#mask2_36404_26)">
<rect width="24" height="24" rx="12" fill="#43806C"/>
</g>
<path d="M12 12C6.6383 -0.375 9.50211e-07 12 9.50211e-07 12C0.0426907 14.0962 0.529907 16.7494 2.5 19.5C4.56742 22.4992 8.02029 24 12 24C15.5465 24 18.5503 22.8942 20.5 20.5C23.3494 17.6199 23.9177 14.8192 24 12C24 12 17.3617 24.375 12 12Z" fill="#43806C"/>
<path d="M11.9999 12C17.3616 24.375 23.9999 12 23.9999 12C23.9572 9.9038 23.47 7.25057 21.4999 4.5C19.4324 1.50084 15.9796 -7.01168e-07 11.9999 -1.04909e-06C8.45338 -1.35913e-06 5.44952 1.10583 3.49987 3.5C0.650426 6.38008 0.0821445 9.18083 -0.000134941 12C-0.000134941 12 6.63817 -0.375002 11.9999 12Z" fill="#E3EEED"/>
<path d="M17.6131 9.83153C17.1231 10.3278 16.7462 10.9448 16.5327 11.6289L15.7412 9.10724H15V17.9999H16.6206V14.6199C16.6206 13.3993 16.7462 12.38 17.2111 11.6557C17.6131 11.0387 18.304 10.6631 19.1709 10.6631C19.4472 10.6631 19.7236 10.69 20 10.7436V9.04018C19.8367 9.01335 19.6734 8.99994 19.5101 8.99994C18.8065 9.01335 18.1281 9.30843 17.6131 9.83153Z" fill="#222222"/>
<path d="M9.60114 11.721C11.2687 11.3707 12.5545 10.4626 12.5545 8.87994C12.5545 6.93399 11.116 5.99994 8.90099 5.99994H4V17.9999H9.42292C11.4215 17.9999 13 16.9621 13 14.7697C13 12.9535 11.4979 11.8507 9.60114 11.721ZM8.34088 6.86913C9.93211 6.86913 10.7596 7.68643 10.7596 8.97075C10.7596 10.2551 9.85573 11.254 8.20085 11.254H5.8331V6.86913H8.34088ZM8.55729 17.1048H5.8331V12.2529H8.27723C10.0212 12.2529 11.1033 13.1221 11.1033 14.6918C11.1033 16.067 10.1994 17.1048 8.55729 17.1048Z" fill="#222222"/>
<rect x="0.5" y="0.5" width="23" height="23" rx="11.5" stroke="#222222"/>
</g>
</g>
<defs>
<clipPath id="clip0_36404_26">
<rect width="24" height="24" fill="white"/>
</clipPath>
</defs>
</svg>
