<svg width="26" height="26" viewBox="0 0 26 26" fill="none" xmlns="http://www.w3.org/2000/svg">
<g clip-path="url(#clip0_1_277)">
<path fill-rule="evenodd" clip-rule="evenodd" d="M24.6163 5.39604C25.0197 5.80204 25.3094 6.30687 25.4564 6.86C26 8.90159 26 13.1591 26 13.1591C26 13.1591 26 17.4166 25.4564 19.4582C25.3094 20.0113 25.0197 20.5162 24.6163 20.9222C24.2129 21.3282 23.7099 21.6211 23.1577 21.7716C21.125 22.3182 13 22.3182 13 22.3182C13 22.3182 4.875 22.3182 2.84227 21.7716C2.29009 21.6211 1.78713 21.3282 1.38373 20.9222C0.980329 20.5162 0.690631 20.0113 0.543636 19.4582C5.96046e-08 17.4166 0 13.1591 0 13.1591C0 13.1591 5.96046e-08 8.90159 0.543636 6.86C0.690631 6.30687 0.980329 5.80204 1.38373 5.39604C1.78713 4.99005 2.29009 4.69713 2.84227 4.54659C4.875 4 13 4 13 4C13 4 21.125 4 23.1577 4.54659C23.7099 4.69713 24.2129 4.99005 24.6163 5.39604ZM10.4746 9.15918V17.1592L16.9746 13.1591L10.4746 9.15918Z" fill="white"/>
</g>
<defs>
<clipPath id="clip0_1_277">
<rect width="26" height="26" fill="white"/>
</clipPath>
</defs>
</svg>
